M48
;GenerationSoftware,Autodesk,EAGLE,9.6.1*%
;CreationDate,2024-12-21T11:14:01Z*%
FMAT,2
ICI,OFF
METRIC,TZ,000.000
T4C0.250
T3C0.350
T2C1.016
T1C1.700
%
G90
M71
T1
X0Y27305
X0Y20305
T2
X8853Y26829
X-9366Y14922
X10636Y13494
X-9366Y17463
X-9366Y12382
X-5556Y26829
X-8096Y26829
X6313Y26829
T3
X6985Y4286
X-5874Y3651
X-7779Y4604
X-318Y22542
X14129Y16986
X13970Y13652
X0Y24606
X4286Y22384
X9684Y19685
X10636Y15716
X-5556Y24924
X-6826Y24924
X-6826Y20161
X-1465Y23531
X-3012Y6048
X2699Y24774
X0Y12065
X-159Y7937
X-6191Y10795
X-12700Y14605
X-12541Y16510
X4615Y19685
X-159Y17621
X-1587Y26829
X-4763Y13970
X4921Y3016
X-3334Y23336
T4
X-9936Y8691
X12435Y19378
X3962Y8330
X-6247Y6826
X-1429Y3016
X-10052Y20946
X9900Y6628
M30