G04 EAGLE Gerber RS-274X export*
G75*
%MOMM*%
%FSLAX34Y34*%
%LPD*%
%INBottom Copper*%
%IPPOS*%
%AMOC8*
5,1,8,0,0,1.08239X$1,22.5*%
G01*
%ADD10R,1.100000X1.000000*%
%ADD11R,1.399997X0.400000*%
%ADD12R,0.550000X0.254000*%
%ADD13R,0.254000X0.550000*%
%ADD14R,5.600000X5.600000*%
%ADD15P,1.649562X8X22.500000*%
%ADD16R,1.000000X1.100000*%
%ADD17R,1.300000X1.500000*%
%ADD18C,1.524000*%
%ADD19R,0.800000X0.500000*%
%ADD20R,0.750000X0.270000*%
%ADD21R,1.650000X1.450000*%
%ADD22C,1.000000*%
%ADD23C,0.812800*%
%ADD24C,0.756400*%
%ADD25C,0.406400*%
%ADD26C,0.203200*%
%ADD27C,0.656400*%
%ADD28C,0.254000*%
%ADD29C,0.152400*%
%ADD30C,0.304800*%
%ADD31C,0.508000*%

G36*
X74912Y75943D02*
X74912Y75943D01*
X74999Y75946D01*
X75052Y75963D01*
X75107Y75970D01*
X75187Y76006D01*
X75270Y76033D01*
X75309Y76061D01*
X75366Y76087D01*
X75479Y76182D01*
X75543Y76228D01*
X115165Y115850D01*
X115217Y115919D01*
X115277Y115983D01*
X115303Y116033D01*
X115336Y116077D01*
X115367Y116158D01*
X115407Y116236D01*
X115415Y116284D01*
X115437Y116342D01*
X115449Y116490D01*
X115462Y116567D01*
X115462Y128654D01*
X115458Y128683D01*
X115461Y128712D01*
X115438Y128823D01*
X115422Y128935D01*
X115410Y128962D01*
X115405Y128991D01*
X115353Y129091D01*
X115306Y129195D01*
X115287Y129217D01*
X115274Y129243D01*
X115196Y129325D01*
X115123Y129412D01*
X115098Y129428D01*
X115078Y129449D01*
X114980Y129506D01*
X114886Y129569D01*
X114858Y129578D01*
X114833Y129593D01*
X114723Y129621D01*
X114615Y129655D01*
X114585Y129656D01*
X114557Y129663D01*
X114444Y129659D01*
X114331Y129662D01*
X114302Y129655D01*
X114273Y129654D01*
X114165Y129619D01*
X114056Y129590D01*
X114030Y129575D01*
X114002Y129566D01*
X113939Y129521D01*
X113811Y129445D01*
X113768Y129400D01*
X113729Y129372D01*
X110150Y125793D01*
X102575Y125793D01*
X97218Y131150D01*
X97218Y138725D01*
X102575Y144082D01*
X110150Y144082D01*
X113729Y140503D01*
X113753Y140486D01*
X113772Y140463D01*
X113866Y140401D01*
X113956Y140333D01*
X113984Y140322D01*
X114008Y140306D01*
X114116Y140272D01*
X114222Y140231D01*
X114251Y140229D01*
X114279Y140220D01*
X114393Y140217D01*
X114505Y140208D01*
X114534Y140214D01*
X114563Y140213D01*
X114673Y140241D01*
X114784Y140264D01*
X114810Y140277D01*
X114838Y140285D01*
X114936Y140342D01*
X115036Y140395D01*
X115058Y140415D01*
X115083Y140430D01*
X115160Y140512D01*
X115242Y140590D01*
X115257Y140616D01*
X115277Y140637D01*
X115329Y140738D01*
X115386Y140836D01*
X115393Y140864D01*
X115407Y140890D01*
X115420Y140968D01*
X115456Y141111D01*
X115454Y141174D01*
X115462Y141221D01*
X115462Y188480D01*
X119249Y192267D01*
X119301Y192336D01*
X119361Y192400D01*
X119387Y192450D01*
X119420Y192494D01*
X119451Y192575D01*
X119491Y192653D01*
X119499Y192701D01*
X119521Y192759D01*
X119533Y192907D01*
X119546Y192984D01*
X119546Y195769D01*
X120479Y196701D01*
X120531Y196770D01*
X120590Y196833D01*
X120616Y196883D01*
X120650Y196929D01*
X120681Y197009D01*
X120720Y197086D01*
X120731Y197142D01*
X120751Y197194D01*
X120758Y197280D01*
X120775Y197365D01*
X120770Y197421D01*
X120775Y197478D01*
X120758Y197562D01*
X120750Y197648D01*
X120730Y197701D01*
X120719Y197756D01*
X120679Y197833D01*
X120648Y197914D01*
X120614Y197959D01*
X120588Y198009D01*
X120528Y198071D01*
X120476Y198140D01*
X120436Y198168D01*
X120392Y198215D01*
X120266Y198289D01*
X120202Y198334D01*
X119348Y198745D01*
X119264Y198772D01*
X119207Y198801D01*
X118588Y198992D01*
X118532Y199068D01*
X118523Y199075D01*
X118516Y199085D01*
X118466Y199120D01*
X118308Y199243D01*
X118270Y199259D01*
X118242Y199278D01*
X116407Y200163D01*
X116396Y200166D01*
X116386Y200173D01*
X116261Y200209D01*
X116136Y200249D01*
X116125Y200250D01*
X116113Y200253D01*
X116052Y200252D01*
X115969Y200254D01*
X115432Y200620D01*
X115353Y200659D01*
X115301Y200696D01*
X114717Y200978D01*
X114673Y201061D01*
X114665Y201070D01*
X114660Y201080D01*
X114616Y201122D01*
X114478Y201268D01*
X114442Y201289D01*
X114418Y201312D01*
X112735Y202460D01*
X112725Y202465D01*
X112716Y202473D01*
X112597Y202528D01*
X112480Y202586D01*
X112469Y202588D01*
X112458Y202593D01*
X112397Y202601D01*
X112315Y202616D01*
X111839Y203058D01*
X111766Y203109D01*
X111720Y203153D01*
X111185Y203518D01*
X111154Y203607D01*
X111148Y203617D01*
X111144Y203628D01*
X111106Y203676D01*
X110992Y203840D01*
X110959Y203867D01*
X110939Y203894D01*
X109446Y205280D01*
X109437Y205286D01*
X109429Y205295D01*
X109320Y205367D01*
X109213Y205442D01*
X109202Y205446D01*
X109192Y205452D01*
X109133Y205469D01*
X109054Y205496D01*
X108649Y206004D01*
X108585Y206065D01*
X108546Y206115D01*
X108071Y206556D01*
X108054Y206649D01*
X108049Y206659D01*
X108047Y206671D01*
X108017Y206725D01*
X107928Y206904D01*
X107900Y206935D01*
X107884Y206964D01*
X106614Y208557D01*
X106606Y208565D01*
X106600Y208575D01*
X106503Y208663D01*
X106408Y208753D01*
X106397Y208758D01*
X106389Y208766D01*
X106333Y208791D01*
X106259Y208829D01*
X105934Y209392D01*
X105880Y209462D01*
X105849Y209518D01*
X105447Y210023D01*
X105447Y210041D01*
X105444Y210052D01*
X105442Y210119D01*
X105439Y210130D01*
X105438Y210142D01*
X105416Y210200D01*
X105356Y210390D01*
X105332Y210425D01*
X105321Y210456D01*
X104303Y212221D01*
X104295Y212230D01*
X104291Y212240D01*
X104208Y212341D01*
X104127Y212445D01*
X104118Y212451D01*
X104111Y212460D01*
X104060Y212494D01*
X103992Y212543D01*
X103755Y213148D01*
X103711Y213225D01*
X103689Y213284D01*
X103365Y213846D01*
X103376Y213940D01*
X103374Y213951D01*
X103376Y213963D01*
X103363Y214023D01*
X103331Y214220D01*
X103313Y214258D01*
X103306Y214291D01*
X102563Y216188D01*
X102557Y216198D01*
X102554Y216209D01*
X102487Y216321D01*
X102423Y216435D01*
X102415Y216443D01*
X102409Y216453D01*
X102363Y216494D01*
X102304Y216552D01*
X102159Y217186D01*
X102128Y217269D01*
X102114Y217331D01*
X101878Y217935D01*
X101903Y218025D01*
X101903Y218037D01*
X101906Y218048D01*
X101902Y218110D01*
X101900Y218310D01*
X101888Y218350D01*
X101886Y218383D01*
X101434Y220369D01*
X101429Y220380D01*
X101428Y220392D01*
X101379Y220513D01*
X101332Y220635D01*
X101325Y220644D01*
X101321Y220655D01*
X101282Y220702D01*
X101232Y220769D01*
X101183Y221417D01*
X101164Y221503D01*
X101161Y221567D01*
X101017Y222199D01*
X101055Y222285D01*
X101057Y222297D01*
X101061Y222307D01*
X101067Y222368D01*
X101095Y222567D01*
X101089Y222608D01*
X101092Y222642D01*
X100940Y224673D01*
X100938Y224684D01*
X100938Y224696D01*
X100908Y224822D01*
X100880Y224951D01*
X100874Y224961D01*
X100871Y224972D01*
X100840Y225025D01*
X100800Y225098D01*
X100849Y225746D01*
X100843Y225834D01*
X100849Y225898D01*
X100801Y226544D01*
X100851Y226624D01*
X100855Y226635D01*
X100861Y226645D01*
X100875Y226704D01*
X100933Y226896D01*
X100933Y226938D01*
X100941Y226971D01*
X101094Y229002D01*
X101093Y229013D01*
X101095Y229025D01*
X101084Y229156D01*
X101075Y229286D01*
X101071Y229297D01*
X101070Y229308D01*
X101047Y229365D01*
X101019Y229443D01*
X101163Y230076D01*
X101171Y230165D01*
X101186Y230226D01*
X101235Y230873D01*
X101297Y230944D01*
X101302Y230954D01*
X101309Y230963D01*
X101333Y231020D01*
X101418Y231201D01*
X101424Y231243D01*
X101437Y231274D01*
X101891Y233260D01*
X101892Y233271D01*
X101896Y233282D01*
X101904Y233412D01*
X101915Y233543D01*
X101913Y233554D01*
X101913Y233566D01*
X101899Y233625D01*
X101882Y233707D01*
X102120Y234312D01*
X102140Y234398D01*
X102165Y234457D01*
X102309Y235089D01*
X102381Y235150D01*
X102388Y235159D01*
X102396Y235167D01*
X102428Y235220D01*
X102539Y235386D01*
X102552Y235426D01*
X102569Y235455D01*
X103314Y237351D01*
X103316Y237362D01*
X103322Y237372D01*
X103350Y237501D01*
X103380Y237627D01*
X103379Y237639D01*
X103382Y237650D01*
X103376Y237712D01*
X103372Y237794D01*
X103697Y238357D01*
X103730Y238439D01*
X103763Y238494D01*
X104000Y239098D01*
X104080Y239147D01*
X104088Y239156D01*
X104098Y239162D01*
X104137Y239209D01*
X104271Y239357D01*
X104290Y239395D01*
X104311Y239421D01*
X105330Y241185D01*
X105335Y241195D01*
X105342Y241205D01*
X105388Y241327D01*
X105437Y241448D01*
X105438Y241460D01*
X105442Y241471D01*
X105445Y241532D01*
X105454Y241615D01*
X105859Y242122D01*
X105904Y242199D01*
X105945Y242248D01*
X106269Y242809D01*
X106356Y242846D01*
X106365Y242854D01*
X106376Y242858D01*
X106421Y242899D01*
X106576Y243026D01*
X106600Y243060D01*
X106625Y243083D01*
X107896Y244675D01*
X107902Y244685D01*
X107910Y244693D01*
X107975Y244808D01*
X108040Y244920D01*
X108043Y244931D01*
X108049Y244941D01*
X108061Y245001D01*
X108082Y245082D01*
X108559Y245523D01*
X108615Y245592D01*
X108662Y245635D01*
X109067Y246142D01*
X109158Y246165D01*
X109168Y246171D01*
X109179Y246174D01*
X109230Y246208D01*
X109402Y246310D01*
X109431Y246340D01*
X109459Y246359D01*
X110953Y247744D01*
X110960Y247753D01*
X110970Y247759D01*
X111022Y247827D01*
X111024Y247828D01*
X111027Y247833D01*
X111050Y247863D01*
X111132Y247964D01*
X111137Y247975D01*
X111144Y247984D01*
X111165Y248040D01*
X111181Y248065D01*
X111198Y248118D01*
X111735Y248484D01*
X111800Y248544D01*
X111854Y248579D01*
X112329Y249020D01*
X112423Y249029D01*
X112433Y249034D01*
X112445Y249035D01*
X112501Y249061D01*
X112686Y249136D01*
X112719Y249161D01*
X112750Y249176D01*
X112941Y249306D01*
X112956Y249320D01*
X112975Y249330D01*
X113061Y249415D01*
X113151Y249497D01*
X113162Y249515D01*
X113177Y249529D01*
X113236Y249636D01*
X113300Y249740D01*
X113306Y249759D01*
X113316Y249777D01*
X113344Y249896D01*
X113376Y250013D01*
X113376Y250034D01*
X113381Y250054D01*
X113375Y250176D01*
X113373Y250298D01*
X113367Y250317D01*
X113366Y250338D01*
X113340Y250408D01*
X113292Y250570D01*
X113263Y250614D01*
X113249Y250653D01*
X96316Y279982D01*
X96233Y280087D01*
X96153Y280194D01*
X96146Y280199D01*
X96141Y280206D01*
X96032Y280285D01*
X95926Y280364D01*
X95917Y280367D01*
X95910Y280373D01*
X95785Y280418D01*
X95660Y280465D01*
X95651Y280466D01*
X95643Y280469D01*
X95510Y280477D01*
X95376Y280488D01*
X95368Y280486D01*
X95359Y280487D01*
X95081Y280426D01*
X95065Y280417D01*
X95049Y280413D01*
X93692Y279853D01*
X91002Y279136D01*
X90914Y279098D01*
X90822Y279069D01*
X90783Y279043D01*
X90740Y279025D01*
X90666Y278964D01*
X90586Y278910D01*
X90556Y278875D01*
X90520Y278845D01*
X90465Y278767D01*
X90403Y278693D01*
X90384Y278650D01*
X90357Y278612D01*
X90326Y278521D01*
X90287Y278433D01*
X90281Y278387D01*
X90266Y278343D01*
X90262Y278247D01*
X90248Y278151D01*
X90255Y278105D01*
X90253Y278059D01*
X90275Y277965D01*
X90289Y277870D01*
X90308Y277828D01*
X90319Y277782D01*
X90367Y277699D01*
X90406Y277611D01*
X90436Y277576D01*
X90459Y277535D01*
X90528Y277468D01*
X90591Y277395D01*
X90625Y277373D01*
X90663Y277336D01*
X90812Y277256D01*
X90875Y277217D01*
X93712Y276042D01*
X96284Y273469D01*
X97676Y270108D01*
X97676Y266470D01*
X96284Y263109D01*
X93712Y260537D01*
X90351Y259144D01*
X86713Y259144D01*
X84954Y259873D01*
X84952Y259873D01*
X84951Y259874D01*
X84817Y259908D01*
X84679Y259944D01*
X84677Y259944D01*
X84676Y259944D01*
X84535Y259940D01*
X84395Y259936D01*
X84393Y259935D01*
X84391Y259935D01*
X84259Y259892D01*
X84124Y259849D01*
X84122Y259848D01*
X84121Y259848D01*
X84109Y259839D01*
X83888Y259691D01*
X83868Y259667D01*
X83848Y259653D01*
X64502Y240308D01*
X62568Y238373D01*
X23106Y238373D01*
X22689Y238790D01*
X22665Y238808D01*
X22646Y238830D01*
X22552Y238893D01*
X22462Y238961D01*
X22434Y238972D01*
X22410Y238988D01*
X22302Y239022D01*
X22196Y239063D01*
X22167Y239065D01*
X22139Y239074D01*
X22025Y239077D01*
X21913Y239086D01*
X21884Y239080D01*
X21855Y239081D01*
X21745Y239052D01*
X21634Y239030D01*
X21608Y239017D01*
X21580Y239009D01*
X21482Y238952D01*
X21382Y238899D01*
X21360Y238879D01*
X21335Y238864D01*
X21258Y238781D01*
X21176Y238703D01*
X21161Y238678D01*
X21141Y238657D01*
X21089Y238556D01*
X21032Y238458D01*
X21025Y238430D01*
X21011Y238404D01*
X20998Y238326D01*
X20962Y238183D01*
X20964Y238120D01*
X20956Y238073D01*
X20956Y233877D01*
X20964Y233820D01*
X20962Y233761D01*
X20984Y233680D01*
X20996Y233596D01*
X21019Y233543D01*
X21034Y233486D01*
X21077Y233414D01*
X21112Y233337D01*
X21150Y233292D01*
X21179Y233242D01*
X21241Y233184D01*
X21295Y233120D01*
X21344Y233087D01*
X21387Y233047D01*
X21462Y233009D01*
X21532Y232962D01*
X21588Y232944D01*
X21640Y232918D01*
X21708Y232906D01*
X21803Y232876D01*
X21903Y232874D01*
X21971Y232862D01*
X30969Y232862D01*
X31894Y231937D01*
X31902Y231882D01*
X31906Y231873D01*
X31908Y231864D01*
X31964Y231744D01*
X32018Y231623D01*
X32025Y231615D01*
X32029Y231606D01*
X32116Y231507D01*
X32202Y231406D01*
X32210Y231400D01*
X32217Y231393D01*
X32328Y231322D01*
X32439Y231248D01*
X32448Y231245D01*
X32456Y231240D01*
X32583Y231203D01*
X32710Y231162D01*
X32719Y231162D01*
X32729Y231159D01*
X32862Y231159D01*
X32994Y231155D01*
X33003Y231158D01*
X33013Y231158D01*
X33142Y231194D01*
X33269Y231227D01*
X33277Y231232D01*
X33287Y231235D01*
X33400Y231305D01*
X33513Y231372D01*
X33520Y231379D01*
X33528Y231385D01*
X33617Y231483D01*
X33708Y231580D01*
X33712Y231588D01*
X33719Y231596D01*
X33742Y231647D01*
X33837Y231833D01*
X33843Y231868D01*
X33858Y231901D01*
X33970Y232318D01*
X34304Y232898D01*
X34777Y233371D01*
X35357Y233705D01*
X36003Y233878D01*
X40806Y233878D01*
X40806Y225869D01*
X32877Y225869D01*
X32820Y225860D01*
X32761Y225862D01*
X32680Y225841D01*
X32596Y225829D01*
X32543Y225805D01*
X32486Y225790D01*
X32414Y225747D01*
X32337Y225713D01*
X32292Y225675D01*
X32242Y225645D01*
X32184Y225583D01*
X32120Y225529D01*
X32087Y225480D01*
X32047Y225438D01*
X32009Y225363D01*
X31962Y225292D01*
X31944Y225236D01*
X31918Y225184D01*
X31906Y225116D01*
X31876Y225021D01*
X31874Y224921D01*
X31862Y224853D01*
X31862Y222822D01*
X31870Y222764D01*
X31869Y222705D01*
X31890Y222624D01*
X31902Y222540D01*
X31926Y222487D01*
X31941Y222430D01*
X31984Y222358D01*
X32018Y222281D01*
X32056Y222236D01*
X32086Y222186D01*
X32148Y222128D01*
X32202Y222064D01*
X32251Y222031D01*
X32293Y221991D01*
X32368Y221953D01*
X32439Y221906D01*
X32494Y221888D01*
X32546Y221862D01*
X32614Y221850D01*
X32710Y221820D01*
X32809Y221818D01*
X32877Y221806D01*
X40806Y221806D01*
X40806Y213797D01*
X36684Y213797D01*
X36655Y213793D01*
X36626Y213795D01*
X36515Y213773D01*
X36403Y213757D01*
X36376Y213745D01*
X36347Y213739D01*
X36247Y213687D01*
X36143Y213641D01*
X36121Y213622D01*
X36095Y213608D01*
X36013Y213530D01*
X35926Y213457D01*
X35910Y213433D01*
X35889Y213412D01*
X35832Y213315D01*
X35769Y213220D01*
X35760Y213192D01*
X35745Y213167D01*
X35717Y213058D01*
X35683Y212949D01*
X35682Y212920D01*
X35675Y212892D01*
X35679Y212779D01*
X35676Y212665D01*
X35683Y212637D01*
X35684Y212607D01*
X35719Y212500D01*
X35747Y212390D01*
X35762Y212365D01*
X35771Y212337D01*
X35817Y212273D01*
X35893Y212146D01*
X35938Y212103D01*
X35966Y212064D01*
X45294Y202736D01*
X45364Y202684D01*
X45428Y202624D01*
X45477Y202598D01*
X45521Y202565D01*
X45603Y202534D01*
X45681Y202494D01*
X45728Y202486D01*
X45787Y202464D01*
X45934Y202452D01*
X46012Y202439D01*
X47262Y202439D01*
X49316Y201588D01*
X49732Y201172D01*
X49801Y201120D01*
X49865Y201060D01*
X49915Y201034D01*
X49959Y201001D01*
X50040Y200970D01*
X50118Y200930D01*
X50166Y200922D01*
X50224Y200900D01*
X50372Y200888D01*
X50449Y200875D01*
X50782Y200875D01*
X51675Y199982D01*
X51675Y198318D01*
X51679Y198287D01*
X51677Y198257D01*
X51694Y198180D01*
X51715Y198037D01*
X51739Y197983D01*
X51739Y190665D01*
X51747Y190607D01*
X51745Y190549D01*
X51767Y190467D01*
X51779Y190383D01*
X51802Y190330D01*
X51817Y190274D01*
X51860Y190201D01*
X51895Y190124D01*
X51933Y190079D01*
X51962Y190029D01*
X52024Y189971D01*
X52078Y189907D01*
X52127Y189875D01*
X52170Y189835D01*
X52245Y189796D01*
X52315Y189749D01*
X52371Y189732D01*
X52423Y189705D01*
X52491Y189694D01*
X52586Y189664D01*
X52686Y189661D01*
X52754Y189650D01*
X53757Y189650D01*
X54650Y188757D01*
X54650Y177493D01*
X53757Y176600D01*
X41493Y176600D01*
X40600Y177493D01*
X40600Y183192D01*
X40596Y183223D01*
X40598Y183254D01*
X40581Y183330D01*
X40561Y183468D01*
X40561Y196988D01*
X40549Y197075D01*
X40546Y197162D01*
X40529Y197215D01*
X40521Y197270D01*
X40486Y197350D01*
X40459Y197433D01*
X40431Y197472D01*
X40405Y197529D01*
X40309Y197642D01*
X40264Y197706D01*
X23455Y214515D01*
X23385Y214568D01*
X23321Y214628D01*
X23272Y214653D01*
X23227Y214686D01*
X23146Y214717D01*
X23068Y214757D01*
X23020Y214765D01*
X22962Y214788D01*
X22814Y214800D01*
X22737Y214813D01*
X16706Y214813D01*
X15813Y215706D01*
X15813Y217885D01*
X15805Y217943D01*
X15806Y218001D01*
X15785Y218083D01*
X15773Y218167D01*
X15749Y218220D01*
X15734Y218276D01*
X15691Y218349D01*
X15657Y218426D01*
X15619Y218471D01*
X15589Y218521D01*
X15527Y218579D01*
X15473Y218643D01*
X15424Y218675D01*
X15382Y218715D01*
X15307Y218754D01*
X15236Y218801D01*
X15181Y218818D01*
X15129Y218845D01*
X15061Y218856D01*
X14965Y218886D01*
X14866Y218889D01*
X14798Y218900D01*
X7131Y218900D01*
X6206Y219825D01*
X6198Y219880D01*
X6194Y219889D01*
X6192Y219899D01*
X6136Y220018D01*
X6082Y220140D01*
X6075Y220147D01*
X6071Y220156D01*
X5984Y220255D01*
X5898Y220357D01*
X5890Y220362D01*
X5883Y220369D01*
X5772Y220441D01*
X5661Y220514D01*
X5652Y220517D01*
X5644Y220522D01*
X5517Y220560D01*
X5390Y220600D01*
X5381Y220600D01*
X5371Y220603D01*
X5238Y220604D01*
X5106Y220607D01*
X5097Y220605D01*
X5087Y220605D01*
X4959Y220569D01*
X4831Y220535D01*
X4823Y220531D01*
X4813Y220528D01*
X4700Y220458D01*
X4587Y220390D01*
X4580Y220383D01*
X4572Y220378D01*
X4483Y220280D01*
X4392Y220183D01*
X4388Y220174D01*
X4381Y220167D01*
X4358Y220115D01*
X4263Y219930D01*
X4257Y219894D01*
X4242Y219861D01*
X4130Y219444D01*
X3796Y218865D01*
X3323Y218392D01*
X2743Y218057D01*
X2097Y217884D01*
X-1706Y217884D01*
X-1706Y223394D01*
X5223Y223394D01*
X5280Y223402D01*
X5339Y223400D01*
X5420Y223422D01*
X5504Y223434D01*
X5557Y223458D01*
X5614Y223472D01*
X5686Y223515D01*
X5763Y223550D01*
X5808Y223588D01*
X5858Y223618D01*
X5916Y223679D01*
X5980Y223734D01*
X6013Y223782D01*
X6053Y223825D01*
X6091Y223900D01*
X6138Y223970D01*
X6156Y224026D01*
X6182Y224078D01*
X6194Y224146D01*
X6224Y224241D01*
X6226Y224341D01*
X6238Y224409D01*
X6238Y226441D01*
X6230Y226499D01*
X6231Y226557D01*
X6210Y226639D01*
X6198Y226722D01*
X6174Y226776D01*
X6159Y226832D01*
X6116Y226905D01*
X6082Y226982D01*
X6044Y227026D01*
X6014Y227077D01*
X5952Y227134D01*
X5898Y227199D01*
X5849Y227231D01*
X5807Y227271D01*
X5732Y227310D01*
X5661Y227356D01*
X5606Y227374D01*
X5554Y227401D01*
X5486Y227412D01*
X5390Y227442D01*
X5291Y227445D01*
X5223Y227456D01*
X-1706Y227456D01*
X-1706Y232966D01*
X2097Y232966D01*
X2743Y232793D01*
X3323Y232458D01*
X3796Y231985D01*
X4130Y231406D01*
X4242Y230989D01*
X4246Y230979D01*
X4247Y230970D01*
X4301Y230849D01*
X4353Y230727D01*
X4359Y230719D01*
X4363Y230710D01*
X4448Y230610D01*
X4533Y230506D01*
X4541Y230501D01*
X4547Y230493D01*
X4657Y230420D01*
X4766Y230344D01*
X4775Y230341D01*
X4784Y230336D01*
X4910Y230296D01*
X5036Y230253D01*
X5045Y230253D01*
X5055Y230250D01*
X5188Y230247D01*
X5320Y230241D01*
X5329Y230243D01*
X5339Y230243D01*
X5467Y230276D01*
X5596Y230307D01*
X5605Y230312D01*
X5614Y230315D01*
X5727Y230382D01*
X5843Y230448D01*
X5850Y230455D01*
X5858Y230460D01*
X5949Y230556D01*
X6042Y230651D01*
X6046Y230660D01*
X6053Y230667D01*
X6113Y230785D01*
X6176Y230902D01*
X6178Y230911D01*
X6182Y230920D01*
X6192Y230976D01*
X6201Y231020D01*
X7131Y231950D01*
X8192Y231950D01*
X8249Y231958D01*
X8308Y231956D01*
X8389Y231978D01*
X8473Y231990D01*
X8526Y232013D01*
X8583Y232028D01*
X8655Y232071D01*
X8732Y232106D01*
X8777Y232144D01*
X8827Y232173D01*
X8885Y232235D01*
X8949Y232289D01*
X8982Y232338D01*
X9022Y232381D01*
X9060Y232456D01*
X9107Y232526D01*
X9125Y232582D01*
X9151Y232634D01*
X9163Y232702D01*
X9193Y232797D01*
X9195Y232897D01*
X9207Y232965D01*
X9207Y236844D01*
X9199Y236902D01*
X9200Y236960D01*
X9179Y237042D01*
X9167Y237126D01*
X9143Y237179D01*
X9128Y237235D01*
X9085Y237308D01*
X9051Y237385D01*
X9013Y237430D01*
X8983Y237480D01*
X8921Y237538D01*
X8867Y237602D01*
X8818Y237634D01*
X8776Y237674D01*
X8701Y237713D01*
X8630Y237760D01*
X8575Y237777D01*
X8523Y237804D01*
X8455Y237815D01*
X8359Y237845D01*
X8260Y237848D01*
X8192Y237859D01*
X2031Y237859D01*
X2031Y246634D01*
X2023Y246692D01*
X2024Y246750D01*
X2003Y246832D01*
X1991Y246915D01*
X1967Y246969D01*
X1953Y247025D01*
X1910Y247098D01*
X1875Y247175D01*
X1837Y247219D01*
X1807Y247270D01*
X1746Y247327D01*
X1691Y247392D01*
X1643Y247424D01*
X1600Y247464D01*
X1525Y247503D01*
X1455Y247549D01*
X1399Y247567D01*
X1347Y247594D01*
X1279Y247605D01*
X1184Y247635D01*
X1084Y247638D01*
X1016Y247649D01*
X-1016Y247649D01*
X-1074Y247641D01*
X-1132Y247642D01*
X-1214Y247621D01*
X-1297Y247609D01*
X-1351Y247585D01*
X-1407Y247571D01*
X-1480Y247528D01*
X-1557Y247493D01*
X-1601Y247455D01*
X-1652Y247425D01*
X-1709Y247364D01*
X-1774Y247309D01*
X-1806Y247261D01*
X-1846Y247218D01*
X-1885Y247143D01*
X-1931Y247073D01*
X-1949Y247017D01*
X-1976Y246965D01*
X-1987Y246897D01*
X-2017Y246802D01*
X-2020Y246702D01*
X-2031Y246634D01*
X-2031Y237859D01*
X-8442Y237859D01*
X-8556Y237843D01*
X-8671Y237833D01*
X-8697Y237823D01*
X-8724Y237819D01*
X-8829Y237773D01*
X-8936Y237731D01*
X-8958Y237714D01*
X-8983Y237703D01*
X-9071Y237629D01*
X-9163Y237560D01*
X-9179Y237537D01*
X-9200Y237520D01*
X-9264Y237424D01*
X-9333Y237332D01*
X-9343Y237306D01*
X-9358Y237283D01*
X-9393Y237173D01*
X-9433Y237066D01*
X-9435Y237038D01*
X-9444Y237012D01*
X-9447Y236897D01*
X-9456Y236783D01*
X-9450Y236758D01*
X-9451Y236728D01*
X-9384Y236470D01*
X-9380Y236455D01*
X-9345Y236370D01*
X-9345Y234204D01*
X-9362Y234149D01*
X-9363Y234121D01*
X-9370Y234094D01*
X-9367Y233979D01*
X-9370Y233865D01*
X-9363Y233838D01*
X-9362Y233810D01*
X-9327Y233701D01*
X-9298Y233590D01*
X-9284Y233566D01*
X-9275Y233539D01*
X-9211Y233444D01*
X-9153Y233345D01*
X-9132Y233326D01*
X-9117Y233303D01*
X-9029Y233229D01*
X-8945Y233151D01*
X-8921Y233138D01*
X-8899Y233120D01*
X-8794Y233074D01*
X-8692Y233021D01*
X-8668Y233017D01*
X-8640Y233005D01*
X-8375Y232968D01*
X-8361Y232966D01*
X-5769Y232966D01*
X-5769Y227456D01*
X-11778Y227456D01*
X-11778Y229241D01*
X-11786Y229295D01*
X-11785Y229330D01*
X-11796Y229372D01*
X-11804Y229469D01*
X-11814Y229495D01*
X-11818Y229522D01*
X-11865Y229627D01*
X-11906Y229734D01*
X-11923Y229757D01*
X-11934Y229782D01*
X-12008Y229869D01*
X-12078Y229961D01*
X-12100Y229978D01*
X-12118Y229999D01*
X-12213Y230063D01*
X-12306Y230131D01*
X-12331Y230141D01*
X-12355Y230156D01*
X-12464Y230191D01*
X-12571Y230232D01*
X-12599Y230234D01*
X-12626Y230242D01*
X-12741Y230245D01*
X-12855Y230254D01*
X-12879Y230249D01*
X-12910Y230250D01*
X-13140Y230189D01*
X-13167Y230182D01*
X-13182Y230179D01*
X-13596Y230007D01*
X-15707Y230007D01*
X-17658Y230815D01*
X-19150Y232308D01*
X-19597Y233386D01*
X-19641Y233460D01*
X-19676Y233539D01*
X-19713Y233582D01*
X-19742Y233631D01*
X-19804Y233690D01*
X-19860Y233756D01*
X-19907Y233787D01*
X-19948Y233826D01*
X-20025Y233866D01*
X-20096Y233913D01*
X-20150Y233930D01*
X-20201Y233956D01*
X-20285Y233973D01*
X-20367Y233999D01*
X-20424Y234000D01*
X-20480Y234011D01*
X-20565Y234004D01*
X-20651Y234006D01*
X-20706Y233992D01*
X-20763Y233987D01*
X-20843Y233956D01*
X-20926Y233934D01*
X-20975Y233905D01*
X-21028Y233885D01*
X-21097Y233833D01*
X-21171Y233789D01*
X-21210Y233748D01*
X-21255Y233713D01*
X-21307Y233645D01*
X-21365Y233582D01*
X-21391Y233531D01*
X-21425Y233486D01*
X-21456Y233405D01*
X-21495Y233329D01*
X-21503Y233280D01*
X-21526Y233220D01*
X-21537Y233075D01*
X-21550Y232998D01*
X-21550Y227168D01*
X-22443Y226275D01*
X-29845Y226275D01*
X-29903Y226267D01*
X-29961Y226269D01*
X-30043Y226247D01*
X-30127Y226235D01*
X-30180Y226212D01*
X-30236Y226197D01*
X-30309Y226154D01*
X-30386Y226119D01*
X-30431Y226081D01*
X-30481Y226052D01*
X-30539Y225990D01*
X-30603Y225936D01*
X-30635Y225887D01*
X-30675Y225844D01*
X-30714Y225769D01*
X-30761Y225699D01*
X-30778Y225643D01*
X-30805Y225591D01*
X-30816Y225523D01*
X-30846Y225428D01*
X-30849Y225328D01*
X-30860Y225260D01*
X-30860Y223741D01*
X-39591Y215010D01*
X-68359Y215010D01*
X-85027Y231679D01*
X-85027Y259395D01*
X-85027Y259396D01*
X-85027Y259398D01*
X-85047Y259537D01*
X-85067Y259676D01*
X-85068Y259678D01*
X-85068Y259679D01*
X-85126Y259807D01*
X-85183Y259936D01*
X-85184Y259937D01*
X-85185Y259938D01*
X-85276Y260045D01*
X-85367Y260153D01*
X-85368Y260153D01*
X-85369Y260155D01*
X-85382Y260163D01*
X-85604Y260310D01*
X-85633Y260319D01*
X-85654Y260333D01*
X-86143Y260535D01*
X-88715Y263107D01*
X-90107Y266469D01*
X-90107Y270106D01*
X-88715Y273468D01*
X-86143Y276040D01*
X-84185Y276851D01*
X-84176Y276856D01*
X-84166Y276859D01*
X-84054Y276928D01*
X-83940Y276995D01*
X-83933Y277003D01*
X-83924Y277008D01*
X-83836Y277106D01*
X-83762Y277184D01*
X-83669Y277181D01*
X-83554Y277172D01*
X-83530Y277178D01*
X-83500Y277177D01*
X-83243Y277244D01*
X-83227Y277248D01*
X-82781Y277432D01*
X-81584Y277432D01*
X-81526Y277440D01*
X-81468Y277439D01*
X-81386Y277460D01*
X-81303Y277472D01*
X-81249Y277496D01*
X-81226Y277502D01*
X-81210Y277494D01*
X-81201Y277492D01*
X-81193Y277488D01*
X-81139Y277479D01*
X-80932Y277435D01*
X-80897Y277438D01*
X-80862Y277432D01*
X-79144Y277432D01*
X-75782Y276040D01*
X-73210Y273468D01*
X-71818Y270106D01*
X-71818Y266469D01*
X-73210Y263107D01*
X-75782Y260535D01*
X-76271Y260333D01*
X-76272Y260332D01*
X-76274Y260331D01*
X-76391Y260262D01*
X-76516Y260188D01*
X-76517Y260187D01*
X-76518Y260186D01*
X-76614Y260085D01*
X-76711Y259981D01*
X-76712Y259980D01*
X-76713Y259979D01*
X-76777Y259853D01*
X-76841Y259729D01*
X-76842Y259727D01*
X-76842Y259726D01*
X-76845Y259711D01*
X-76896Y259450D01*
X-76894Y259419D01*
X-76898Y259395D01*
X-76898Y235467D01*
X-76886Y235380D01*
X-76883Y235293D01*
X-76866Y235240D01*
X-76858Y235185D01*
X-76822Y235105D01*
X-76795Y235022D01*
X-76767Y234983D01*
X-76742Y234926D01*
X-76646Y234813D01*
X-76600Y234749D01*
X-65289Y223437D01*
X-65219Y223385D01*
X-65155Y223325D01*
X-65106Y223299D01*
X-65061Y223266D01*
X-64980Y223235D01*
X-64902Y223195D01*
X-64854Y223187D01*
X-64796Y223165D01*
X-64648Y223153D01*
X-64571Y223140D01*
X-43379Y223140D01*
X-43293Y223152D01*
X-43205Y223155D01*
X-43153Y223172D01*
X-43098Y223180D01*
X-43018Y223215D01*
X-42935Y223242D01*
X-42895Y223270D01*
X-42838Y223296D01*
X-42725Y223392D01*
X-42661Y223437D01*
X-41494Y224605D01*
X-41476Y224628D01*
X-41454Y224647D01*
X-41391Y224741D01*
X-41323Y224832D01*
X-41312Y224859D01*
X-41296Y224884D01*
X-41262Y224992D01*
X-41222Y225097D01*
X-41219Y225127D01*
X-41210Y225155D01*
X-41207Y225268D01*
X-41198Y225381D01*
X-41204Y225409D01*
X-41203Y225439D01*
X-41232Y225548D01*
X-41254Y225660D01*
X-41268Y225686D01*
X-41275Y225714D01*
X-41333Y225811D01*
X-41385Y225912D01*
X-41405Y225933D01*
X-41420Y225958D01*
X-41503Y226036D01*
X-41581Y226118D01*
X-41606Y226133D01*
X-41627Y226153D01*
X-41728Y226204D01*
X-41826Y226262D01*
X-41854Y226269D01*
X-41881Y226282D01*
X-41958Y226295D01*
X-42102Y226332D01*
X-42164Y226330D01*
X-42212Y226338D01*
X-44757Y226338D01*
X-45650Y227231D01*
X-45650Y239494D01*
X-44757Y240387D01*
X-33493Y240387D01*
X-32728Y239622D01*
X-32659Y239570D01*
X-32595Y239510D01*
X-32545Y239484D01*
X-32501Y239451D01*
X-32419Y239420D01*
X-32341Y239380D01*
X-32294Y239372D01*
X-32235Y239350D01*
X-32088Y239338D01*
X-32010Y239325D01*
X-22443Y239325D01*
X-21508Y238389D01*
X-21484Y238372D01*
X-21465Y238349D01*
X-21371Y238286D01*
X-21281Y238218D01*
X-21253Y238208D01*
X-21229Y238192D01*
X-21121Y238157D01*
X-21015Y238117D01*
X-20986Y238115D01*
X-20958Y238106D01*
X-20844Y238103D01*
X-20732Y238093D01*
X-20703Y238099D01*
X-20674Y238098D01*
X-20564Y238127D01*
X-20453Y238149D01*
X-20427Y238163D01*
X-20399Y238170D01*
X-20301Y238228D01*
X-20201Y238280D01*
X-20179Y238301D01*
X-20154Y238316D01*
X-20077Y238398D01*
X-19995Y238476D01*
X-19980Y238501D01*
X-19960Y238523D01*
X-19908Y238624D01*
X-19851Y238721D01*
X-19844Y238750D01*
X-19830Y238776D01*
X-19817Y238853D01*
X-19781Y238997D01*
X-19783Y239059D01*
X-19775Y239107D01*
X-19775Y242227D01*
X-19753Y242264D01*
X-19732Y242346D01*
X-19702Y242425D01*
X-19697Y242483D01*
X-19683Y242540D01*
X-19686Y242624D01*
X-19678Y242708D01*
X-19690Y242766D01*
X-19692Y242824D01*
X-19718Y242904D01*
X-19734Y242987D01*
X-19761Y243039D01*
X-19775Y243080D01*
X-19775Y243493D01*
X-19779Y243522D01*
X-19776Y243551D01*
X-19799Y243662D01*
X-19815Y243774D01*
X-19827Y243801D01*
X-19832Y243830D01*
X-19885Y243931D01*
X-19931Y244034D01*
X-19950Y244056D01*
X-19963Y244082D01*
X-20041Y244164D01*
X-20114Y244251D01*
X-20139Y244267D01*
X-20159Y244288D01*
X-20257Y244346D01*
X-20351Y244408D01*
X-20379Y244417D01*
X-20404Y244432D01*
X-20514Y244460D01*
X-20622Y244494D01*
X-20652Y244495D01*
X-20680Y244502D01*
X-20793Y244499D01*
X-20906Y244502D01*
X-20935Y244494D01*
X-20964Y244493D01*
X-21072Y244458D01*
X-21181Y244430D01*
X-21207Y244415D01*
X-21235Y244406D01*
X-21299Y244360D01*
X-21426Y244284D01*
X-21469Y244239D01*
X-21508Y244211D01*
X-22443Y243275D01*
X-32010Y243275D01*
X-32097Y243263D01*
X-32184Y243260D01*
X-32237Y243243D01*
X-32292Y243235D01*
X-32372Y243200D01*
X-32455Y243173D01*
X-32494Y243145D01*
X-32551Y243119D01*
X-32664Y243023D01*
X-32728Y242978D01*
X-32993Y242713D01*
X-45257Y242713D01*
X-46182Y243638D01*
X-46190Y243693D01*
X-46194Y243702D01*
X-46195Y243711D01*
X-46252Y243832D01*
X-46306Y243952D01*
X-46312Y243960D01*
X-46316Y243969D01*
X-46404Y244068D01*
X-46489Y244169D01*
X-46498Y244175D01*
X-46504Y244182D01*
X-46616Y244253D01*
X-46726Y244327D01*
X-46735Y244330D01*
X-46744Y244335D01*
X-46871Y244373D01*
X-46997Y244413D01*
X-47007Y244413D01*
X-47016Y244416D01*
X-47149Y244416D01*
X-47281Y244420D01*
X-47291Y244417D01*
X-47301Y244417D01*
X-47429Y244381D01*
X-47556Y244348D01*
X-47565Y244343D01*
X-47574Y244340D01*
X-47687Y244270D01*
X-47801Y244203D01*
X-47808Y244196D01*
X-47816Y244190D01*
X-47904Y244092D01*
X-47995Y243995D01*
X-48000Y243987D01*
X-48006Y243979D01*
X-48030Y243928D01*
X-48125Y243742D01*
X-48131Y243707D01*
X-48146Y243674D01*
X-48257Y243257D01*
X-48592Y242677D01*
X-49065Y242204D01*
X-49066Y242204D01*
X-49104Y242174D01*
X-49148Y242151D01*
X-49216Y242087D01*
X-49290Y242029D01*
X-49318Y241989D01*
X-49354Y241956D01*
X-49401Y241874D01*
X-49456Y241798D01*
X-49473Y241752D01*
X-49497Y241710D01*
X-49521Y241619D01*
X-49552Y241531D01*
X-49555Y241482D01*
X-49568Y241435D01*
X-49565Y241341D01*
X-49571Y241247D01*
X-49560Y241199D01*
X-49558Y241151D01*
X-49530Y241061D01*
X-49509Y240970D01*
X-49486Y240927D01*
X-49471Y240880D01*
X-49428Y240820D01*
X-49374Y240720D01*
X-49313Y240658D01*
X-49276Y240607D01*
X-49092Y240423D01*
X-48757Y239843D01*
X-48584Y239197D01*
X-48584Y235394D01*
X-54094Y235394D01*
X-54094Y247206D01*
X-47165Y247206D01*
X-47107Y247214D01*
X-47049Y247213D01*
X-46967Y247234D01*
X-46883Y247246D01*
X-46830Y247270D01*
X-46774Y247285D01*
X-46701Y247328D01*
X-46624Y247362D01*
X-46579Y247400D01*
X-46529Y247430D01*
X-46471Y247492D01*
X-46407Y247546D01*
X-46375Y247595D01*
X-46335Y247637D01*
X-46296Y247712D01*
X-46249Y247783D01*
X-46232Y247838D01*
X-46205Y247890D01*
X-46194Y247959D01*
X-46164Y248054D01*
X-46161Y248153D01*
X-46150Y248222D01*
X-46150Y250253D01*
X-46158Y250311D01*
X-46156Y250370D01*
X-46178Y250451D01*
X-46190Y250535D01*
X-46213Y250588D01*
X-46228Y250645D01*
X-46271Y250717D01*
X-46306Y250794D01*
X-46344Y250839D01*
X-46373Y250889D01*
X-46435Y250947D01*
X-46489Y251011D01*
X-46538Y251044D01*
X-46581Y251084D01*
X-46656Y251122D01*
X-46726Y251169D01*
X-46782Y251187D01*
X-46834Y251213D01*
X-46902Y251225D01*
X-46997Y251255D01*
X-47097Y251257D01*
X-47165Y251269D01*
X-54094Y251269D01*
X-54094Y256778D01*
X-50291Y256778D01*
X-49644Y256605D01*
X-49065Y256271D01*
X-48592Y255798D01*
X-48257Y255218D01*
X-48146Y254801D01*
X-48142Y254792D01*
X-48140Y254782D01*
X-48086Y254661D01*
X-48034Y254539D01*
X-48028Y254532D01*
X-48024Y254523D01*
X-47938Y254421D01*
X-47855Y254319D01*
X-47847Y254313D01*
X-47840Y254306D01*
X-47730Y254232D01*
X-47621Y254157D01*
X-47612Y254154D01*
X-47604Y254148D01*
X-47478Y254108D01*
X-47352Y254066D01*
X-47342Y254065D01*
X-47333Y254062D01*
X-47200Y254059D01*
X-47068Y254053D01*
X-47059Y254055D01*
X-47049Y254055D01*
X-46920Y254089D01*
X-46792Y254120D01*
X-46783Y254124D01*
X-46774Y254127D01*
X-46660Y254194D01*
X-46544Y254260D01*
X-46538Y254267D01*
X-46529Y254272D01*
X-46439Y254369D01*
X-46346Y254464D01*
X-46341Y254472D01*
X-46335Y254480D01*
X-46274Y254597D01*
X-46212Y254714D01*
X-46210Y254724D01*
X-46205Y254733D01*
X-46196Y254789D01*
X-46186Y254832D01*
X-45257Y255762D01*
X-35690Y255762D01*
X-35603Y255774D01*
X-35516Y255777D01*
X-35463Y255794D01*
X-35408Y255802D01*
X-35328Y255838D01*
X-35245Y255865D01*
X-35206Y255893D01*
X-35149Y255918D01*
X-35035Y256014D01*
X-34972Y256060D01*
X-34707Y256325D01*
X-22439Y256325D01*
X-22434Y256320D01*
X-22346Y256264D01*
X-22264Y256202D01*
X-22227Y256188D01*
X-22195Y256167D01*
X-22095Y256137D01*
X-21998Y256100D01*
X-21959Y256097D01*
X-21922Y256086D01*
X-21818Y256085D01*
X-21715Y256077D01*
X-21677Y256084D01*
X-21638Y256084D01*
X-21538Y256112D01*
X-21436Y256133D01*
X-21402Y256151D01*
X-21364Y256161D01*
X-21276Y256216D01*
X-21184Y256264D01*
X-21156Y256291D01*
X-21122Y256311D01*
X-21053Y256388D01*
X-20978Y256459D01*
X-20958Y256493D01*
X-20932Y256522D01*
X-20900Y256593D01*
X-20834Y256705D01*
X-20816Y256777D01*
X-20793Y256828D01*
X-20618Y257481D01*
X-20283Y258060D01*
X-19810Y258533D01*
X-19231Y258868D01*
X-18584Y259041D01*
X-15515Y259041D01*
X-15515Y255150D01*
X-15507Y255092D01*
X-15509Y255034D01*
X-15487Y254952D01*
X-15476Y254869D01*
X-15452Y254815D01*
X-15437Y254759D01*
X-15394Y254686D01*
X-15359Y254609D01*
X-15322Y254565D01*
X-15292Y254515D01*
X-15230Y254457D01*
X-15176Y254392D01*
X-15127Y254360D01*
X-15084Y254320D01*
X-15009Y254282D01*
X-14939Y254235D01*
X-14883Y254217D01*
X-14831Y254191D01*
X-14763Y254179D01*
X-14668Y254149D01*
X-14568Y254146D01*
X-14500Y254135D01*
X-14442Y254143D01*
X-14384Y254142D01*
X-14383Y254142D01*
X-14302Y254163D01*
X-14218Y254175D01*
X-14165Y254199D01*
X-14108Y254214D01*
X-14036Y254257D01*
X-13959Y254291D01*
X-13914Y254329D01*
X-13864Y254359D01*
X-13806Y254420D01*
X-13742Y254475D01*
X-13710Y254523D01*
X-13669Y254566D01*
X-13631Y254641D01*
X-13584Y254711D01*
X-13567Y254767D01*
X-13540Y254819D01*
X-13529Y254887D01*
X-13499Y254982D01*
X-13496Y255082D01*
X-13485Y255150D01*
X-13485Y259041D01*
X-10416Y259041D01*
X-9769Y258868D01*
X-9190Y258533D01*
X-8717Y258060D01*
X-8652Y257948D01*
X-8604Y257887D01*
X-8565Y257820D01*
X-8517Y257776D01*
X-8477Y257724D01*
X-8414Y257679D01*
X-8357Y257626D01*
X-8299Y257596D01*
X-8247Y257558D01*
X-8173Y257532D01*
X-8104Y257496D01*
X-8049Y257487D01*
X-7979Y257462D01*
X-7850Y257454D01*
X-7773Y257441D01*
X-2031Y257441D01*
X-2031Y248666D01*
X-2023Y248608D01*
X-2024Y248550D01*
X-2003Y248468D01*
X-1991Y248385D01*
X-1967Y248331D01*
X-1953Y248275D01*
X-1910Y248202D01*
X-1875Y248125D01*
X-1837Y248081D01*
X-1807Y248030D01*
X-1746Y247973D01*
X-1691Y247908D01*
X-1643Y247876D01*
X-1600Y247836D01*
X-1525Y247797D01*
X-1455Y247751D01*
X-1399Y247733D01*
X-1347Y247706D01*
X-1279Y247695D01*
X-1184Y247665D01*
X-1084Y247662D01*
X-1016Y247651D01*
X1016Y247651D01*
X1074Y247659D01*
X1132Y247658D01*
X1214Y247679D01*
X1297Y247691D01*
X1351Y247715D01*
X1407Y247729D01*
X1480Y247772D01*
X1557Y247807D01*
X1601Y247845D01*
X1652Y247875D01*
X1709Y247936D01*
X1774Y247991D01*
X1806Y248039D01*
X1846Y248082D01*
X1885Y248157D01*
X1931Y248227D01*
X1949Y248283D01*
X1976Y248335D01*
X1987Y248403D01*
X2017Y248498D01*
X2020Y248598D01*
X2031Y248666D01*
X2031Y257441D01*
X8585Y257441D01*
X8768Y257392D01*
X8845Y257382D01*
X8920Y257363D01*
X8985Y257365D01*
X9050Y257357D01*
X9127Y257370D01*
X9204Y257372D01*
X9266Y257392D01*
X9330Y257402D01*
X9401Y257436D01*
X9475Y257460D01*
X9520Y257492D01*
X9588Y257524D01*
X9685Y257609D01*
X9748Y257654D01*
X10118Y258025D01*
X19003Y258025D01*
X19051Y258000D01*
X19099Y257992D01*
X19157Y257970D01*
X19305Y257958D01*
X19382Y257945D01*
X20739Y257945D01*
X25336Y253348D01*
X25406Y253296D01*
X25469Y253236D01*
X25519Y253210D01*
X25563Y253177D01*
X25645Y253146D01*
X25723Y253106D01*
X25770Y253098D01*
X25829Y253076D01*
X25976Y253064D01*
X26054Y253051D01*
X28043Y253051D01*
X29994Y252243D01*
X31486Y250750D01*
X32294Y248800D01*
X32294Y246688D01*
X31747Y245367D01*
X31718Y245255D01*
X31683Y245146D01*
X31683Y245118D01*
X31676Y245091D01*
X31679Y244977D01*
X31676Y244862D01*
X31683Y244835D01*
X31684Y244807D01*
X31719Y244698D01*
X31748Y244587D01*
X31762Y244563D01*
X31770Y244536D01*
X31834Y244441D01*
X31893Y244342D01*
X31913Y244323D01*
X31929Y244300D01*
X32017Y244226D01*
X32100Y244148D01*
X32125Y244135D01*
X32146Y244117D01*
X32251Y244070D01*
X32354Y244018D01*
X32378Y244014D01*
X32406Y244002D01*
X32670Y243965D01*
X32685Y243963D01*
X59832Y243963D01*
X59919Y243975D01*
X60006Y243978D01*
X60059Y243995D01*
X60114Y244003D01*
X60194Y244038D01*
X60277Y244065D01*
X60316Y244093D01*
X60373Y244119D01*
X60486Y244215D01*
X60550Y244260D01*
X79895Y263605D01*
X79896Y263606D01*
X79897Y263607D01*
X79980Y263718D01*
X80066Y263832D01*
X80067Y263834D01*
X80068Y263835D01*
X80117Y263967D01*
X80167Y264098D01*
X80167Y264100D01*
X80168Y264101D01*
X80180Y264246D01*
X80191Y264381D01*
X80191Y264383D01*
X80191Y264384D01*
X80187Y264400D01*
X80135Y264660D01*
X80121Y264687D01*
X80115Y264712D01*
X79387Y266470D01*
X79387Y270108D01*
X80779Y273469D01*
X83351Y276042D01*
X85222Y276816D01*
X85238Y276826D01*
X85256Y276831D01*
X85360Y276898D01*
X85466Y276961D01*
X85479Y276975D01*
X85495Y276985D01*
X85577Y277078D01*
X85662Y277168D01*
X85670Y277184D01*
X85683Y277199D01*
X85735Y277310D01*
X85792Y277420D01*
X85796Y277439D01*
X85804Y277456D01*
X85823Y277578D01*
X85847Y277699D01*
X85845Y277718D01*
X85848Y277737D01*
X85833Y277859D01*
X85822Y277982D01*
X85816Y278000D01*
X85813Y278019D01*
X85765Y278132D01*
X85720Y278248D01*
X85709Y278263D01*
X85701Y278280D01*
X85623Y278376D01*
X85549Y278474D01*
X85534Y278486D01*
X85522Y278500D01*
X85420Y278571D01*
X85321Y278645D01*
X85303Y278651D01*
X85288Y278662D01*
X85218Y278684D01*
X85055Y278745D01*
X85005Y278749D01*
X84967Y278761D01*
X84631Y278805D01*
X84631Y281405D01*
X87335Y281292D01*
X87369Y281298D01*
X87416Y281295D01*
X90454Y281661D01*
X90486Y281671D01*
X90532Y281677D01*
X93472Y282524D01*
X93502Y282540D01*
X93548Y282553D01*
X96314Y283861D01*
X96336Y283878D01*
X96363Y283888D01*
X96415Y283937D01*
X96473Y283980D01*
X96487Y284005D01*
X96508Y284025D01*
X96537Y284090D01*
X96573Y284152D01*
X96576Y284181D01*
X96588Y284207D01*
X96589Y284279D01*
X96598Y284349D01*
X96590Y284377D01*
X96591Y284406D01*
X96555Y284500D01*
X96544Y284541D01*
X96537Y284549D01*
X96533Y284562D01*
X87033Y301062D01*
X86981Y301120D01*
X86935Y301183D01*
X86916Y301194D01*
X86901Y301211D01*
X86831Y301244D01*
X86764Y301284D01*
X86740Y301288D01*
X86722Y301297D01*
X86677Y301299D01*
X86600Y301312D01*
X67600Y301312D01*
X67572Y301306D01*
X67544Y301309D01*
X67476Y301286D01*
X67405Y301272D01*
X67382Y301256D01*
X67355Y301247D01*
X67300Y301200D01*
X67241Y301160D01*
X67226Y301136D01*
X67205Y301117D01*
X67173Y301053D01*
X67134Y300992D01*
X67129Y300964D01*
X67117Y300939D01*
X67108Y300837D01*
X67101Y300796D01*
X67103Y300786D01*
X67102Y300773D01*
X67345Y297723D01*
X67354Y297690D01*
X67358Y297643D01*
X67774Y295944D01*
X65081Y295944D01*
X64931Y296504D01*
X64746Y297928D01*
X64710Y298058D01*
X64676Y298188D01*
X64672Y298194D01*
X64670Y298202D01*
X64599Y298317D01*
X64530Y298432D01*
X64525Y298438D01*
X64521Y298444D01*
X64421Y298535D01*
X64323Y298627D01*
X64316Y298630D01*
X64311Y298635D01*
X64190Y298695D01*
X64070Y298756D01*
X64063Y298757D01*
X64056Y298761D01*
X63776Y298811D01*
X63756Y298809D01*
X63739Y298812D01*
X-63739Y298812D01*
X-63872Y298793D01*
X-64006Y298776D01*
X-64013Y298773D01*
X-64020Y298772D01*
X-64143Y298717D01*
X-64267Y298664D01*
X-64273Y298659D01*
X-64280Y298656D01*
X-64382Y298569D01*
X-64487Y298483D01*
X-64491Y298477D01*
X-64497Y298472D01*
X-64571Y298360D01*
X-64648Y298249D01*
X-64650Y298242D01*
X-64654Y298235D01*
X-64740Y297964D01*
X-64741Y297944D01*
X-64746Y297928D01*
X-64931Y296504D01*
X-65081Y295944D01*
X-67774Y295944D01*
X-67358Y297643D01*
X-67356Y297677D01*
X-67345Y297723D01*
X-67102Y300773D01*
X-67106Y300801D01*
X-67101Y300829D01*
X-67118Y300899D01*
X-67126Y300970D01*
X-67141Y300995D01*
X-67147Y301022D01*
X-67190Y301080D01*
X-67226Y301143D01*
X-67248Y301160D01*
X-67265Y301183D01*
X-67327Y301219D01*
X-67384Y301263D01*
X-67412Y301270D01*
X-67436Y301284D01*
X-67536Y301301D01*
X-67577Y301311D01*
X-67587Y301310D01*
X-67600Y301312D01*
X-86600Y301312D01*
X-86676Y301296D01*
X-86754Y301288D01*
X-86773Y301277D01*
X-86795Y301272D01*
X-86859Y301228D01*
X-86927Y301190D01*
X-86943Y301171D01*
X-86959Y301160D01*
X-86983Y301122D01*
X-87033Y301062D01*
X-96533Y284562D01*
X-96542Y284534D01*
X-96558Y284511D01*
X-96573Y284441D01*
X-96596Y284373D01*
X-96593Y284345D01*
X-96599Y284316D01*
X-96586Y284246D01*
X-96580Y284175D01*
X-96567Y284149D01*
X-96561Y284121D01*
X-96521Y284062D01*
X-96488Y283998D01*
X-96466Y283980D01*
X-96450Y283956D01*
X-96367Y283899D01*
X-96335Y283872D01*
X-96324Y283869D01*
X-96314Y283861D01*
X-93548Y282553D01*
X-93515Y282545D01*
X-93472Y282524D01*
X-90532Y281677D01*
X-90498Y281674D01*
X-90454Y281661D01*
X-87416Y281295D01*
X-87382Y281298D01*
X-87335Y281292D01*
X-84631Y281405D01*
X-84631Y278802D01*
X-84635Y278802D01*
X-84671Y278794D01*
X-84707Y278795D01*
X-85141Y278738D01*
X-88032Y278734D01*
X-90899Y279108D01*
X-93692Y279853D01*
X-94405Y280147D01*
X-95049Y280413D01*
X-95179Y280446D01*
X-95307Y280482D01*
X-95316Y280481D01*
X-95325Y280484D01*
X-95458Y280480D01*
X-95591Y280478D01*
X-95600Y280475D01*
X-95609Y280475D01*
X-95736Y280434D01*
X-95864Y280396D01*
X-95871Y280391D01*
X-95879Y280388D01*
X-95990Y280314D01*
X-96102Y280241D01*
X-96107Y280235D01*
X-96115Y280230D01*
X-96298Y280012D01*
X-96306Y279994D01*
X-96316Y279982D01*
X-113249Y250653D01*
X-113257Y250633D01*
X-113269Y250617D01*
X-113309Y250502D01*
X-113355Y250389D01*
X-113357Y250368D01*
X-113364Y250349D01*
X-113372Y250227D01*
X-113384Y250106D01*
X-113380Y250086D01*
X-113382Y250065D01*
X-113355Y249946D01*
X-113334Y249826D01*
X-113324Y249808D01*
X-113320Y249788D01*
X-113262Y249681D01*
X-113207Y249572D01*
X-113193Y249556D01*
X-113184Y249538D01*
X-113130Y249487D01*
X-113016Y249362D01*
X-112971Y249334D01*
X-112941Y249306D01*
X-112750Y249176D01*
X-112739Y249170D01*
X-112731Y249163D01*
X-112612Y249108D01*
X-112495Y249050D01*
X-112483Y249048D01*
X-112473Y249043D01*
X-112412Y249035D01*
X-112330Y249021D01*
X-111854Y248579D01*
X-111781Y248528D01*
X-111735Y248484D01*
X-111205Y248123D01*
X-111202Y248112D01*
X-111189Y248090D01*
X-111169Y248030D01*
X-111162Y248020D01*
X-111158Y248009D01*
X-111120Y247961D01*
X-111065Y247881D01*
X-111057Y247868D01*
X-111053Y247864D01*
X-111006Y247797D01*
X-110974Y247770D01*
X-110953Y247744D01*
X-109459Y246359D01*
X-109450Y246352D01*
X-109442Y246343D01*
X-109333Y246271D01*
X-109226Y246196D01*
X-109215Y246193D01*
X-109205Y246186D01*
X-109146Y246169D01*
X-109067Y246143D01*
X-108662Y245635D01*
X-108598Y245574D01*
X-108559Y245523D01*
X-108083Y245083D01*
X-108067Y244990D01*
X-108061Y244980D01*
X-108059Y244968D01*
X-108029Y244914D01*
X-107941Y244735D01*
X-107912Y244704D01*
X-107896Y244675D01*
X-106625Y243083D01*
X-106617Y243075D01*
X-106611Y243065D01*
X-106513Y242977D01*
X-106419Y242887D01*
X-106408Y242882D01*
X-106400Y242874D01*
X-106344Y242849D01*
X-106270Y242811D01*
X-105945Y242248D01*
X-105890Y242178D01*
X-105859Y242122D01*
X-105455Y241616D01*
X-105452Y241522D01*
X-105449Y241511D01*
X-105448Y241499D01*
X-105427Y241441D01*
X-105366Y241251D01*
X-105342Y241216D01*
X-105330Y241185D01*
X-104311Y239421D01*
X-104304Y239412D01*
X-104300Y239401D01*
X-104216Y239300D01*
X-104136Y239197D01*
X-104127Y239190D01*
X-104119Y239181D01*
X-104068Y239148D01*
X-104001Y239099D01*
X-103763Y238494D01*
X-103719Y238417D01*
X-103697Y238357D01*
X-103373Y237796D01*
X-103384Y237702D01*
X-103382Y237691D01*
X-103383Y237679D01*
X-103371Y237619D01*
X-103339Y237422D01*
X-103321Y237384D01*
X-103314Y237351D01*
X-102569Y235455D01*
X-102563Y235445D01*
X-102560Y235434D01*
X-102494Y235322D01*
X-102429Y235208D01*
X-102421Y235199D01*
X-102415Y235189D01*
X-102369Y235149D01*
X-102310Y235090D01*
X-102165Y234457D01*
X-102133Y234374D01*
X-102120Y234312D01*
X-101883Y233708D01*
X-101908Y233618D01*
X-101908Y233606D01*
X-101911Y233595D01*
X-101907Y233533D01*
X-101905Y233333D01*
X-101893Y233293D01*
X-101891Y233260D01*
X-101437Y231274D01*
X-101433Y231263D01*
X-101432Y231251D01*
X-101382Y231130D01*
X-101336Y231008D01*
X-101329Y230999D01*
X-101324Y230988D01*
X-101285Y230941D01*
X-101235Y230875D01*
X-101186Y230226D01*
X-101167Y230140D01*
X-101163Y230076D01*
X-101019Y229444D01*
X-101057Y229359D01*
X-101059Y229347D01*
X-101063Y229336D01*
X-101069Y229275D01*
X-101097Y229077D01*
X-101091Y229035D01*
X-101094Y229002D01*
X-100941Y226971D01*
X-100939Y226959D01*
X-100939Y226948D01*
X-100908Y226819D01*
X-100880Y226693D01*
X-100875Y226683D01*
X-100872Y226671D01*
X-100840Y226619D01*
X-100801Y226546D01*
X-100849Y225898D01*
X-100843Y225809D01*
X-100849Y225746D01*
X-100800Y225099D01*
X-100851Y225020D01*
X-100854Y225009D01*
X-100860Y224999D01*
X-100875Y224939D01*
X-100932Y224748D01*
X-100932Y224706D01*
X-100940Y224673D01*
X-101092Y222642D01*
X-101091Y222630D01*
X-101093Y222618D01*
X-101082Y222488D01*
X-101073Y222358D01*
X-101069Y222347D01*
X-101068Y222335D01*
X-101045Y222279D01*
X-101016Y222201D01*
X-101161Y221567D01*
X-101168Y221479D01*
X-101183Y221417D01*
X-101232Y220770D01*
X-101294Y220699D01*
X-101298Y220689D01*
X-101306Y220680D01*
X-101329Y220623D01*
X-101414Y220442D01*
X-101421Y220401D01*
X-101434Y220369D01*
X-101886Y218383D01*
X-101887Y218372D01*
X-101891Y218361D01*
X-101899Y218230D01*
X-101910Y218100D01*
X-101908Y218089D01*
X-101908Y218077D01*
X-101893Y218017D01*
X-101877Y217936D01*
X-102115Y217331D01*
X-102135Y217245D01*
X-102159Y217186D01*
X-102303Y216554D01*
X-102375Y216493D01*
X-102382Y216483D01*
X-102390Y216476D01*
X-102422Y216423D01*
X-102533Y216256D01*
X-102546Y216216D01*
X-102563Y216188D01*
X-102772Y215655D01*
X-102796Y215553D01*
X-102828Y215452D01*
X-102829Y215415D01*
X-102837Y215378D01*
X-102832Y215273D01*
X-102835Y215168D01*
X-102826Y215132D01*
X-102824Y215094D01*
X-102790Y214995D01*
X-102763Y214893D01*
X-102744Y214861D01*
X-102732Y214825D01*
X-102672Y214739D01*
X-102618Y214649D01*
X-102591Y214623D01*
X-102569Y214592D01*
X-102487Y214526D01*
X-102411Y214454D01*
X-102377Y214437D01*
X-102348Y214414D01*
X-102251Y214373D01*
X-102158Y214325D01*
X-102125Y214319D01*
X-102086Y214303D01*
X-101886Y214279D01*
X-101826Y214269D01*
X-98527Y214269D01*
X-95712Y211453D01*
X-95712Y208669D01*
X-95699Y208583D01*
X-95696Y208495D01*
X-95679Y208443D01*
X-95672Y208388D01*
X-95636Y208308D01*
X-95609Y208225D01*
X-95581Y208186D01*
X-95555Y208128D01*
X-95460Y208015D01*
X-95414Y207952D01*
X-44772Y157309D01*
X-44702Y157257D01*
X-44638Y157197D01*
X-44589Y157171D01*
X-44545Y157138D01*
X-44463Y157107D01*
X-44385Y157067D01*
X-44337Y157059D01*
X-44279Y157037D01*
X-44131Y157025D01*
X-44054Y157012D01*
X-22977Y157012D01*
X-5144Y139178D01*
X-5074Y139126D01*
X-5010Y139066D01*
X-4961Y139041D01*
X-4916Y139007D01*
X-4835Y138976D01*
X-4757Y138936D01*
X-4709Y138929D01*
X-4651Y138906D01*
X-4503Y138894D01*
X-4426Y138881D01*
X-561Y138881D01*
X-558Y138879D01*
X-491Y138829D01*
X-436Y138808D01*
X-386Y138778D01*
X-304Y138757D01*
X-225Y138727D01*
X-167Y138722D01*
X-110Y138708D01*
X-26Y138711D01*
X58Y138704D01*
X116Y138715D01*
X174Y138717D01*
X254Y138743D01*
X337Y138760D01*
X389Y138787D01*
X445Y138805D01*
X501Y138845D01*
X571Y138881D01*
X4441Y138881D01*
X4443Y138880D01*
X4511Y138829D01*
X4565Y138808D01*
X4616Y138779D01*
X4698Y138758D01*
X4776Y138728D01*
X4835Y138723D01*
X4891Y138709D01*
X4976Y138711D01*
X5060Y138704D01*
X5117Y138716D01*
X5176Y138718D01*
X5256Y138744D01*
X5338Y138760D01*
X5390Y138787D01*
X5446Y138805D01*
X5502Y138845D01*
X5571Y138881D01*
X9442Y138881D01*
X9444Y138880D01*
X9512Y138829D01*
X9566Y138808D01*
X9617Y138779D01*
X9699Y138758D01*
X9777Y138728D01*
X9836Y138723D01*
X9892Y138709D01*
X9977Y138711D01*
X10061Y138704D01*
X10118Y138716D01*
X10177Y138718D01*
X10257Y138744D01*
X10339Y138760D01*
X10391Y138787D01*
X10447Y138805D01*
X10503Y138845D01*
X10572Y138881D01*
X14443Y138881D01*
X14445Y138880D01*
X14513Y138829D01*
X14567Y138808D01*
X14618Y138779D01*
X14700Y138758D01*
X14778Y138728D01*
X14837Y138723D01*
X14893Y138709D01*
X14978Y138711D01*
X15062Y138704D01*
X15119Y138716D01*
X15178Y138718D01*
X15258Y138744D01*
X15340Y138760D01*
X15392Y138787D01*
X15448Y138805D01*
X15504Y138845D01*
X15573Y138881D01*
X19444Y138881D01*
X19447Y138879D01*
X19514Y138829D01*
X19569Y138808D01*
X19619Y138778D01*
X19701Y138757D01*
X19780Y138727D01*
X19838Y138722D01*
X19895Y138708D01*
X19979Y138711D01*
X20063Y138704D01*
X20121Y138715D01*
X20179Y138717D01*
X20259Y138743D01*
X20342Y138760D01*
X20394Y138787D01*
X20450Y138805D01*
X20506Y138845D01*
X20576Y138881D01*
X24446Y138881D01*
X24448Y138880D01*
X24516Y138829D01*
X24570Y138808D01*
X24621Y138779D01*
X24703Y138758D01*
X24781Y138728D01*
X24840Y138723D01*
X24896Y138709D01*
X24981Y138711D01*
X25065Y138704D01*
X25122Y138716D01*
X25181Y138718D01*
X25261Y138744D01*
X25343Y138760D01*
X25395Y138787D01*
X25451Y138805D01*
X25507Y138845D01*
X25576Y138881D01*
X29409Y138881D01*
X30302Y137988D01*
X30302Y132123D01*
X30310Y132065D01*
X30308Y132007D01*
X30330Y131925D01*
X30342Y131842D01*
X30365Y131788D01*
X30380Y131732D01*
X30423Y131659D01*
X30458Y131582D01*
X30496Y131538D01*
X30525Y131487D01*
X30587Y131430D01*
X30641Y131365D01*
X30690Y131333D01*
X30733Y131293D01*
X30808Y131254D01*
X30878Y131208D01*
X30934Y131190D01*
X30986Y131163D01*
X31054Y131152D01*
X31149Y131122D01*
X31249Y131119D01*
X31317Y131108D01*
X37182Y131108D01*
X38075Y130215D01*
X38075Y126373D01*
X38073Y126371D01*
X38023Y126304D01*
X38002Y126249D01*
X37972Y126198D01*
X37952Y126117D01*
X37922Y126038D01*
X37917Y125980D01*
X37902Y125923D01*
X37905Y125839D01*
X37898Y125755D01*
X37910Y125697D01*
X37911Y125639D01*
X37937Y125559D01*
X37954Y125476D01*
X37981Y125424D01*
X37999Y125368D01*
X38039Y125312D01*
X38075Y125243D01*
X38075Y121372D01*
X38073Y121369D01*
X38022Y121302D01*
X38001Y121247D01*
X37972Y121197D01*
X37951Y121115D01*
X37921Y121036D01*
X37916Y120978D01*
X37902Y120921D01*
X37905Y120837D01*
X37897Y120753D01*
X37909Y120696D01*
X37911Y120637D01*
X37937Y120557D01*
X37953Y120474D01*
X37980Y120422D01*
X37998Y120367D01*
X38038Y120311D01*
X38075Y120240D01*
X38075Y117119D01*
X38083Y117061D01*
X38081Y117003D01*
X38103Y116921D01*
X38115Y116838D01*
X38138Y116784D01*
X38153Y116728D01*
X38196Y116655D01*
X38231Y116578D01*
X38269Y116534D01*
X38298Y116483D01*
X38360Y116426D01*
X38414Y116361D01*
X38463Y116329D01*
X38506Y116289D01*
X38581Y116250D01*
X38651Y116204D01*
X38707Y116186D01*
X38759Y116159D01*
X38827Y116148D01*
X38922Y116118D01*
X39022Y116115D01*
X39090Y116104D01*
X40610Y116104D01*
X40668Y116112D01*
X40726Y116111D01*
X40808Y116132D01*
X40892Y116144D01*
X40945Y116168D01*
X41001Y116182D01*
X41074Y116226D01*
X41151Y116260D01*
X41196Y116298D01*
X41246Y116328D01*
X41304Y116389D01*
X41368Y116444D01*
X41400Y116492D01*
X41440Y116535D01*
X41479Y116610D01*
X41526Y116680D01*
X41543Y116736D01*
X41570Y116788D01*
X41581Y116856D01*
X41611Y116951D01*
X41614Y117051D01*
X41625Y117119D01*
X41625Y129660D01*
X41617Y129718D01*
X41619Y129776D01*
X41597Y129858D01*
X41585Y129942D01*
X41562Y129995D01*
X41547Y130051D01*
X41504Y130124D01*
X41469Y130201D01*
X41431Y130246D01*
X41402Y130296D01*
X41340Y130354D01*
X41286Y130418D01*
X41237Y130450D01*
X41194Y130490D01*
X41119Y130529D01*
X41049Y130576D01*
X40993Y130593D01*
X40941Y130620D01*
X40873Y130631D01*
X40778Y130661D01*
X40678Y130664D01*
X40610Y130675D01*
X40518Y130675D01*
X39625Y131568D01*
X39625Y162119D01*
X40303Y162797D01*
X40355Y162866D01*
X40415Y162930D01*
X40441Y162980D01*
X40474Y163024D01*
X40505Y163106D01*
X40545Y163184D01*
X40553Y163231D01*
X40575Y163290D01*
X40587Y163437D01*
X40600Y163515D01*
X40600Y171757D01*
X41493Y172650D01*
X53757Y172650D01*
X54650Y171757D01*
X54650Y163565D01*
X54662Y163478D01*
X54665Y163391D01*
X54682Y163338D01*
X54690Y163283D01*
X54725Y163203D01*
X54752Y163120D01*
X54780Y163081D01*
X54806Y163024D01*
X54902Y162910D01*
X54947Y162847D01*
X55675Y162119D01*
X55675Y113431D01*
X54782Y112538D01*
X46498Y112538D01*
X46412Y112526D01*
X46324Y112523D01*
X46271Y112506D01*
X46217Y112498D01*
X46137Y112462D01*
X46054Y112435D01*
X46014Y112407D01*
X45957Y112382D01*
X45844Y112286D01*
X45780Y112240D01*
X45349Y111809D01*
X45332Y111786D01*
X45309Y111767D01*
X45246Y111673D01*
X45178Y111582D01*
X45168Y111555D01*
X45152Y111530D01*
X45117Y111422D01*
X45077Y111316D01*
X45075Y111287D01*
X45066Y111259D01*
X45063Y111146D01*
X45053Y111033D01*
X45059Y111004D01*
X45058Y110975D01*
X45087Y110866D01*
X45109Y110754D01*
X45123Y110728D01*
X45130Y110700D01*
X45188Y110603D01*
X45240Y110502D01*
X45261Y110481D01*
X45276Y110456D01*
X45358Y110378D01*
X45436Y110296D01*
X45461Y110281D01*
X45483Y110261D01*
X45584Y110210D01*
X45681Y110152D01*
X45710Y110145D01*
X45736Y110132D01*
X45813Y110119D01*
X45957Y110082D01*
X46019Y110084D01*
X46067Y110076D01*
X61253Y110076D01*
X61340Y110088D01*
X61427Y110091D01*
X61480Y110108D01*
X61535Y110116D01*
X61614Y110152D01*
X61698Y110179D01*
X61737Y110207D01*
X61794Y110232D01*
X61907Y110328D01*
X61971Y110374D01*
X62402Y110805D01*
X62420Y110828D01*
X62442Y110847D01*
X62505Y110941D01*
X62573Y111032D01*
X62584Y111059D01*
X62600Y111084D01*
X62634Y111192D01*
X62674Y111297D01*
X62677Y111327D01*
X62686Y111355D01*
X62689Y111468D01*
X62698Y111581D01*
X62692Y111610D01*
X62693Y111639D01*
X62664Y111748D01*
X62642Y111859D01*
X62629Y111886D01*
X62621Y111914D01*
X62563Y112011D01*
X62511Y112112D01*
X62491Y112133D01*
X62476Y112158D01*
X62393Y112236D01*
X62315Y112318D01*
X62290Y112333D01*
X62269Y112353D01*
X62168Y112404D01*
X62070Y112462D01*
X62042Y112469D01*
X62015Y112482D01*
X61938Y112495D01*
X61795Y112532D01*
X61732Y112530D01*
X61684Y112538D01*
X59518Y112538D01*
X58625Y113431D01*
X58625Y162119D01*
X59353Y162847D01*
X59405Y162916D01*
X59465Y162980D01*
X59491Y163030D01*
X59524Y163074D01*
X59555Y163156D01*
X59595Y163234D01*
X59603Y163281D01*
X59625Y163340D01*
X59637Y163487D01*
X59650Y163565D01*
X59650Y171757D01*
X60543Y172650D01*
X72807Y172650D01*
X73700Y171757D01*
X73700Y163515D01*
X73712Y163428D01*
X73715Y163341D01*
X73732Y163288D01*
X73740Y163233D01*
X73775Y163153D01*
X73802Y163070D01*
X73830Y163031D01*
X73856Y162974D01*
X73952Y162860D01*
X73997Y162797D01*
X74675Y162119D01*
X74675Y131568D01*
X73782Y130675D01*
X73690Y130675D01*
X73632Y130667D01*
X73574Y130669D01*
X73492Y130647D01*
X73408Y130635D01*
X73355Y130612D01*
X73299Y130597D01*
X73226Y130554D01*
X73149Y130519D01*
X73104Y130481D01*
X73054Y130452D01*
X72996Y130390D01*
X72932Y130336D01*
X72900Y130287D01*
X72860Y130244D01*
X72821Y130169D01*
X72774Y130099D01*
X72757Y130043D01*
X72730Y129991D01*
X72719Y129923D01*
X72689Y129828D01*
X72686Y129728D01*
X72675Y129660D01*
X72675Y113431D01*
X71782Y112538D01*
X70485Y112538D01*
X70427Y112530D01*
X70369Y112531D01*
X70287Y112510D01*
X70203Y112498D01*
X70150Y112474D01*
X70094Y112459D01*
X70021Y112416D01*
X69944Y112382D01*
X69899Y112344D01*
X69849Y112314D01*
X69791Y112252D01*
X69727Y112198D01*
X69695Y112149D01*
X69655Y112107D01*
X69616Y112032D01*
X69569Y111961D01*
X69552Y111906D01*
X69525Y111854D01*
X69514Y111786D01*
X69484Y111690D01*
X69481Y111591D01*
X69470Y111523D01*
X69470Y109967D01*
X64385Y104882D01*
X64332Y104812D01*
X64272Y104748D01*
X64247Y104699D01*
X64214Y104655D01*
X64183Y104573D01*
X64143Y104495D01*
X64135Y104448D01*
X64112Y104389D01*
X64100Y104242D01*
X64087Y104164D01*
X64087Y99856D01*
X63194Y98963D01*
X56051Y98963D01*
X55965Y98950D01*
X55877Y98948D01*
X55825Y98931D01*
X55770Y98923D01*
X55690Y98887D01*
X55607Y98860D01*
X55568Y98832D01*
X55511Y98807D01*
X55397Y98711D01*
X55334Y98665D01*
X53430Y96761D01*
X53412Y96738D01*
X53390Y96719D01*
X53327Y96625D01*
X53259Y96534D01*
X53248Y96507D01*
X53232Y96482D01*
X53198Y96374D01*
X53157Y96269D01*
X53155Y96239D01*
X53146Y96211D01*
X53143Y96098D01*
X53134Y95985D01*
X53140Y95957D01*
X53139Y95927D01*
X53167Y95818D01*
X53190Y95706D01*
X53203Y95680D01*
X53211Y95652D01*
X53269Y95555D01*
X53321Y95454D01*
X53341Y95433D01*
X53356Y95408D01*
X53438Y95330D01*
X53517Y95248D01*
X53542Y95233D01*
X53563Y95213D01*
X53664Y95162D01*
X53762Y95104D01*
X53790Y95097D01*
X53816Y95084D01*
X53894Y95071D01*
X54037Y95034D01*
X54100Y95036D01*
X54147Y95028D01*
X54547Y95028D01*
X54547Y90488D01*
X54547Y90487D01*
X54547Y85947D01*
X54147Y85947D01*
X54118Y85943D01*
X54089Y85945D01*
X53978Y85923D01*
X53866Y85907D01*
X53839Y85895D01*
X53810Y85889D01*
X53710Y85837D01*
X53607Y85791D01*
X53584Y85772D01*
X53558Y85758D01*
X53476Y85680D01*
X53390Y85607D01*
X53373Y85583D01*
X53352Y85562D01*
X53295Y85465D01*
X53232Y85370D01*
X53223Y85342D01*
X53208Y85317D01*
X53180Y85208D01*
X53146Y85099D01*
X53145Y85070D01*
X53138Y85042D01*
X53142Y84929D01*
X53139Y84815D01*
X53146Y84787D01*
X53147Y84757D01*
X53182Y84650D01*
X53211Y84540D01*
X53226Y84515D01*
X53235Y84487D01*
X53280Y84423D01*
X53356Y84296D01*
X53402Y84253D01*
X53430Y84214D01*
X55334Y82310D01*
X55403Y82257D01*
X55467Y82197D01*
X55517Y82172D01*
X55561Y82139D01*
X55642Y82108D01*
X55720Y82068D01*
X55768Y82060D01*
X55826Y82038D01*
X55974Y82025D01*
X56051Y82012D01*
X63194Y82012D01*
X64087Y81119D01*
X64087Y76946D01*
X64095Y76888D01*
X64094Y76829D01*
X64115Y76748D01*
X64127Y76664D01*
X64151Y76611D01*
X64166Y76554D01*
X64209Y76482D01*
X64243Y76405D01*
X64281Y76360D01*
X64311Y76310D01*
X64372Y76252D01*
X64427Y76188D01*
X64476Y76155D01*
X64518Y76115D01*
X64593Y76077D01*
X64664Y76030D01*
X64719Y76013D01*
X64771Y75986D01*
X64839Y75975D01*
X64935Y75944D01*
X65034Y75942D01*
X65102Y75930D01*
X74825Y75930D01*
X74912Y75943D01*
G37*
G36*
X-105767Y92703D02*
X-105767Y92703D01*
X-105652Y92707D01*
X-105626Y92715D01*
X-105598Y92718D01*
X-105491Y92759D01*
X-105381Y92794D01*
X-105361Y92808D01*
X-105333Y92819D01*
X-105117Y92982D01*
X-105108Y92989D01*
X-98696Y99401D01*
X-49332Y99401D01*
X-49245Y99413D01*
X-49158Y99416D01*
X-49105Y99433D01*
X-49051Y99441D01*
X-48971Y99477D01*
X-48888Y99503D01*
X-48848Y99531D01*
X-48791Y99557D01*
X-48678Y99653D01*
X-48614Y99698D01*
X-39249Y109063D01*
X-38208Y110105D01*
X-38173Y110152D01*
X-38130Y110192D01*
X-38087Y110265D01*
X-38037Y110332D01*
X-38016Y110387D01*
X-37986Y110437D01*
X-37966Y110519D01*
X-37936Y110598D01*
X-37931Y110656D01*
X-37916Y110713D01*
X-37919Y110797D01*
X-37912Y110881D01*
X-37923Y110938D01*
X-37925Y110997D01*
X-37951Y111077D01*
X-37968Y111160D01*
X-37995Y111212D01*
X-38013Y111267D01*
X-38053Y111324D01*
X-38075Y111366D01*
X-38075Y115249D01*
X-38073Y115252D01*
X-38023Y115319D01*
X-38002Y115374D01*
X-37972Y115424D01*
X-37952Y115506D01*
X-37922Y115585D01*
X-37917Y115643D01*
X-37902Y115700D01*
X-37905Y115784D01*
X-37898Y115868D01*
X-37910Y115925D01*
X-37911Y115984D01*
X-37937Y116064D01*
X-37954Y116147D01*
X-37981Y116199D01*
X-37999Y116254D01*
X-38039Y116310D01*
X-38075Y116380D01*
X-38075Y120010D01*
X-38083Y120068D01*
X-38081Y120127D01*
X-38103Y120208D01*
X-38115Y120292D01*
X-38138Y120345D01*
X-38153Y120402D01*
X-38196Y120474D01*
X-38231Y120551D01*
X-38269Y120596D01*
X-38298Y120646D01*
X-38360Y120704D01*
X-38414Y120768D01*
X-38463Y120801D01*
X-38506Y120841D01*
X-38581Y120879D01*
X-38651Y120926D01*
X-38707Y120943D01*
X-38759Y120970D01*
X-38827Y120981D01*
X-38922Y121012D01*
X-39022Y121014D01*
X-39090Y121026D01*
X-84246Y121026D01*
X-84247Y121025D01*
X-84249Y121026D01*
X-84389Y121005D01*
X-84527Y120986D01*
X-84528Y120985D01*
X-84530Y120985D01*
X-84656Y120928D01*
X-84786Y120869D01*
X-84788Y120868D01*
X-84789Y120868D01*
X-84896Y120776D01*
X-85003Y120686D01*
X-85004Y120684D01*
X-85006Y120683D01*
X-85014Y120670D01*
X-85161Y120449D01*
X-85170Y120420D01*
X-85183Y120399D01*
X-85910Y118645D01*
X-88482Y116072D01*
X-91844Y114680D01*
X-95481Y114680D01*
X-98843Y116072D01*
X-101415Y118645D01*
X-102807Y122006D01*
X-102807Y125644D01*
X-101415Y129005D01*
X-98843Y131578D01*
X-95481Y132970D01*
X-91844Y132970D01*
X-88482Y131578D01*
X-85910Y129005D01*
X-84759Y126226D01*
X-84758Y126224D01*
X-84758Y126223D01*
X-84686Y126102D01*
X-84614Y125981D01*
X-84613Y125980D01*
X-84612Y125978D01*
X-84508Y125881D01*
X-84408Y125786D01*
X-84406Y125785D01*
X-84405Y125784D01*
X-84279Y125720D01*
X-84155Y125656D01*
X-84153Y125655D01*
X-84152Y125654D01*
X-84137Y125652D01*
X-83876Y125600D01*
X-83845Y125603D01*
X-83821Y125599D01*
X-52471Y125599D01*
X-52442Y125603D01*
X-52413Y125601D01*
X-52302Y125623D01*
X-52190Y125639D01*
X-52163Y125651D01*
X-52134Y125657D01*
X-52034Y125709D01*
X-51931Y125755D01*
X-51908Y125774D01*
X-51882Y125788D01*
X-51800Y125865D01*
X-51714Y125939D01*
X-51697Y125963D01*
X-51676Y125983D01*
X-51619Y126081D01*
X-51556Y126175D01*
X-51547Y126203D01*
X-51532Y126229D01*
X-51504Y126338D01*
X-51470Y126446D01*
X-51469Y126476D01*
X-51462Y126504D01*
X-51466Y126617D01*
X-51463Y126731D01*
X-51470Y126759D01*
X-51471Y126788D01*
X-51506Y126896D01*
X-51535Y127006D01*
X-51550Y127031D01*
X-51559Y127059D01*
X-51604Y127123D01*
X-51680Y127250D01*
X-51726Y127293D01*
X-51754Y127332D01*
X-59974Y135553D01*
X-60044Y135605D01*
X-60108Y135665D01*
X-60157Y135691D01*
X-60202Y135724D01*
X-60283Y135755D01*
X-60361Y135795D01*
X-60409Y135803D01*
X-60467Y135825D01*
X-60615Y135837D01*
X-60692Y135850D01*
X-69694Y135850D01*
X-70587Y136743D01*
X-70587Y139573D01*
X-70595Y139631D01*
X-70594Y139689D01*
X-70615Y139771D01*
X-70627Y139855D01*
X-70651Y139908D01*
X-70666Y139964D01*
X-70709Y140037D01*
X-70743Y140114D01*
X-70781Y140159D01*
X-70811Y140209D01*
X-70873Y140267D01*
X-70927Y140331D01*
X-70976Y140363D01*
X-71018Y140403D01*
X-71093Y140442D01*
X-71164Y140489D01*
X-71219Y140506D01*
X-71271Y140533D01*
X-71339Y140544D01*
X-71435Y140574D01*
X-71534Y140577D01*
X-71602Y140588D01*
X-88260Y140588D01*
X-88470Y140799D01*
X-88472Y140800D01*
X-88473Y140801D01*
X-88586Y140886D01*
X-88698Y140970D01*
X-88699Y140971D01*
X-88700Y140971D01*
X-88831Y141021D01*
X-88963Y141071D01*
X-88965Y141071D01*
X-88966Y141072D01*
X-89105Y141083D01*
X-89247Y141095D01*
X-89248Y141094D01*
X-89250Y141095D01*
X-89265Y141091D01*
X-89525Y141039D01*
X-89552Y141025D01*
X-89577Y141019D01*
X-91844Y140080D01*
X-95481Y140080D01*
X-98843Y141472D01*
X-101415Y144045D01*
X-102807Y147406D01*
X-102807Y151044D01*
X-101415Y154405D01*
X-98843Y156978D01*
X-96576Y157916D01*
X-96575Y157917D01*
X-96573Y157918D01*
X-96453Y157989D01*
X-96331Y158061D01*
X-96330Y158062D01*
X-96329Y158063D01*
X-96231Y158167D01*
X-96136Y158268D01*
X-96135Y158269D01*
X-96134Y158270D01*
X-96070Y158396D01*
X-96006Y158520D01*
X-96005Y158522D01*
X-96005Y158523D01*
X-96002Y158538D01*
X-95951Y158799D01*
X-95953Y158830D01*
X-95949Y158854D01*
X-95949Y164996D01*
X-95949Y164997D01*
X-95949Y164999D01*
X-95969Y165137D01*
X-95989Y165277D01*
X-95990Y165279D01*
X-95990Y165280D01*
X-96047Y165406D01*
X-96105Y165537D01*
X-96106Y165538D01*
X-96107Y165539D01*
X-96195Y165643D01*
X-96289Y165754D01*
X-96290Y165754D01*
X-96291Y165756D01*
X-96304Y165764D01*
X-96526Y165911D01*
X-96555Y165920D01*
X-96576Y165934D01*
X-98843Y166872D01*
X-101415Y169445D01*
X-102807Y172806D01*
X-102807Y176444D01*
X-101415Y179805D01*
X-98843Y182378D01*
X-95481Y183770D01*
X-91844Y183770D01*
X-88910Y182555D01*
X-88827Y182533D01*
X-88747Y182503D01*
X-88690Y182498D01*
X-88635Y182484D01*
X-88549Y182486D01*
X-88463Y182479D01*
X-88407Y182490D01*
X-88351Y182492D01*
X-88269Y182518D01*
X-88185Y182535D01*
X-88134Y182561D01*
X-88080Y182579D01*
X-88008Y182626D01*
X-87932Y182666D01*
X-87891Y182705D01*
X-87844Y182737D01*
X-87788Y182803D01*
X-87726Y182862D01*
X-87697Y182911D01*
X-87661Y182954D01*
X-87626Y183033D01*
X-87582Y183107D01*
X-87568Y183162D01*
X-87545Y183214D01*
X-87533Y183299D01*
X-87512Y183383D01*
X-87514Y183439D01*
X-87506Y183496D01*
X-87519Y183581D01*
X-87521Y183667D01*
X-87539Y183721D01*
X-87547Y183777D01*
X-87582Y183855D01*
X-87609Y183937D01*
X-87638Y183977D01*
X-87664Y184036D01*
X-87748Y184135D01*
X-87765Y184164D01*
X-87780Y184178D01*
X-87804Y184211D01*
X-108457Y204864D01*
X-108489Y204888D01*
X-108515Y204918D01*
X-108602Y204973D01*
X-108684Y205035D01*
X-108721Y205049D01*
X-108755Y205070D01*
X-108854Y205099D01*
X-108950Y205136D01*
X-108989Y205139D01*
X-109027Y205151D01*
X-109131Y205151D01*
X-109233Y205160D01*
X-109272Y205152D01*
X-109312Y205152D01*
X-109411Y205124D01*
X-109512Y205104D01*
X-109547Y205085D01*
X-109585Y205075D01*
X-109650Y205032D01*
X-109764Y204973D01*
X-109819Y204921D01*
X-109866Y204890D01*
X-110939Y203894D01*
X-110946Y203885D01*
X-110956Y203878D01*
X-111036Y203774D01*
X-111118Y203673D01*
X-111123Y203662D01*
X-111130Y203653D01*
X-111151Y203595D01*
X-111183Y203519D01*
X-111720Y203153D01*
X-111786Y203093D01*
X-111839Y203058D01*
X-112314Y202617D01*
X-112408Y202607D01*
X-112419Y202603D01*
X-112430Y202601D01*
X-112486Y202575D01*
X-112671Y202500D01*
X-112704Y202475D01*
X-112735Y202460D01*
X-114418Y201312D01*
X-114426Y201305D01*
X-114437Y201299D01*
X-114531Y201209D01*
X-114628Y201121D01*
X-114634Y201111D01*
X-114642Y201103D01*
X-114672Y201049D01*
X-114715Y200978D01*
X-115301Y200696D01*
X-115364Y200654D01*
X-115415Y200631D01*
X-115423Y200625D01*
X-115432Y200620D01*
X-115968Y200255D01*
X-116062Y200259D01*
X-116073Y200256D01*
X-116085Y200257D01*
X-116144Y200240D01*
X-116338Y200193D01*
X-116375Y200172D01*
X-116407Y200163D01*
X-118242Y199278D01*
X-118252Y199272D01*
X-118263Y199268D01*
X-118369Y199194D01*
X-118478Y199120D01*
X-118486Y199111D01*
X-118495Y199105D01*
X-118533Y199056D01*
X-118586Y198993D01*
X-119207Y198801D01*
X-119287Y198763D01*
X-119348Y198745D01*
X-119933Y198464D01*
X-120025Y198482D01*
X-120036Y198481D01*
X-120048Y198483D01*
X-120109Y198475D01*
X-120308Y198458D01*
X-120347Y198443D01*
X-120381Y198438D01*
X-122327Y197837D01*
X-122338Y197832D01*
X-122349Y197830D01*
X-122465Y197772D01*
X-122584Y197716D01*
X-122593Y197709D01*
X-122603Y197703D01*
X-122648Y197660D01*
X-122710Y197606D01*
X-123353Y197509D01*
X-123437Y197483D01*
X-123501Y197475D01*
X-124120Y197284D01*
X-124209Y197315D01*
X-124220Y197316D01*
X-124231Y197320D01*
X-124293Y197321D01*
X-124492Y197334D01*
X-124533Y197325D01*
X-124567Y197325D01*
X-126581Y197021D01*
X-126592Y197018D01*
X-126604Y197017D01*
X-126728Y196977D01*
X-126853Y196940D01*
X-126863Y196933D01*
X-126874Y196930D01*
X-126925Y196894D01*
X-126994Y196849D01*
X-127644Y196849D01*
X-127732Y196837D01*
X-127795Y196838D01*
X-128437Y196741D01*
X-128519Y196785D01*
X-128531Y196788D01*
X-128541Y196793D01*
X-128602Y196803D01*
X-128797Y196846D01*
X-128839Y196843D01*
X-128872Y196849D01*
X-130909Y196848D01*
X-130921Y196846D01*
X-130932Y196848D01*
X-131062Y196826D01*
X-131191Y196808D01*
X-131201Y196803D01*
X-131213Y196801D01*
X-131268Y196774D01*
X-131343Y196740D01*
X-131986Y196836D01*
X-132075Y196837D01*
X-132137Y196848D01*
X-132786Y196847D01*
X-132861Y196904D01*
X-132872Y196908D01*
X-132881Y196915D01*
X-132940Y196934D01*
X-133127Y197005D01*
X-133169Y197009D01*
X-133201Y197019D01*
X-135215Y197322D01*
X-135227Y197322D01*
X-135238Y197325D01*
X-135368Y197323D01*
X-135499Y197324D01*
X-135510Y197321D01*
X-135522Y197321D01*
X-135580Y197302D01*
X-135660Y197279D01*
X-136282Y197471D01*
X-136369Y197485D01*
X-136429Y197505D01*
X-137071Y197601D01*
X-137137Y197668D01*
X-137147Y197674D01*
X-137155Y197682D01*
X-137210Y197710D01*
X-137384Y197808D01*
X-137425Y197817D01*
X-137455Y197832D01*
X-139402Y198432D01*
X-139413Y198434D01*
X-139424Y198439D01*
X-139553Y198456D01*
X-139683Y198477D01*
X-139694Y198476D01*
X-139706Y198477D01*
X-139766Y198467D01*
X-139849Y198457D01*
X-140434Y198738D01*
X-140519Y198765D01*
X-140575Y198794D01*
X-141195Y198985D01*
X-141250Y199061D01*
X-141260Y199068D01*
X-141267Y199078D01*
X-141317Y199113D01*
X-141474Y199236D01*
X-141513Y199252D01*
X-141541Y199271D01*
X-141766Y199379D01*
X-141786Y199386D01*
X-141803Y199396D01*
X-141920Y199428D01*
X-142037Y199466D01*
X-142057Y199466D01*
X-142077Y199472D01*
X-142199Y199470D01*
X-142321Y199473D01*
X-142341Y199468D01*
X-142361Y199468D01*
X-142478Y199432D01*
X-142597Y199402D01*
X-142614Y199392D01*
X-142633Y199386D01*
X-142736Y199319D01*
X-142841Y199257D01*
X-142855Y199242D01*
X-142872Y199231D01*
X-142919Y199174D01*
X-143036Y199050D01*
X-143060Y199004D01*
X-143086Y198972D01*
X-160020Y169640D01*
X-160071Y169515D01*
X-160122Y169392D01*
X-160123Y169384D01*
X-160126Y169376D01*
X-160140Y169243D01*
X-160156Y169110D01*
X-160155Y169101D01*
X-160155Y169093D01*
X-160132Y168961D01*
X-160110Y168829D01*
X-160106Y168822D01*
X-160105Y168813D01*
X-160045Y168693D01*
X-159988Y168572D01*
X-159983Y168567D01*
X-159979Y168559D01*
X-159787Y168349D01*
X-159770Y168339D01*
X-159759Y168327D01*
X-158693Y167509D01*
X-158628Y167459D01*
X-158580Y167411D01*
X-156580Y165411D01*
X-154817Y163113D01*
X-153369Y160605D01*
X-152261Y157929D01*
X-151511Y155132D01*
X-151210Y152844D01*
X-153811Y152844D01*
X-154235Y155452D01*
X-154247Y155484D01*
X-154254Y155530D01*
X-155225Y158439D01*
X-155238Y158462D01*
X-155244Y158486D01*
X-155251Y158495D01*
X-155256Y158512D01*
X-156681Y161227D01*
X-156703Y161254D01*
X-156724Y161295D01*
X-158566Y163747D01*
X-158591Y163769D01*
X-158619Y163807D01*
X-160831Y165931D01*
X-160859Y165949D01*
X-160893Y165982D01*
X-163416Y167723D01*
X-163443Y167735D01*
X-163465Y167753D01*
X-163534Y167774D01*
X-163599Y167801D01*
X-163628Y167802D01*
X-163656Y167810D01*
X-163727Y167802D01*
X-163798Y167802D01*
X-163825Y167791D01*
X-163854Y167788D01*
X-163916Y167753D01*
X-163981Y167725D01*
X-164002Y167704D01*
X-164027Y167690D01*
X-164090Y167613D01*
X-164120Y167582D01*
X-164124Y167572D01*
X-164133Y167562D01*
X-173633Y151062D01*
X-173657Y150989D01*
X-173688Y150918D01*
X-173688Y150895D01*
X-173696Y150873D01*
X-173690Y150796D01*
X-173691Y150719D01*
X-173681Y150695D01*
X-173680Y150675D01*
X-173659Y150635D01*
X-173640Y150583D01*
X-173639Y150578D01*
X-173637Y150576D01*
X-173633Y150563D01*
X-164133Y134063D01*
X-164114Y134042D01*
X-164101Y134015D01*
X-164048Y133968D01*
X-164001Y133914D01*
X-163975Y133902D01*
X-163954Y133882D01*
X-163886Y133859D01*
X-163822Y133828D01*
X-163793Y133827D01*
X-163766Y133818D01*
X-163694Y133822D01*
X-163623Y133819D01*
X-163596Y133829D01*
X-163567Y133831D01*
X-163477Y133874D01*
X-163437Y133888D01*
X-163429Y133896D01*
X-163416Y133902D01*
X-160893Y135643D01*
X-160869Y135668D01*
X-160831Y135694D01*
X-158619Y137818D01*
X-158600Y137846D01*
X-158566Y137878D01*
X-156724Y140330D01*
X-156710Y140360D01*
X-156681Y140398D01*
X-155256Y143113D01*
X-155247Y143145D01*
X-155225Y143186D01*
X-154254Y146095D01*
X-154250Y146129D01*
X-154235Y146173D01*
X-153811Y148781D01*
X-151210Y148781D01*
X-151511Y146493D01*
X-152261Y143696D01*
X-153369Y141020D01*
X-154817Y138512D01*
X-154841Y138481D01*
X-154841Y138480D01*
X-156580Y136214D01*
X-158628Y134166D01*
X-159759Y133298D01*
X-159853Y133202D01*
X-159948Y133108D01*
X-159952Y133101D01*
X-159958Y133095D01*
X-160022Y132977D01*
X-160087Y132860D01*
X-160089Y132852D01*
X-160093Y132845D01*
X-160121Y132715D01*
X-160152Y132584D01*
X-160152Y132575D01*
X-160153Y132567D01*
X-160145Y132435D01*
X-160138Y132300D01*
X-160135Y132293D01*
X-160134Y132284D01*
X-160037Y132016D01*
X-160026Y132001D01*
X-160020Y131985D01*
X-143086Y102653D01*
X-143073Y102637D01*
X-143065Y102618D01*
X-142986Y102525D01*
X-142910Y102429D01*
X-142894Y102417D01*
X-142881Y102402D01*
X-142779Y102334D01*
X-142680Y102262D01*
X-142661Y102256D01*
X-142644Y102244D01*
X-142527Y102208D01*
X-142412Y102166D01*
X-142392Y102165D01*
X-142373Y102159D01*
X-142251Y102156D01*
X-142129Y102148D01*
X-142109Y102153D01*
X-142089Y102152D01*
X-142017Y102173D01*
X-141851Y102209D01*
X-141805Y102234D01*
X-141766Y102246D01*
X-141541Y102354D01*
X-141531Y102360D01*
X-141520Y102364D01*
X-141413Y102440D01*
X-141305Y102512D01*
X-141297Y102521D01*
X-141288Y102527D01*
X-141250Y102576D01*
X-141197Y102640D01*
X-140575Y102831D01*
X-140495Y102869D01*
X-140434Y102887D01*
X-139850Y103168D01*
X-139758Y103149D01*
X-139746Y103150D01*
X-139735Y103148D01*
X-139674Y103156D01*
X-139474Y103173D01*
X-139435Y103188D01*
X-139402Y103193D01*
X-137455Y103793D01*
X-137445Y103797D01*
X-137433Y103800D01*
X-137316Y103858D01*
X-137198Y103913D01*
X-137189Y103921D01*
X-137179Y103926D01*
X-137134Y103969D01*
X-137072Y104024D01*
X-136429Y104120D01*
X-136345Y104146D01*
X-136282Y104154D01*
X-135662Y104345D01*
X-135573Y104313D01*
X-135562Y104312D01*
X-135551Y104309D01*
X-135489Y104308D01*
X-135290Y104295D01*
X-135249Y104304D01*
X-135215Y104303D01*
X-133201Y104606D01*
X-133189Y104609D01*
X-133178Y104610D01*
X-133053Y104650D01*
X-132928Y104687D01*
X-132918Y104694D01*
X-132907Y104697D01*
X-132857Y104733D01*
X-132787Y104778D01*
X-132137Y104777D01*
X-132050Y104790D01*
X-131986Y104789D01*
X-131345Y104885D01*
X-131262Y104840D01*
X-131251Y104838D01*
X-131240Y104833D01*
X-131179Y104822D01*
X-130984Y104780D01*
X-130942Y104783D01*
X-130909Y104777D01*
X-128872Y104776D01*
X-128861Y104778D01*
X-128849Y104777D01*
X-128720Y104798D01*
X-128591Y104816D01*
X-128580Y104821D01*
X-128569Y104823D01*
X-128514Y104851D01*
X-128438Y104884D01*
X-127795Y104787D01*
X-127707Y104786D01*
X-127644Y104776D01*
X-126996Y104776D01*
X-126920Y104719D01*
X-126910Y104715D01*
X-126900Y104708D01*
X-126842Y104689D01*
X-126655Y104618D01*
X-126613Y104614D01*
X-126581Y104604D01*
X-124567Y104300D01*
X-124555Y104300D01*
X-124544Y104297D01*
X-124414Y104298D01*
X-124283Y104297D01*
X-124271Y104300D01*
X-124260Y104300D01*
X-124202Y104320D01*
X-124122Y104342D01*
X-123501Y104150D01*
X-123413Y104136D01*
X-123353Y104116D01*
X-122711Y104019D01*
X-122645Y103952D01*
X-122635Y103947D01*
X-122627Y103938D01*
X-122572Y103911D01*
X-122398Y103812D01*
X-122357Y103803D01*
X-122327Y103788D01*
X-120381Y103187D01*
X-120369Y103185D01*
X-120359Y103180D01*
X-120229Y103162D01*
X-120100Y103142D01*
X-120089Y103143D01*
X-120077Y103141D01*
X-120016Y103152D01*
X-119934Y103162D01*
X-119348Y102880D01*
X-119264Y102853D01*
X-119207Y102824D01*
X-118588Y102633D01*
X-118532Y102557D01*
X-118523Y102550D01*
X-118516Y102540D01*
X-118466Y102505D01*
X-118308Y102382D01*
X-118270Y102366D01*
X-118242Y102347D01*
X-116407Y101462D01*
X-116396Y101459D01*
X-116386Y101452D01*
X-116261Y101416D01*
X-116136Y101376D01*
X-116125Y101375D01*
X-116113Y101372D01*
X-116052Y101373D01*
X-115969Y101371D01*
X-115432Y101005D01*
X-115353Y100966D01*
X-115301Y100929D01*
X-114717Y100647D01*
X-114673Y100564D01*
X-114665Y100555D01*
X-114660Y100545D01*
X-114616Y100503D01*
X-114478Y100357D01*
X-114442Y100336D01*
X-114418Y100313D01*
X-112735Y99165D01*
X-112725Y99160D01*
X-112716Y99152D01*
X-112597Y99097D01*
X-112480Y99039D01*
X-112469Y99037D01*
X-112458Y99032D01*
X-112397Y99024D01*
X-112315Y99009D01*
X-111839Y98567D01*
X-111766Y98516D01*
X-111720Y98472D01*
X-111185Y98107D01*
X-111154Y98018D01*
X-111148Y98008D01*
X-111144Y97997D01*
X-111106Y97949D01*
X-110992Y97785D01*
X-110959Y97758D01*
X-110939Y97731D01*
X-109446Y96345D01*
X-109437Y96339D01*
X-109429Y96330D01*
X-109320Y96258D01*
X-109213Y96183D01*
X-109202Y96179D01*
X-109192Y96173D01*
X-109133Y96156D01*
X-109054Y96129D01*
X-108649Y95621D01*
X-108606Y95580D01*
X-108602Y95577D01*
X-108585Y95560D01*
X-108546Y95510D01*
X-108071Y95069D01*
X-108054Y94976D01*
X-108049Y94966D01*
X-108047Y94954D01*
X-108017Y94900D01*
X-107928Y94721D01*
X-107900Y94690D01*
X-107884Y94661D01*
X-106620Y93074D01*
X-106536Y92995D01*
X-106457Y92912D01*
X-106433Y92898D01*
X-106413Y92879D01*
X-106311Y92826D01*
X-106211Y92768D01*
X-106185Y92761D01*
X-106160Y92749D01*
X-106047Y92726D01*
X-105936Y92698D01*
X-105909Y92699D01*
X-105882Y92693D01*
X-105767Y92703D01*
G37*
G36*
X-67572Y319D02*
X-67572Y319D01*
X-67544Y316D01*
X-67476Y339D01*
X-67405Y353D01*
X-67382Y369D01*
X-67355Y378D01*
X-67300Y425D01*
X-67241Y465D01*
X-67226Y489D01*
X-67205Y508D01*
X-67173Y572D01*
X-67134Y633D01*
X-67129Y661D01*
X-67117Y686D01*
X-67108Y788D01*
X-67101Y829D01*
X-67103Y839D01*
X-67102Y852D01*
X-67345Y3902D01*
X-67354Y3935D01*
X-67358Y3982D01*
X-67774Y5681D01*
X-65081Y5681D01*
X-64931Y5121D01*
X-64746Y3697D01*
X-64710Y3567D01*
X-64676Y3437D01*
X-64672Y3431D01*
X-64670Y3423D01*
X-64599Y3308D01*
X-64530Y3193D01*
X-64525Y3187D01*
X-64521Y3181D01*
X-64421Y3090D01*
X-64323Y2998D01*
X-64316Y2995D01*
X-64311Y2990D01*
X-64190Y2930D01*
X-64070Y2869D01*
X-64063Y2868D01*
X-64056Y2864D01*
X-63776Y2814D01*
X-63756Y2816D01*
X-63739Y2813D01*
X-29822Y2813D01*
X-29802Y2816D01*
X-29782Y2814D01*
X-29662Y2836D01*
X-29541Y2853D01*
X-29522Y2861D01*
X-29502Y2865D01*
X-29393Y2919D01*
X-29282Y2969D01*
X-29266Y2983D01*
X-29248Y2992D01*
X-29158Y3074D01*
X-29065Y3153D01*
X-29053Y3170D01*
X-29038Y3184D01*
X-28975Y3288D01*
X-28907Y3390D01*
X-28901Y3409D01*
X-28890Y3427D01*
X-28872Y3499D01*
X-28821Y3661D01*
X-28820Y3713D01*
X-28810Y3753D01*
X-28792Y3991D01*
X-28793Y4002D01*
X-28791Y4013D01*
X-28802Y4144D01*
X-28811Y4274D01*
X-28815Y4285D01*
X-28816Y4297D01*
X-28840Y4354D01*
X-28868Y4431D01*
X-28723Y5065D01*
X-28716Y5153D01*
X-28700Y5215D01*
X-28652Y5862D01*
X-28590Y5933D01*
X-28585Y5943D01*
X-28578Y5952D01*
X-28554Y6009D01*
X-28469Y6190D01*
X-28463Y6231D01*
X-28450Y6262D01*
X-27997Y8246D01*
X-27996Y8258D01*
X-27992Y8269D01*
X-27984Y8399D01*
X-27973Y8529D01*
X-27975Y8541D01*
X-27975Y8552D01*
X-27990Y8612D01*
X-28006Y8693D01*
X-27768Y9299D01*
X-27748Y9384D01*
X-27724Y9444D01*
X-27579Y10076D01*
X-27508Y10136D01*
X-27501Y10146D01*
X-27492Y10154D01*
X-27461Y10206D01*
X-27350Y10373D01*
X-27337Y10413D01*
X-27320Y10442D01*
X-26576Y12336D01*
X-26574Y12347D01*
X-26568Y12357D01*
X-26541Y12485D01*
X-26511Y12612D01*
X-26511Y12624D01*
X-26509Y12635D01*
X-26515Y12696D01*
X-26519Y12780D01*
X-26193Y13343D01*
X-26160Y13425D01*
X-26128Y13479D01*
X-25891Y14083D01*
X-25811Y14132D01*
X-25803Y14141D01*
X-25793Y14147D01*
X-25754Y14194D01*
X-25619Y14342D01*
X-25601Y14380D01*
X-25579Y14406D01*
X-24562Y16168D01*
X-24558Y16179D01*
X-24551Y16188D01*
X-24505Y16311D01*
X-24456Y16432D01*
X-24455Y16443D01*
X-24450Y16454D01*
X-24447Y16516D01*
X-24439Y16598D01*
X-24033Y17106D01*
X-23988Y17183D01*
X-23948Y17232D01*
X-23624Y17793D01*
X-23537Y17830D01*
X-23528Y17838D01*
X-23518Y17842D01*
X-23472Y17884D01*
X-23317Y18010D01*
X-23293Y18044D01*
X-23268Y18067D01*
X-21999Y19657D01*
X-21993Y19667D01*
X-21985Y19676D01*
X-21921Y19790D01*
X-21855Y19902D01*
X-21852Y19914D01*
X-21846Y19924D01*
X-21834Y19984D01*
X-21813Y20064D01*
X-21337Y20506D01*
X-21281Y20575D01*
X-21233Y20618D01*
X-20829Y21125D01*
X-20738Y21148D01*
X-20728Y21154D01*
X-20717Y21157D01*
X-20665Y21191D01*
X-20603Y21228D01*
X-20568Y21244D01*
X-20548Y21260D01*
X-20493Y21293D01*
X-20464Y21323D01*
X-20436Y21342D01*
X-19579Y22137D01*
X-19530Y22198D01*
X-19474Y22251D01*
X-19441Y22307D01*
X-19399Y22358D01*
X-19369Y22429D01*
X-19330Y22496D01*
X-19314Y22560D01*
X-19288Y22620D01*
X-19279Y22697D01*
X-19260Y22772D01*
X-19262Y22837D01*
X-19254Y22902D01*
X-19267Y22978D01*
X-19269Y23056D01*
X-19289Y23118D01*
X-19300Y23183D01*
X-19333Y23253D01*
X-19356Y23326D01*
X-19389Y23372D01*
X-19421Y23440D01*
X-19506Y23536D01*
X-19551Y23600D01*
X-23261Y27309D01*
X-25047Y29095D01*
X-25047Y55602D01*
X-25051Y55631D01*
X-25048Y55660D01*
X-25071Y55771D01*
X-25087Y55883D01*
X-25099Y55910D01*
X-25104Y55939D01*
X-25157Y56040D01*
X-25203Y56143D01*
X-25222Y56165D01*
X-25235Y56191D01*
X-25313Y56273D01*
X-25386Y56360D01*
X-25411Y56376D01*
X-25431Y56397D01*
X-25529Y56455D01*
X-25623Y56517D01*
X-25651Y56526D01*
X-25676Y56541D01*
X-25786Y56569D01*
X-25894Y56603D01*
X-25924Y56604D01*
X-25952Y56611D01*
X-26065Y56608D01*
X-26178Y56610D01*
X-26207Y56603D01*
X-26236Y56602D01*
X-26344Y56567D01*
X-26453Y56539D01*
X-26479Y56524D01*
X-26507Y56515D01*
X-26571Y56469D01*
X-26698Y56393D01*
X-26741Y56348D01*
X-26780Y56320D01*
X-27180Y55919D01*
X-27205Y55905D01*
X-27250Y55857D01*
X-27268Y55845D01*
X-27274Y55844D01*
X-27304Y55846D01*
X-27381Y55829D01*
X-27525Y55808D01*
X-27583Y55782D01*
X-27632Y55771D01*
X-29065Y55177D01*
X-31176Y55177D01*
X-33127Y55985D01*
X-34619Y57478D01*
X-35427Y59428D01*
X-35427Y61540D01*
X-34619Y63490D01*
X-33127Y64983D01*
X-31103Y65821D01*
X-31035Y65830D01*
X-30982Y65854D01*
X-30926Y65869D01*
X-30853Y65912D01*
X-30776Y65947D01*
X-30731Y65985D01*
X-30681Y66014D01*
X-30623Y66076D01*
X-30559Y66130D01*
X-30527Y66179D01*
X-30487Y66222D01*
X-30448Y66297D01*
X-30401Y66367D01*
X-30384Y66423D01*
X-30357Y66475D01*
X-30346Y66543D01*
X-30316Y66638D01*
X-30313Y66738D01*
X-30302Y66806D01*
X-30302Y69489D01*
X-30310Y69547D01*
X-30308Y69606D01*
X-30330Y69687D01*
X-30342Y69771D01*
X-30365Y69824D01*
X-30380Y69881D01*
X-30423Y69953D01*
X-30458Y70030D01*
X-30496Y70075D01*
X-30525Y70125D01*
X-30587Y70183D01*
X-30641Y70247D01*
X-30690Y70280D01*
X-30733Y70320D01*
X-30808Y70358D01*
X-30878Y70405D01*
X-30934Y70422D01*
X-30986Y70449D01*
X-31054Y70460D01*
X-31149Y70491D01*
X-31249Y70493D01*
X-31317Y70505D01*
X-37935Y70505D01*
X-37993Y70496D01*
X-38051Y70498D01*
X-38133Y70477D01*
X-38217Y70465D01*
X-38270Y70441D01*
X-38326Y70426D01*
X-38399Y70383D01*
X-38476Y70348D01*
X-38521Y70311D01*
X-38571Y70281D01*
X-38629Y70219D01*
X-38693Y70165D01*
X-38725Y70116D01*
X-38765Y70073D01*
X-38804Y69998D01*
X-38851Y69928D01*
X-38868Y69872D01*
X-38895Y69820D01*
X-38906Y69752D01*
X-38936Y69657D01*
X-38939Y69557D01*
X-38950Y69489D01*
X-38950Y62131D01*
X-39843Y61238D01*
X-51107Y61238D01*
X-52000Y62131D01*
X-52000Y74394D01*
X-51107Y75287D01*
X-42823Y75287D01*
X-42737Y75299D01*
X-42649Y75302D01*
X-42596Y75319D01*
X-42542Y75327D01*
X-42462Y75363D01*
X-42379Y75390D01*
X-42339Y75418D01*
X-42282Y75443D01*
X-42169Y75539D01*
X-42105Y75585D01*
X-41596Y76094D01*
X-39090Y76094D01*
X-39032Y76102D01*
X-38974Y76101D01*
X-38892Y76122D01*
X-38808Y76134D01*
X-38755Y76158D01*
X-38699Y76172D01*
X-38626Y76216D01*
X-38549Y76250D01*
X-38504Y76288D01*
X-38454Y76318D01*
X-38396Y76379D01*
X-38332Y76434D01*
X-38300Y76482D01*
X-38260Y76525D01*
X-38221Y76600D01*
X-38174Y76670D01*
X-38157Y76726D01*
X-38130Y76778D01*
X-38119Y76846D01*
X-38089Y76941D01*
X-38086Y77041D01*
X-38075Y77109D01*
X-38075Y80240D01*
X-38073Y80243D01*
X-38022Y80310D01*
X-38001Y80365D01*
X-37972Y80416D01*
X-37951Y80497D01*
X-37921Y80576D01*
X-37916Y80634D01*
X-37902Y80691D01*
X-37905Y80775D01*
X-37897Y80859D01*
X-37909Y80917D01*
X-37911Y80975D01*
X-37937Y81055D01*
X-37953Y81138D01*
X-37980Y81190D01*
X-37998Y81246D01*
X-38038Y81302D01*
X-38075Y81372D01*
X-38075Y85242D01*
X-38073Y85245D01*
X-38023Y85312D01*
X-38002Y85367D01*
X-37972Y85417D01*
X-37952Y85499D01*
X-37922Y85578D01*
X-37917Y85636D01*
X-37902Y85693D01*
X-37905Y85777D01*
X-37898Y85861D01*
X-37910Y85918D01*
X-37911Y85977D01*
X-37937Y86057D01*
X-37954Y86140D01*
X-37981Y86192D01*
X-37999Y86247D01*
X-38039Y86303D01*
X-38075Y86373D01*
X-38075Y89748D01*
X-38083Y89806D01*
X-38081Y89865D01*
X-38103Y89946D01*
X-38115Y90030D01*
X-38138Y90083D01*
X-38153Y90140D01*
X-38196Y90212D01*
X-38231Y90289D01*
X-38269Y90334D01*
X-38298Y90384D01*
X-38360Y90442D01*
X-38414Y90506D01*
X-38463Y90539D01*
X-38506Y90579D01*
X-38581Y90617D01*
X-38651Y90664D01*
X-38707Y90681D01*
X-38759Y90708D01*
X-38827Y90719D01*
X-38922Y90750D01*
X-39022Y90752D01*
X-39090Y90764D01*
X-91493Y90764D01*
X-91580Y90751D01*
X-91667Y90748D01*
X-91720Y90731D01*
X-91774Y90724D01*
X-91854Y90688D01*
X-91938Y90661D01*
X-91977Y90633D01*
X-92034Y90607D01*
X-92147Y90512D01*
X-92211Y90466D01*
X-94253Y88424D01*
X-94306Y88354D01*
X-94366Y88290D01*
X-94391Y88241D01*
X-94424Y88196D01*
X-94455Y88115D01*
X-94495Y88037D01*
X-94503Y87989D01*
X-94526Y87931D01*
X-94538Y87783D01*
X-94551Y87706D01*
X-94551Y84922D01*
X-97366Y82106D01*
X-100231Y82106D01*
X-100326Y82093D01*
X-100422Y82088D01*
X-100466Y82073D01*
X-100513Y82066D01*
X-100600Y82027D01*
X-100691Y81996D01*
X-100729Y81969D01*
X-100772Y81950D01*
X-100845Y81888D01*
X-100924Y81833D01*
X-100953Y81796D01*
X-100989Y81766D01*
X-101042Y81686D01*
X-101103Y81612D01*
X-101121Y81569D01*
X-101147Y81530D01*
X-101176Y81438D01*
X-101213Y81349D01*
X-101217Y81308D01*
X-101232Y81259D01*
X-101237Y81089D01*
X-101243Y81015D01*
X-101183Y80208D01*
X-101164Y80122D01*
X-101161Y80058D01*
X-101017Y79426D01*
X-101055Y79340D01*
X-101057Y79328D01*
X-101061Y79318D01*
X-101067Y79257D01*
X-101095Y79058D01*
X-101089Y79017D01*
X-101092Y78983D01*
X-100940Y76952D01*
X-100938Y76941D01*
X-100938Y76929D01*
X-100908Y76803D01*
X-100880Y76674D01*
X-100874Y76664D01*
X-100871Y76653D01*
X-100840Y76600D01*
X-100800Y76527D01*
X-100849Y75879D01*
X-100843Y75791D01*
X-100849Y75727D01*
X-100801Y75081D01*
X-100851Y75001D01*
X-100855Y74990D01*
X-100861Y74980D01*
X-100875Y74921D01*
X-100933Y74729D01*
X-100933Y74687D01*
X-100941Y74654D01*
X-101094Y72623D01*
X-101093Y72612D01*
X-101095Y72600D01*
X-101084Y72469D01*
X-101075Y72339D01*
X-101071Y72328D01*
X-101070Y72317D01*
X-101047Y72260D01*
X-101019Y72182D01*
X-101163Y71549D01*
X-101171Y71460D01*
X-101186Y71399D01*
X-101235Y70752D01*
X-101297Y70681D01*
X-101302Y70671D01*
X-101309Y70662D01*
X-101333Y70605D01*
X-101418Y70424D01*
X-101424Y70382D01*
X-101437Y70351D01*
X-101891Y68365D01*
X-101892Y68354D01*
X-101896Y68343D01*
X-101904Y68212D01*
X-101915Y68082D01*
X-101913Y68071D01*
X-101913Y68059D01*
X-101898Y67999D01*
X-101882Y67918D01*
X-102120Y67313D01*
X-102140Y67227D01*
X-102165Y67168D01*
X-102309Y66536D01*
X-102381Y66475D01*
X-102388Y66466D01*
X-102396Y66458D01*
X-102428Y66405D01*
X-102539Y66239D01*
X-102549Y66207D01*
X-102555Y66198D01*
X-102558Y66187D01*
X-102569Y66170D01*
X-103314Y64274D01*
X-103316Y64263D01*
X-103322Y64253D01*
X-103350Y64124D01*
X-103380Y63998D01*
X-103379Y63986D01*
X-103382Y63975D01*
X-103376Y63913D01*
X-103372Y63830D01*
X-103697Y63268D01*
X-103730Y63186D01*
X-103737Y63174D01*
X-103752Y63152D01*
X-103753Y63147D01*
X-103763Y63131D01*
X-103998Y62534D01*
X-104018Y62516D01*
X-104080Y62478D01*
X-104088Y62469D01*
X-104098Y62463D01*
X-104137Y62416D01*
X-104187Y62373D01*
X-104218Y62326D01*
X-104271Y62268D01*
X-104290Y62230D01*
X-104311Y62204D01*
X-105330Y60440D01*
X-105335Y60430D01*
X-105342Y60420D01*
X-105388Y60298D01*
X-105437Y60177D01*
X-105438Y60165D01*
X-105442Y60154D01*
X-105445Y60093D01*
X-105454Y60010D01*
X-105859Y59503D01*
X-105904Y59426D01*
X-105945Y59377D01*
X-106269Y58816D01*
X-106356Y58779D01*
X-106365Y58771D01*
X-106376Y58767D01*
X-106421Y58726D01*
X-106576Y58599D01*
X-106600Y58565D01*
X-106625Y58542D01*
X-107896Y56950D01*
X-107902Y56940D01*
X-107910Y56932D01*
X-107974Y56818D01*
X-108040Y56705D01*
X-108043Y56694D01*
X-108049Y56684D01*
X-108061Y56624D01*
X-108082Y56543D01*
X-108559Y56102D01*
X-108615Y56033D01*
X-108662Y55990D01*
X-109066Y55483D01*
X-109158Y55460D01*
X-109168Y55454D01*
X-109179Y55451D01*
X-109230Y55417D01*
X-109402Y55315D01*
X-109431Y55285D01*
X-109459Y55266D01*
X-110953Y53881D01*
X-110960Y53872D01*
X-110970Y53866D01*
X-111050Y53762D01*
X-111132Y53661D01*
X-111137Y53650D01*
X-111144Y53641D01*
X-111165Y53583D01*
X-111198Y53507D01*
X-111735Y53141D01*
X-111800Y53081D01*
X-111854Y53046D01*
X-112329Y52605D01*
X-112423Y52596D01*
X-112433Y52591D01*
X-112445Y52590D01*
X-112501Y52564D01*
X-112686Y52489D01*
X-112719Y52464D01*
X-112750Y52449D01*
X-112941Y52319D01*
X-112956Y52305D01*
X-112975Y52295D01*
X-113061Y52210D01*
X-113151Y52128D01*
X-113162Y52110D01*
X-113177Y52096D01*
X-113236Y51989D01*
X-113300Y51885D01*
X-113306Y51866D01*
X-113316Y51848D01*
X-113344Y51729D01*
X-113376Y51612D01*
X-113376Y51591D01*
X-113381Y51571D01*
X-113375Y51449D01*
X-113373Y51327D01*
X-113367Y51308D01*
X-113366Y51287D01*
X-113340Y51217D01*
X-113292Y51055D01*
X-113263Y51011D01*
X-113249Y50972D01*
X-96316Y21643D01*
X-96233Y21537D01*
X-96153Y21431D01*
X-96146Y21426D01*
X-96141Y21419D01*
X-96032Y21340D01*
X-95926Y21261D01*
X-95917Y21257D01*
X-95910Y21252D01*
X-95785Y21207D01*
X-95660Y21160D01*
X-95651Y21159D01*
X-95643Y21156D01*
X-95510Y21148D01*
X-95376Y21137D01*
X-95368Y21139D01*
X-95359Y21138D01*
X-95081Y21199D01*
X-95065Y21208D01*
X-95049Y21212D01*
X-93692Y21772D01*
X-90899Y22517D01*
X-88032Y22891D01*
X-85141Y22887D01*
X-84631Y22820D01*
X-84631Y20221D01*
X-87335Y20333D01*
X-87369Y20327D01*
X-87416Y20330D01*
X-90454Y19964D01*
X-90486Y19954D01*
X-90532Y19948D01*
X-93472Y19101D01*
X-93502Y19085D01*
X-93548Y19072D01*
X-96314Y17764D01*
X-96336Y17747D01*
X-96363Y17737D01*
X-96415Y17688D01*
X-96473Y17645D01*
X-96487Y17620D01*
X-96508Y17600D01*
X-96537Y17535D01*
X-96573Y17473D01*
X-96576Y17445D01*
X-96588Y17418D01*
X-96589Y17346D01*
X-96598Y17276D01*
X-96590Y17248D01*
X-96591Y17219D01*
X-96555Y17125D01*
X-96544Y17084D01*
X-96537Y17076D01*
X-96533Y17063D01*
X-87033Y563D01*
X-86981Y505D01*
X-86935Y442D01*
X-86916Y431D01*
X-86901Y414D01*
X-86831Y381D01*
X-86764Y341D01*
X-86740Y337D01*
X-86722Y328D01*
X-86677Y326D01*
X-86600Y313D01*
X-67600Y313D01*
X-67572Y319D01*
G37*
G36*
X86676Y329D02*
X86676Y329D01*
X86754Y337D01*
X86773Y348D01*
X86795Y353D01*
X86859Y397D01*
X86927Y435D01*
X86943Y454D01*
X86959Y465D01*
X86983Y503D01*
X87033Y563D01*
X96533Y17063D01*
X96542Y17091D01*
X96558Y17114D01*
X96573Y17184D01*
X96596Y17252D01*
X96593Y17281D01*
X96599Y17309D01*
X96586Y17379D01*
X96580Y17450D01*
X96567Y17476D01*
X96561Y17504D01*
X96521Y17563D01*
X96488Y17627D01*
X96466Y17645D01*
X96450Y17669D01*
X96367Y17726D01*
X96335Y17753D01*
X96324Y17756D01*
X96314Y17764D01*
X93548Y19072D01*
X93515Y19080D01*
X93472Y19101D01*
X90532Y19948D01*
X90498Y19951D01*
X90454Y19964D01*
X87416Y20330D01*
X87382Y20327D01*
X87335Y20333D01*
X84631Y20221D01*
X84631Y22820D01*
X85141Y22887D01*
X88032Y22891D01*
X90899Y22517D01*
X93692Y21772D01*
X93880Y21694D01*
X95049Y21212D01*
X95179Y21179D01*
X95307Y21143D01*
X95316Y21143D01*
X95324Y21141D01*
X95458Y21145D01*
X95591Y21147D01*
X95600Y21150D01*
X95609Y21150D01*
X95736Y21191D01*
X95864Y21229D01*
X95871Y21234D01*
X95879Y21237D01*
X95990Y21311D01*
X96102Y21384D01*
X96107Y21390D01*
X96115Y21395D01*
X96298Y21613D01*
X96306Y21630D01*
X96316Y21643D01*
X113249Y50972D01*
X113257Y50992D01*
X113269Y51008D01*
X113309Y51123D01*
X113355Y51236D01*
X113357Y51257D01*
X113364Y51276D01*
X113372Y51398D01*
X113384Y51519D01*
X113380Y51539D01*
X113382Y51560D01*
X113355Y51679D01*
X113334Y51799D01*
X113324Y51817D01*
X113320Y51837D01*
X113262Y51944D01*
X113207Y52053D01*
X113193Y52069D01*
X113184Y52087D01*
X113130Y52138D01*
X113016Y52263D01*
X112971Y52291D01*
X112941Y52319D01*
X112750Y52449D01*
X112739Y52455D01*
X112731Y52462D01*
X112612Y52517D01*
X112495Y52575D01*
X112483Y52577D01*
X112473Y52582D01*
X112412Y52590D01*
X112330Y52604D01*
X111854Y53046D01*
X111781Y53097D01*
X111735Y53141D01*
X111199Y53506D01*
X111169Y53595D01*
X111162Y53605D01*
X111158Y53616D01*
X111121Y53664D01*
X111006Y53828D01*
X110974Y53855D01*
X110953Y53881D01*
X109459Y55266D01*
X109450Y55273D01*
X109442Y55282D01*
X109333Y55354D01*
X109226Y55429D01*
X109215Y55432D01*
X109205Y55439D01*
X109146Y55456D01*
X109067Y55482D01*
X108662Y55990D01*
X108598Y56051D01*
X108559Y56102D01*
X108083Y56542D01*
X108067Y56635D01*
X108061Y56646D01*
X108059Y56657D01*
X108029Y56710D01*
X107941Y56890D01*
X107912Y56921D01*
X107896Y56950D01*
X107377Y57600D01*
X107294Y57679D01*
X107214Y57763D01*
X107191Y57777D01*
X107170Y57796D01*
X107068Y57848D01*
X106969Y57906D01*
X106942Y57913D01*
X106918Y57926D01*
X106805Y57948D01*
X106694Y57976D01*
X106666Y57976D01*
X106639Y57981D01*
X106524Y57971D01*
X106410Y57967D01*
X106383Y57959D01*
X106356Y57956D01*
X106248Y57915D01*
X106139Y57880D01*
X106119Y57865D01*
X106090Y57854D01*
X105877Y57693D01*
X105866Y57685D01*
X104377Y56197D01*
X25935Y56197D01*
X24149Y57982D01*
X19698Y62434D01*
X19628Y62487D01*
X19564Y62547D01*
X19515Y62572D01*
X19471Y62605D01*
X19389Y62636D01*
X19311Y62676D01*
X19263Y62684D01*
X19205Y62706D01*
X19057Y62719D01*
X18980Y62732D01*
X15564Y62732D01*
X15562Y62733D01*
X15494Y62783D01*
X15440Y62804D01*
X15389Y62834D01*
X15307Y62855D01*
X15229Y62885D01*
X15170Y62890D01*
X15114Y62904D01*
X15029Y62901D01*
X14945Y62908D01*
X14888Y62897D01*
X14829Y62895D01*
X14749Y62869D01*
X14667Y62852D01*
X14615Y62825D01*
X14559Y62807D01*
X14503Y62767D01*
X14434Y62732D01*
X10563Y62732D01*
X10561Y62733D01*
X10493Y62783D01*
X10439Y62804D01*
X10388Y62834D01*
X10306Y62855D01*
X10228Y62885D01*
X10169Y62890D01*
X10113Y62904D01*
X10028Y62901D01*
X9944Y62908D01*
X9887Y62897D01*
X9828Y62895D01*
X9748Y62869D01*
X9666Y62852D01*
X9614Y62825D01*
X9558Y62807D01*
X9502Y62767D01*
X9433Y62732D01*
X5562Y62732D01*
X5560Y62733D01*
X5492Y62783D01*
X5438Y62804D01*
X5387Y62834D01*
X5305Y62855D01*
X5227Y62885D01*
X5168Y62890D01*
X5112Y62904D01*
X5027Y62901D01*
X4943Y62908D01*
X4886Y62897D01*
X4827Y62895D01*
X4747Y62869D01*
X4665Y62852D01*
X4613Y62825D01*
X4557Y62807D01*
X4501Y62767D01*
X4432Y62732D01*
X561Y62732D01*
X558Y62733D01*
X491Y62784D01*
X436Y62805D01*
X386Y62834D01*
X304Y62855D01*
X225Y62885D01*
X167Y62890D01*
X110Y62904D01*
X26Y62902D01*
X-58Y62909D01*
X-116Y62897D01*
X-174Y62895D01*
X-254Y62869D01*
X-337Y62853D01*
X-389Y62826D01*
X-445Y62808D01*
X-501Y62768D01*
X-571Y62732D01*
X-4441Y62732D01*
X-4443Y62733D01*
X-4511Y62783D01*
X-4565Y62804D01*
X-4616Y62834D01*
X-4698Y62855D01*
X-4776Y62885D01*
X-4835Y62890D01*
X-4891Y62904D01*
X-4976Y62901D01*
X-5060Y62908D01*
X-5117Y62897D01*
X-5176Y62895D01*
X-5256Y62869D01*
X-5338Y62852D01*
X-5390Y62825D01*
X-5446Y62807D01*
X-5502Y62767D01*
X-5571Y62732D01*
X-9442Y62732D01*
X-9444Y62733D01*
X-9512Y62783D01*
X-9566Y62804D01*
X-9617Y62834D01*
X-9699Y62855D01*
X-9777Y62885D01*
X-9836Y62890D01*
X-9892Y62904D01*
X-9977Y62901D01*
X-10061Y62908D01*
X-10118Y62897D01*
X-10177Y62895D01*
X-10257Y62869D01*
X-10339Y62852D01*
X-10391Y62825D01*
X-10447Y62807D01*
X-10503Y62767D01*
X-10572Y62732D01*
X-13948Y62732D01*
X-14006Y62723D01*
X-14064Y62725D01*
X-14146Y62704D01*
X-14230Y62692D01*
X-14283Y62668D01*
X-14339Y62653D01*
X-14412Y62610D01*
X-14489Y62575D01*
X-14534Y62538D01*
X-14584Y62508D01*
X-14642Y62446D01*
X-14706Y62392D01*
X-14738Y62343D01*
X-14778Y62300D01*
X-14817Y62225D01*
X-14864Y62155D01*
X-14881Y62099D01*
X-14908Y62047D01*
X-14919Y61979D01*
X-14949Y61884D01*
X-14952Y61784D01*
X-14963Y61716D01*
X-14963Y35984D01*
X-14955Y35927D01*
X-14957Y35868D01*
X-14935Y35787D01*
X-14923Y35703D01*
X-14900Y35650D01*
X-14885Y35593D01*
X-14842Y35521D01*
X-14807Y35444D01*
X-14769Y35399D01*
X-14740Y35349D01*
X-14678Y35291D01*
X-14624Y35227D01*
X-14575Y35194D01*
X-14532Y35154D01*
X-14457Y35116D01*
X-14387Y35069D01*
X-14331Y35051D01*
X-14279Y35025D01*
X-14211Y35013D01*
X-14116Y34983D01*
X-14016Y34981D01*
X-13948Y34969D01*
X-12296Y34969D01*
X-9481Y32154D01*
X-9481Y29559D01*
X-9471Y29492D01*
X-9472Y29424D01*
X-9451Y29352D01*
X-9441Y29277D01*
X-9413Y29216D01*
X-9395Y29150D01*
X-9355Y29086D01*
X-9325Y29018D01*
X-9281Y28966D01*
X-9245Y28909D01*
X-9190Y28858D01*
X-9141Y28801D01*
X-9085Y28763D01*
X-9034Y28718D01*
X-8967Y28685D01*
X-8904Y28643D01*
X-8840Y28623D01*
X-8779Y28593D01*
X-8705Y28580D01*
X-8633Y28558D01*
X-8566Y28556D01*
X-8499Y28544D01*
X-8437Y28553D01*
X-8349Y28550D01*
X-8240Y28579D01*
X-8166Y28589D01*
X-7561Y28775D01*
X-7550Y28780D01*
X-7539Y28783D01*
X-7422Y28841D01*
X-7304Y28896D01*
X-7295Y28904D01*
X-7284Y28909D01*
X-7240Y28952D01*
X-7178Y29007D01*
X-6535Y29104D01*
X-6450Y29129D01*
X-6387Y29137D01*
X-5767Y29329D01*
X-5679Y29297D01*
X-5667Y29296D01*
X-5656Y29292D01*
X-5595Y29291D01*
X-5395Y29278D01*
X-5354Y29287D01*
X-5321Y29287D01*
X-3309Y29590D01*
X-3298Y29593D01*
X-3286Y29594D01*
X-3161Y29634D01*
X-3036Y29671D01*
X-3026Y29678D01*
X-3015Y29681D01*
X-2965Y29717D01*
X-2896Y29762D01*
X-2246Y29762D01*
X-2158Y29774D01*
X-2094Y29773D01*
X-1453Y29870D01*
X-1370Y29825D01*
X-1359Y29823D01*
X-1348Y29817D01*
X-1288Y29807D01*
X-1092Y29765D01*
X-1051Y29767D01*
X-1017Y29762D01*
X1017Y29762D01*
X1029Y29763D01*
X1040Y29762D01*
X1170Y29783D01*
X1299Y29802D01*
X1309Y29806D01*
X1321Y29808D01*
X1376Y29836D01*
X1451Y29870D01*
X2094Y29773D01*
X2183Y29772D01*
X2246Y29762D01*
X2894Y29762D01*
X2969Y29705D01*
X2980Y29701D01*
X2990Y29694D01*
X3048Y29675D01*
X3235Y29604D01*
X3277Y29600D01*
X3309Y29590D01*
X5321Y29287D01*
X5332Y29287D01*
X5344Y29284D01*
X5474Y29285D01*
X5605Y29284D01*
X5616Y29287D01*
X5628Y29287D01*
X5686Y29307D01*
X5766Y29329D01*
X6387Y29137D01*
X6475Y29123D01*
X6535Y29104D01*
X7176Y29007D01*
X7242Y28940D01*
X7252Y28934D01*
X7261Y28926D01*
X7316Y28899D01*
X7490Y28800D01*
X7531Y28791D01*
X7561Y28775D01*
X9505Y28176D01*
X9517Y28174D01*
X9527Y28169D01*
X9657Y28151D01*
X9786Y28131D01*
X9797Y28132D01*
X9809Y28131D01*
X9869Y28141D01*
X9952Y28151D01*
X10537Y27869D01*
X10622Y27842D01*
X10679Y27814D01*
X11298Y27623D01*
X11354Y27546D01*
X11363Y27539D01*
X11370Y27530D01*
X11420Y27495D01*
X11578Y27371D01*
X11617Y27356D01*
X11644Y27336D01*
X13477Y26453D01*
X13488Y26450D01*
X13498Y26444D01*
X13624Y26407D01*
X13748Y26367D01*
X13760Y26367D01*
X13771Y26364D01*
X13832Y26365D01*
X13915Y26363D01*
X14452Y25996D01*
X14532Y25957D01*
X14584Y25921D01*
X15168Y25639D01*
X15211Y25556D01*
X15219Y25547D01*
X15225Y25537D01*
X15269Y25495D01*
X15407Y25349D01*
X15443Y25328D01*
X15467Y25305D01*
X17148Y24158D01*
X17159Y24153D01*
X17167Y24146D01*
X17285Y24091D01*
X17403Y24033D01*
X17415Y24031D01*
X17425Y24026D01*
X17486Y24018D01*
X17568Y24003D01*
X18044Y23561D01*
X18117Y23511D01*
X18163Y23467D01*
X18699Y23101D01*
X18729Y23012D01*
X18736Y23003D01*
X18740Y22992D01*
X18777Y22943D01*
X18892Y22779D01*
X18924Y22752D01*
X18945Y22726D01*
X20436Y21342D01*
X20446Y21335D01*
X20453Y21326D01*
X20500Y21295D01*
X20524Y21273D01*
X20567Y21251D01*
X20670Y21180D01*
X20681Y21176D01*
X20690Y21169D01*
X20750Y21152D01*
X20828Y21126D01*
X21233Y20618D01*
X21298Y20557D01*
X21337Y20506D01*
X21812Y20065D01*
X21829Y19973D01*
X21834Y19962D01*
X21836Y19951D01*
X21866Y19897D01*
X21955Y19718D01*
X21983Y19687D01*
X21999Y19657D01*
X23268Y18067D01*
X23276Y18059D01*
X23282Y18049D01*
X23380Y17961D01*
X23474Y17871D01*
X23485Y17866D01*
X23493Y17858D01*
X23549Y17833D01*
X23623Y17795D01*
X23948Y17232D01*
X24002Y17162D01*
X24033Y17106D01*
X24438Y16599D01*
X24440Y16505D01*
X24444Y16494D01*
X24445Y16483D01*
X24466Y16425D01*
X24527Y16235D01*
X24550Y16200D01*
X24562Y16168D01*
X25579Y14406D01*
X25587Y14397D01*
X25591Y14386D01*
X25674Y14285D01*
X25755Y14182D01*
X25764Y14175D01*
X25771Y14166D01*
X25823Y14133D01*
X25890Y14084D01*
X26128Y13479D01*
X26171Y13402D01*
X26194Y13342D01*
X26518Y12781D01*
X26506Y12687D01*
X26508Y12676D01*
X26507Y12664D01*
X26520Y12604D01*
X26552Y12407D01*
X26569Y12369D01*
X26576Y12336D01*
X27320Y10442D01*
X27326Y10432D01*
X27328Y10420D01*
X27395Y10308D01*
X27460Y10194D01*
X27468Y10186D01*
X27474Y10176D01*
X27520Y10135D01*
X27579Y10077D01*
X27724Y9444D01*
X27755Y9361D01*
X27768Y9299D01*
X28005Y8695D01*
X27980Y8604D01*
X27980Y8593D01*
X27977Y8581D01*
X27981Y8520D01*
X27983Y8320D01*
X27995Y8280D01*
X27997Y8246D01*
X28450Y6262D01*
X28454Y6252D01*
X28455Y6240D01*
X28505Y6118D01*
X28551Y5997D01*
X28558Y5988D01*
X28563Y5977D01*
X28602Y5929D01*
X28652Y5863D01*
X28700Y5215D01*
X28719Y5129D01*
X28723Y5065D01*
X28867Y4433D01*
X28829Y4347D01*
X28827Y4335D01*
X28823Y4325D01*
X28817Y4264D01*
X28789Y4065D01*
X28795Y4024D01*
X28792Y3991D01*
X28810Y3753D01*
X28814Y3733D01*
X28814Y3712D01*
X28845Y3594D01*
X28871Y3475D01*
X28881Y3457D01*
X28886Y3437D01*
X28948Y3333D01*
X29006Y3225D01*
X29021Y3210D01*
X29031Y3193D01*
X29120Y3109D01*
X29205Y3022D01*
X29223Y3012D01*
X29238Y2998D01*
X29347Y2943D01*
X29453Y2883D01*
X29473Y2878D01*
X29491Y2869D01*
X29565Y2856D01*
X29730Y2817D01*
X29782Y2820D01*
X29822Y2813D01*
X63739Y2813D01*
X63872Y2832D01*
X64006Y2849D01*
X64013Y2852D01*
X64020Y2853D01*
X64143Y2908D01*
X64267Y2961D01*
X64273Y2966D01*
X64280Y2969D01*
X64382Y3056D01*
X64487Y3142D01*
X64491Y3148D01*
X64497Y3153D01*
X64571Y3264D01*
X64648Y3376D01*
X64650Y3383D01*
X64654Y3390D01*
X64740Y3661D01*
X64741Y3681D01*
X64746Y3697D01*
X64931Y5121D01*
X65081Y5681D01*
X67774Y5681D01*
X67358Y3982D01*
X67356Y3948D01*
X67345Y3902D01*
X67102Y852D01*
X67106Y824D01*
X67101Y796D01*
X67118Y726D01*
X67126Y655D01*
X67141Y630D01*
X67147Y603D01*
X67190Y545D01*
X67226Y482D01*
X67248Y465D01*
X67265Y442D01*
X67327Y406D01*
X67384Y362D01*
X67412Y355D01*
X67436Y341D01*
X67536Y324D01*
X67577Y314D01*
X67587Y315D01*
X67600Y313D01*
X86600Y313D01*
X86676Y329D01*
G37*
G36*
X114767Y100791D02*
X114767Y100791D01*
X114882Y100789D01*
X114906Y100796D01*
X114937Y100797D01*
X115186Y100877D01*
X115204Y100882D01*
X115301Y100929D01*
X115374Y100978D01*
X115432Y101005D01*
X115968Y101370D01*
X116062Y101366D01*
X116073Y101369D01*
X116085Y101368D01*
X116144Y101385D01*
X116338Y101432D01*
X116375Y101453D01*
X116407Y101462D01*
X118242Y102347D01*
X118252Y102353D01*
X118263Y102357D01*
X118369Y102431D01*
X118478Y102505D01*
X118486Y102514D01*
X118495Y102520D01*
X118533Y102569D01*
X118586Y102632D01*
X119207Y102824D01*
X119287Y102862D01*
X119348Y102880D01*
X119933Y103161D01*
X120025Y103143D01*
X120036Y103144D01*
X120048Y103142D01*
X120109Y103150D01*
X120308Y103167D01*
X120347Y103182D01*
X120381Y103187D01*
X122327Y103788D01*
X122337Y103793D01*
X122349Y103795D01*
X122466Y103853D01*
X122584Y103909D01*
X122593Y103916D01*
X122603Y103922D01*
X122647Y103964D01*
X122710Y104019D01*
X123353Y104116D01*
X123438Y104142D01*
X123501Y104150D01*
X124120Y104341D01*
X124208Y104310D01*
X124220Y104309D01*
X124231Y104305D01*
X124293Y104304D01*
X124492Y104291D01*
X124533Y104300D01*
X124567Y104300D01*
X126581Y104604D01*
X126592Y104607D01*
X126604Y104608D01*
X126727Y104648D01*
X126853Y104685D01*
X126863Y104692D01*
X126874Y104695D01*
X126924Y104731D01*
X126994Y104776D01*
X127644Y104776D01*
X127732Y104788D01*
X127795Y104787D01*
X128437Y104884D01*
X128519Y104840D01*
X128531Y104837D01*
X128541Y104832D01*
X128602Y104822D01*
X128797Y104779D01*
X128839Y104782D01*
X128872Y104776D01*
X130909Y104777D01*
X130921Y104779D01*
X130932Y104777D01*
X131062Y104799D01*
X131191Y104817D01*
X131201Y104822D01*
X131213Y104824D01*
X131268Y104851D01*
X131343Y104885D01*
X131986Y104789D01*
X132075Y104788D01*
X132137Y104777D01*
X132786Y104778D01*
X132861Y104721D01*
X132872Y104717D01*
X132881Y104710D01*
X132940Y104691D01*
X133127Y104620D01*
X133169Y104616D01*
X133201Y104606D01*
X135215Y104303D01*
X135227Y104303D01*
X135238Y104300D01*
X135368Y104302D01*
X135499Y104301D01*
X135510Y104304D01*
X135522Y104304D01*
X135580Y104323D01*
X135660Y104346D01*
X136282Y104154D01*
X136369Y104140D01*
X136429Y104120D01*
X137071Y104024D01*
X137137Y103957D01*
X137147Y103951D01*
X137155Y103943D01*
X137210Y103915D01*
X137384Y103817D01*
X137425Y103808D01*
X137455Y103793D01*
X139402Y103193D01*
X139413Y103191D01*
X139424Y103186D01*
X139553Y103169D01*
X139683Y103148D01*
X139694Y103149D01*
X139706Y103148D01*
X139766Y103158D01*
X139849Y103168D01*
X140434Y102887D01*
X140519Y102860D01*
X140575Y102831D01*
X141195Y102640D01*
X141250Y102564D01*
X141260Y102557D01*
X141267Y102548D01*
X141317Y102512D01*
X141475Y102389D01*
X141513Y102373D01*
X141541Y102354D01*
X141766Y102246D01*
X141786Y102239D01*
X141803Y102229D01*
X141921Y102196D01*
X142037Y102159D01*
X142057Y102159D01*
X142077Y102153D01*
X142199Y102155D01*
X142321Y102152D01*
X142341Y102157D01*
X142361Y102157D01*
X142478Y102192D01*
X142596Y102223D01*
X142614Y102233D01*
X142633Y102239D01*
X142736Y102306D01*
X142841Y102368D01*
X142855Y102383D01*
X142872Y102394D01*
X142919Y102451D01*
X143036Y102575D01*
X143059Y102621D01*
X143086Y102653D01*
X160020Y131985D01*
X160070Y132109D01*
X160122Y132233D01*
X160123Y132241D01*
X160126Y132249D01*
X160140Y132381D01*
X160156Y132515D01*
X160155Y132524D01*
X160155Y132532D01*
X160132Y132663D01*
X160110Y132796D01*
X160106Y132803D01*
X160105Y132811D01*
X160046Y132931D01*
X159988Y133053D01*
X159983Y133058D01*
X159979Y133066D01*
X159787Y133276D01*
X159770Y133286D01*
X159759Y133298D01*
X159128Y133783D01*
X158628Y134166D01*
X158222Y134572D01*
X156580Y136214D01*
X154817Y138512D01*
X153369Y141020D01*
X152261Y143696D01*
X151511Y146493D01*
X151210Y148781D01*
X153811Y148781D01*
X154235Y146173D01*
X154247Y146141D01*
X154254Y146095D01*
X155225Y143186D01*
X155242Y143157D01*
X155256Y143113D01*
X156681Y140398D01*
X156703Y140371D01*
X156724Y140330D01*
X158566Y137878D01*
X158591Y137856D01*
X158619Y137818D01*
X160831Y135694D01*
X160859Y135676D01*
X160893Y135643D01*
X163416Y133902D01*
X163443Y133890D01*
X163465Y133872D01*
X163534Y133852D01*
X163599Y133824D01*
X163628Y133823D01*
X163656Y133815D01*
X163727Y133823D01*
X163798Y133823D01*
X163825Y133834D01*
X163854Y133837D01*
X163916Y133873D01*
X163981Y133900D01*
X164002Y133921D01*
X164027Y133935D01*
X164090Y134012D01*
X164120Y134043D01*
X164124Y134053D01*
X164133Y134063D01*
X173633Y150563D01*
X173643Y150595D01*
X173652Y150608D01*
X173656Y150633D01*
X173657Y150636D01*
X173688Y150707D01*
X173688Y150730D01*
X173696Y150752D01*
X173690Y150829D01*
X173691Y150906D01*
X173681Y150930D01*
X173680Y150950D01*
X173659Y150990D01*
X173633Y151062D01*
X164133Y167562D01*
X164114Y167583D01*
X164101Y167610D01*
X164048Y167657D01*
X164001Y167711D01*
X163975Y167723D01*
X163954Y167743D01*
X163886Y167766D01*
X163822Y167797D01*
X163793Y167798D01*
X163766Y167807D01*
X163694Y167803D01*
X163623Y167806D01*
X163596Y167796D01*
X163567Y167794D01*
X163477Y167751D01*
X163437Y167737D01*
X163429Y167729D01*
X163416Y167723D01*
X160893Y165982D01*
X160869Y165957D01*
X160831Y165931D01*
X158619Y163807D01*
X158600Y163779D01*
X158566Y163747D01*
X156724Y161295D01*
X156710Y161265D01*
X156681Y161227D01*
X155256Y158512D01*
X155247Y158481D01*
X155231Y158456D01*
X155230Y158448D01*
X155225Y158439D01*
X154254Y155530D01*
X154250Y155496D01*
X154235Y155452D01*
X153811Y152844D01*
X151210Y152844D01*
X151511Y155132D01*
X152261Y157929D01*
X153369Y160605D01*
X154817Y163113D01*
X156580Y165411D01*
X158628Y167459D01*
X159759Y168327D01*
X159853Y168422D01*
X159948Y168517D01*
X159952Y168524D01*
X159958Y168530D01*
X160022Y168648D01*
X160087Y168765D01*
X160089Y168773D01*
X160093Y168780D01*
X160122Y168911D01*
X160152Y169041D01*
X160152Y169050D01*
X160153Y169058D01*
X160145Y169190D01*
X160138Y169325D01*
X160135Y169332D01*
X160134Y169341D01*
X160038Y169608D01*
X160026Y169624D01*
X160020Y169640D01*
X143086Y198972D01*
X143073Y198988D01*
X143065Y199007D01*
X142986Y199100D01*
X142910Y199196D01*
X142894Y199208D01*
X142881Y199223D01*
X142779Y199291D01*
X142680Y199363D01*
X142661Y199369D01*
X142644Y199381D01*
X142528Y199417D01*
X142412Y199459D01*
X142392Y199460D01*
X142373Y199466D01*
X142251Y199469D01*
X142129Y199477D01*
X142109Y199472D01*
X142089Y199473D01*
X142017Y199452D01*
X141851Y199416D01*
X141806Y199391D01*
X141766Y199379D01*
X141541Y199271D01*
X141531Y199265D01*
X141520Y199261D01*
X141414Y199186D01*
X141305Y199113D01*
X141297Y199104D01*
X141287Y199098D01*
X141250Y199048D01*
X141197Y198985D01*
X140575Y198794D01*
X140495Y198756D01*
X140434Y198738D01*
X139850Y198457D01*
X139758Y198476D01*
X139746Y198475D01*
X139735Y198477D01*
X139674Y198469D01*
X139474Y198452D01*
X139435Y198437D01*
X139402Y198432D01*
X137455Y197832D01*
X137445Y197828D01*
X137433Y197825D01*
X137316Y197767D01*
X137198Y197712D01*
X137189Y197704D01*
X137179Y197699D01*
X137134Y197656D01*
X137072Y197601D01*
X136429Y197505D01*
X136345Y197479D01*
X136282Y197471D01*
X135662Y197280D01*
X135573Y197312D01*
X135562Y197313D01*
X135551Y197316D01*
X135489Y197317D01*
X135290Y197330D01*
X135249Y197321D01*
X135215Y197322D01*
X133655Y197087D01*
X133535Y197052D01*
X133415Y197020D01*
X133399Y197011D01*
X133383Y197006D01*
X133277Y196939D01*
X133170Y196875D01*
X133158Y196862D01*
X133143Y196853D01*
X133061Y196759D01*
X132976Y196668D01*
X132968Y196652D01*
X132956Y196639D01*
X132903Y196526D01*
X132846Y196414D01*
X132844Y196399D01*
X132835Y196381D01*
X132791Y196100D01*
X132792Y196091D01*
X132791Y196083D01*
X132791Y189510D01*
X125076Y181795D01*
X125023Y181725D01*
X124963Y181661D01*
X124938Y181612D01*
X124905Y181568D01*
X124874Y181486D01*
X124834Y181408D01*
X124826Y181361D01*
X124803Y181302D01*
X124791Y181154D01*
X124778Y181077D01*
X124778Y113248D01*
X114045Y102515D01*
X113977Y102424D01*
X113903Y102336D01*
X113891Y102310D01*
X113874Y102288D01*
X113834Y102181D01*
X113787Y102076D01*
X113783Y102048D01*
X113773Y102022D01*
X113764Y101908D01*
X113748Y101795D01*
X113752Y101767D01*
X113750Y101739D01*
X113772Y101627D01*
X113788Y101513D01*
X113800Y101487D01*
X113806Y101460D01*
X113858Y101358D01*
X113905Y101254D01*
X113924Y101233D01*
X113937Y101208D01*
X114015Y101125D01*
X114089Y101037D01*
X114113Y101022D01*
X114132Y101001D01*
X114231Y100944D01*
X114326Y100880D01*
X114353Y100872D01*
X114378Y100858D01*
X114488Y100829D01*
X114598Y100795D01*
X114626Y100795D01*
X114653Y100788D01*
X114767Y100791D01*
G37*
G36*
X131941Y198380D02*
X131941Y198380D01*
X131984Y198379D01*
X135977Y198979D01*
X136007Y198990D01*
X136050Y198996D01*
X139909Y200185D01*
X139937Y200200D01*
X139978Y200212D01*
X143616Y201963D01*
X143638Y201979D01*
X143664Y201989D01*
X143717Y202039D01*
X143775Y202083D01*
X143788Y202106D01*
X143808Y202125D01*
X143838Y202192D01*
X143874Y202255D01*
X143877Y202282D01*
X143888Y202307D01*
X143889Y202380D01*
X143898Y202453D01*
X143890Y202479D01*
X143890Y202506D01*
X143854Y202605D01*
X143842Y202644D01*
X143836Y202651D01*
X143832Y202662D01*
X116832Y249462D01*
X116814Y249482D01*
X116803Y249507D01*
X116749Y249556D01*
X116701Y249611D01*
X116676Y249623D01*
X116656Y249641D01*
X116587Y249665D01*
X116521Y249697D01*
X116494Y249698D01*
X116469Y249707D01*
X116396Y249702D01*
X116323Y249706D01*
X116297Y249696D01*
X116270Y249695D01*
X116174Y249651D01*
X116136Y249636D01*
X116129Y249630D01*
X116119Y249625D01*
X112782Y247352D01*
X112760Y247329D01*
X112724Y247305D01*
X109763Y244560D01*
X109744Y244534D01*
X109712Y244505D01*
X107194Y241349D01*
X107179Y241321D01*
X107152Y241288D01*
X105132Y237791D01*
X105122Y237761D01*
X105099Y237724D01*
X103623Y233966D01*
X103618Y233935D01*
X103601Y233895D01*
X102701Y229959D01*
X102701Y229927D01*
X102690Y229885D01*
X102387Y225859D01*
X102390Y225835D01*
X102387Y225815D01*
X102389Y225806D01*
X102387Y225784D01*
X102688Y221758D01*
X102696Y221727D01*
X102699Y221684D01*
X103596Y217747D01*
X103609Y217718D01*
X103618Y217676D01*
X105092Y213917D01*
X105109Y213890D01*
X105124Y213849D01*
X107142Y210352D01*
X107163Y210328D01*
X107184Y210290D01*
X109700Y207133D01*
X109725Y207112D01*
X109751Y207078D01*
X112710Y204331D01*
X112737Y204314D01*
X112768Y204284D01*
X116104Y202009D01*
X116133Y201996D01*
X116168Y201971D01*
X119806Y200218D01*
X119836Y200211D01*
X119875Y200191D01*
X123733Y199000D01*
X123765Y198997D01*
X123806Y198983D01*
X127798Y198380D01*
X127830Y198382D01*
X127872Y198374D01*
X131910Y198373D01*
X131941Y198380D01*
G37*
G36*
X-127872Y198374D02*
X-127872Y198374D01*
X-127841Y198381D01*
X-127798Y198380D01*
X-123806Y198983D01*
X-123776Y198994D01*
X-123733Y199000D01*
X-119875Y200191D01*
X-119847Y200206D01*
X-119806Y200218D01*
X-116168Y201971D01*
X-116143Y201991D01*
X-116104Y202009D01*
X-112768Y204284D01*
X-112746Y204307D01*
X-112710Y204331D01*
X-109751Y207078D01*
X-109732Y207104D01*
X-109700Y207133D01*
X-107184Y210290D01*
X-107169Y210319D01*
X-107142Y210352D01*
X-105124Y213849D01*
X-105114Y213880D01*
X-105092Y213917D01*
X-103618Y217676D01*
X-103612Y217707D01*
X-103596Y217747D01*
X-102699Y221684D01*
X-102698Y221716D01*
X-102688Y221758D01*
X-102387Y225784D01*
X-102391Y225816D01*
X-102390Y225832D01*
X-102387Y225848D01*
X-102388Y225852D01*
X-102387Y225859D01*
X-102690Y229885D01*
X-102699Y229916D01*
X-102701Y229959D01*
X-103601Y233895D01*
X-103614Y233924D01*
X-103623Y233966D01*
X-105099Y237724D01*
X-105117Y237751D01*
X-105132Y237791D01*
X-107152Y241288D01*
X-107173Y241311D01*
X-107194Y241349D01*
X-109712Y244505D01*
X-109737Y244526D01*
X-109763Y244560D01*
X-112724Y247305D01*
X-112751Y247322D01*
X-112782Y247352D01*
X-116119Y249625D01*
X-116144Y249636D01*
X-116165Y249653D01*
X-116235Y249674D01*
X-116302Y249702D01*
X-116330Y249702D01*
X-116356Y249710D01*
X-116428Y249702D01*
X-116501Y249701D01*
X-116526Y249691D01*
X-116553Y249688D01*
X-116617Y249652D01*
X-116684Y249623D01*
X-116703Y249604D01*
X-116726Y249590D01*
X-116794Y249509D01*
X-116822Y249480D01*
X-116825Y249471D01*
X-116832Y249462D01*
X-143832Y202662D01*
X-143841Y202636D01*
X-143857Y202614D01*
X-143872Y202543D01*
X-143896Y202473D01*
X-143893Y202446D01*
X-143899Y202420D01*
X-143886Y202348D01*
X-143880Y202275D01*
X-143867Y202251D01*
X-143862Y202224D01*
X-143822Y202164D01*
X-143788Y202099D01*
X-143767Y202081D01*
X-143752Y202059D01*
X-143666Y201998D01*
X-143635Y201972D01*
X-143626Y201969D01*
X-143616Y201963D01*
X-139978Y200212D01*
X-139947Y200204D01*
X-139909Y200185D01*
X-136050Y198996D01*
X-136018Y198993D01*
X-135977Y198979D01*
X-131984Y198379D01*
X-131953Y198380D01*
X-131910Y198373D01*
X-127872Y198374D01*
G37*
G36*
X116428Y51923D02*
X116428Y51923D01*
X116501Y51924D01*
X116526Y51934D01*
X116553Y51937D01*
X116617Y51973D01*
X116684Y52002D01*
X116703Y52021D01*
X116726Y52035D01*
X116794Y52116D01*
X116822Y52145D01*
X116825Y52154D01*
X116832Y52163D01*
X143832Y98963D01*
X143841Y98989D01*
X143857Y99011D01*
X143872Y99082D01*
X143896Y99152D01*
X143893Y99179D01*
X143899Y99205D01*
X143886Y99277D01*
X143880Y99350D01*
X143867Y99374D01*
X143862Y99401D01*
X143822Y99462D01*
X143788Y99526D01*
X143767Y99544D01*
X143752Y99566D01*
X143666Y99627D01*
X143635Y99653D01*
X143626Y99656D01*
X143616Y99662D01*
X139978Y101413D01*
X139947Y101421D01*
X139909Y101440D01*
X136050Y102629D01*
X136018Y102632D01*
X135977Y102646D01*
X131984Y103246D01*
X131953Y103245D01*
X131910Y103252D01*
X127872Y103251D01*
X127841Y103244D01*
X127798Y103245D01*
X123806Y102642D01*
X123776Y102631D01*
X123733Y102625D01*
X119875Y101434D01*
X119847Y101419D01*
X119806Y101407D01*
X116168Y99654D01*
X116143Y99634D01*
X116104Y99616D01*
X112768Y97341D01*
X112746Y97318D01*
X112710Y97294D01*
X109751Y94547D01*
X109732Y94521D01*
X109700Y94492D01*
X107184Y91335D01*
X107169Y91306D01*
X107142Y91273D01*
X105124Y87776D01*
X105114Y87745D01*
X105092Y87708D01*
X103618Y83949D01*
X103612Y83918D01*
X103596Y83878D01*
X102699Y79941D01*
X102698Y79909D01*
X102688Y79867D01*
X102387Y75841D01*
X102391Y75809D01*
X102387Y75766D01*
X102690Y71740D01*
X102699Y71709D01*
X102701Y71666D01*
X103601Y67730D01*
X103614Y67701D01*
X103623Y67659D01*
X105099Y63901D01*
X105117Y63874D01*
X105132Y63834D01*
X107152Y60338D01*
X107173Y60314D01*
X107194Y60276D01*
X109712Y57120D01*
X109737Y57100D01*
X109763Y57065D01*
X112724Y54320D01*
X112751Y54303D01*
X112782Y54273D01*
X116119Y52000D01*
X116144Y51989D01*
X116165Y51972D01*
X116235Y51951D01*
X116302Y51923D01*
X116330Y51923D01*
X116356Y51915D01*
X116428Y51923D01*
G37*
G36*
X-116396Y51923D02*
X-116396Y51923D01*
X-116323Y51919D01*
X-116297Y51929D01*
X-116270Y51930D01*
X-116174Y51974D01*
X-116136Y51989D01*
X-116129Y51995D01*
X-116119Y52000D01*
X-112782Y54273D01*
X-112760Y54296D01*
X-112724Y54320D01*
X-109763Y57065D01*
X-109744Y57091D01*
X-109712Y57120D01*
X-107194Y60276D01*
X-107179Y60304D01*
X-107152Y60338D01*
X-105132Y63834D01*
X-105122Y63864D01*
X-105099Y63901D01*
X-103623Y67659D01*
X-103618Y67690D01*
X-103601Y67730D01*
X-102701Y71666D01*
X-102701Y71698D01*
X-102690Y71740D01*
X-102387Y75766D01*
X-102391Y75798D01*
X-102387Y75841D01*
X-102688Y79867D01*
X-102696Y79898D01*
X-102699Y79941D01*
X-103596Y83878D01*
X-103609Y83907D01*
X-103618Y83949D01*
X-105092Y87708D01*
X-105109Y87735D01*
X-105124Y87776D01*
X-107142Y91273D01*
X-107163Y91297D01*
X-107184Y91335D01*
X-109700Y94492D01*
X-109725Y94513D01*
X-109751Y94547D01*
X-112710Y97294D01*
X-112737Y97311D01*
X-112768Y97341D01*
X-116104Y99616D01*
X-116133Y99629D01*
X-116168Y99654D01*
X-119806Y101407D01*
X-119836Y101414D01*
X-119875Y101434D01*
X-123733Y102625D01*
X-123765Y102628D01*
X-123806Y102642D01*
X-127798Y103245D01*
X-127830Y103243D01*
X-127872Y103251D01*
X-131910Y103252D01*
X-131941Y103246D01*
X-131984Y103246D01*
X-135977Y102646D01*
X-136007Y102635D01*
X-136050Y102629D01*
X-139909Y101440D01*
X-139937Y101425D01*
X-139978Y101413D01*
X-143616Y99662D01*
X-143638Y99646D01*
X-143664Y99636D01*
X-143717Y99586D01*
X-143775Y99542D01*
X-143788Y99519D01*
X-143808Y99500D01*
X-143838Y99433D01*
X-143874Y99370D01*
X-143877Y99343D01*
X-143888Y99318D01*
X-143889Y99245D01*
X-143898Y99172D01*
X-143890Y99146D01*
X-143890Y99119D01*
X-143854Y99020D01*
X-143842Y98981D01*
X-143836Y98974D01*
X-143832Y98963D01*
X-116832Y52163D01*
X-116814Y52143D01*
X-116803Y52118D01*
X-116749Y52069D01*
X-116701Y52014D01*
X-116676Y52002D01*
X-116656Y51984D01*
X-116587Y51960D01*
X-116521Y51928D01*
X-116494Y51927D01*
X-116469Y51918D01*
X-116396Y51923D01*
G37*
G36*
X27027Y319D02*
X27027Y319D01*
X27054Y316D01*
X27123Y338D01*
X27195Y353D01*
X27217Y368D01*
X27243Y377D01*
X27299Y424D01*
X27359Y465D01*
X27373Y488D01*
X27394Y506D01*
X27427Y571D01*
X27466Y633D01*
X27470Y660D01*
X27482Y684D01*
X27492Y789D01*
X27499Y829D01*
X27497Y838D01*
X27498Y850D01*
X27196Y4874D01*
X27188Y4905D01*
X27185Y4948D01*
X26287Y8882D01*
X26274Y8911D01*
X26265Y8953D01*
X24791Y12710D01*
X24774Y12737D01*
X24759Y12777D01*
X22741Y16272D01*
X22720Y16296D01*
X22699Y16333D01*
X20183Y19488D01*
X20158Y19509D01*
X20132Y19543D01*
X17174Y22288D01*
X17147Y22304D01*
X17115Y22334D01*
X13781Y24608D01*
X13752Y24620D01*
X13717Y24645D01*
X10081Y26396D01*
X10050Y26404D01*
X10011Y26423D01*
X6155Y27613D01*
X6124Y27616D01*
X6082Y27629D01*
X2092Y28231D01*
X2060Y28229D01*
X2018Y28236D01*
X-2018Y28236D01*
X-2049Y28230D01*
X-2092Y28231D01*
X-6082Y27629D01*
X-6112Y27618D01*
X-6155Y27613D01*
X-10011Y26423D01*
X-10039Y26408D01*
X-10081Y26396D01*
X-13717Y24645D01*
X-13742Y24626D01*
X-13781Y24608D01*
X-17115Y22334D01*
X-17138Y22312D01*
X-17174Y22288D01*
X-20132Y19543D01*
X-20151Y19517D01*
X-20183Y19488D01*
X-22699Y16333D01*
X-22713Y16305D01*
X-22741Y16272D01*
X-24759Y12777D01*
X-24769Y12747D01*
X-24791Y12710D01*
X-26265Y8953D01*
X-26271Y8922D01*
X-26287Y8882D01*
X-27185Y4948D01*
X-27186Y4916D01*
X-27196Y4874D01*
X-27498Y850D01*
X-27494Y823D01*
X-27499Y796D01*
X-27482Y725D01*
X-27473Y653D01*
X-27459Y629D01*
X-27453Y603D01*
X-27410Y544D01*
X-27373Y481D01*
X-27351Y464D01*
X-27335Y442D01*
X-27272Y405D01*
X-27214Y361D01*
X-27187Y355D01*
X-27164Y341D01*
X-27060Y323D01*
X-27021Y314D01*
X-27011Y315D01*
X-27000Y313D01*
X27000Y313D01*
X27027Y319D01*
G37*
G36*
X-38023Y130612D02*
X-38023Y130612D01*
X-37936Y130615D01*
X-37883Y130632D01*
X-37829Y130640D01*
X-37749Y130676D01*
X-37666Y130702D01*
X-37626Y130731D01*
X-37569Y130756D01*
X-37456Y130852D01*
X-37392Y130897D01*
X-37182Y131108D01*
X-31317Y131108D01*
X-31259Y131116D01*
X-31201Y131115D01*
X-31119Y131136D01*
X-31035Y131148D01*
X-30982Y131172D01*
X-30926Y131186D01*
X-30853Y131230D01*
X-30776Y131264D01*
X-30731Y131302D01*
X-30681Y131332D01*
X-30623Y131393D01*
X-30559Y131448D01*
X-30527Y131496D01*
X-30487Y131539D01*
X-30448Y131614D01*
X-30401Y131684D01*
X-30384Y131740D01*
X-30357Y131792D01*
X-30346Y131860D01*
X-30316Y131955D01*
X-30313Y132055D01*
X-30302Y132123D01*
X-30302Y137988D01*
X-29409Y138881D01*
X-25567Y138881D01*
X-25565Y138880D01*
X-25497Y138829D01*
X-25443Y138808D01*
X-25392Y138779D01*
X-25310Y138758D01*
X-25232Y138728D01*
X-25173Y138723D01*
X-25117Y138709D01*
X-25032Y138711D01*
X-24948Y138704D01*
X-24891Y138716D01*
X-24832Y138718D01*
X-24752Y138744D01*
X-24670Y138760D01*
X-24618Y138787D01*
X-24562Y138805D01*
X-24506Y138845D01*
X-24437Y138881D01*
X-20566Y138881D01*
X-20563Y138879D01*
X-20496Y138829D01*
X-20441Y138808D01*
X-20391Y138778D01*
X-20309Y138757D01*
X-20230Y138727D01*
X-20172Y138722D01*
X-20115Y138708D01*
X-20031Y138711D01*
X-19947Y138704D01*
X-19889Y138715D01*
X-19831Y138717D01*
X-19751Y138743D01*
X-19668Y138760D01*
X-19616Y138787D01*
X-19560Y138805D01*
X-19504Y138845D01*
X-19416Y138890D01*
X-19343Y138905D01*
X-19231Y138921D01*
X-19204Y138933D01*
X-19176Y138939D01*
X-19075Y138991D01*
X-18972Y139037D01*
X-18949Y139056D01*
X-18923Y139070D01*
X-18841Y139147D01*
X-18755Y139221D01*
X-18738Y139245D01*
X-18717Y139265D01*
X-18660Y139363D01*
X-18597Y139457D01*
X-18588Y139485D01*
X-18573Y139511D01*
X-18546Y139620D01*
X-18511Y139728D01*
X-18511Y139758D01*
X-18503Y139786D01*
X-18507Y139899D01*
X-18504Y140013D01*
X-18511Y140041D01*
X-18512Y140070D01*
X-18547Y140178D01*
X-18576Y140288D01*
X-18591Y140313D01*
X-18600Y140341D01*
X-18645Y140405D01*
X-18721Y140532D01*
X-18767Y140575D01*
X-18795Y140614D01*
X-26258Y148077D01*
X-26327Y148129D01*
X-26391Y148189D01*
X-26441Y148215D01*
X-26485Y148248D01*
X-26566Y148279D01*
X-26644Y148319D01*
X-26692Y148327D01*
X-26750Y148349D01*
X-26898Y148361D01*
X-26975Y148374D01*
X-38507Y148374D01*
X-38564Y148366D01*
X-38623Y148368D01*
X-38704Y148346D01*
X-38788Y148334D01*
X-38841Y148311D01*
X-38898Y148296D01*
X-38970Y148253D01*
X-39047Y148218D01*
X-39092Y148180D01*
X-39142Y148151D01*
X-39200Y148089D01*
X-39264Y148035D01*
X-39297Y147986D01*
X-39337Y147943D01*
X-39375Y147868D01*
X-39422Y147798D01*
X-39440Y147742D01*
X-39466Y147690D01*
X-39478Y147622D01*
X-39508Y147527D01*
X-39510Y147427D01*
X-39522Y147359D01*
X-39522Y144906D01*
X-46046Y144906D01*
X-46104Y144898D01*
X-46163Y144899D01*
X-46244Y144878D01*
X-46328Y144866D01*
X-46381Y144842D01*
X-46438Y144828D01*
X-46510Y144785D01*
X-46587Y144750D01*
X-46632Y144712D01*
X-46682Y144682D01*
X-46740Y144621D01*
X-46804Y144566D01*
X-46837Y144518D01*
X-46877Y144475D01*
X-46915Y144400D01*
X-46962Y144330D01*
X-46980Y144274D01*
X-47006Y144222D01*
X-47018Y144154D01*
X-47048Y144059D01*
X-47050Y143959D01*
X-47062Y143891D01*
X-47062Y142874D01*
X-47063Y142874D01*
X-47063Y143891D01*
X-47072Y143949D01*
X-47070Y144007D01*
X-47091Y144089D01*
X-47103Y144172D01*
X-47127Y144226D01*
X-47142Y144282D01*
X-47185Y144355D01*
X-47219Y144432D01*
X-47257Y144476D01*
X-47287Y144527D01*
X-47349Y144584D01*
X-47403Y144649D01*
X-47452Y144681D01*
X-47494Y144721D01*
X-47570Y144760D01*
X-47640Y144806D01*
X-47696Y144824D01*
X-47748Y144851D01*
X-47816Y144862D01*
X-47911Y144892D01*
X-48011Y144895D01*
X-48079Y144906D01*
X-54603Y144906D01*
X-54603Y148709D01*
X-54430Y149356D01*
X-54277Y149620D01*
X-54252Y149683D01*
X-54217Y149742D01*
X-54199Y149814D01*
X-54171Y149884D01*
X-54164Y149952D01*
X-54147Y150018D01*
X-54150Y150092D01*
X-54142Y150167D01*
X-54154Y150234D01*
X-54156Y150302D01*
X-54179Y150373D01*
X-54193Y150446D01*
X-54223Y150507D01*
X-54244Y150572D01*
X-54280Y150623D01*
X-54319Y150701D01*
X-54396Y150785D01*
X-54439Y150846D01*
X-84077Y180484D01*
X-84146Y180535D01*
X-84208Y180594D01*
X-84259Y180621D01*
X-84304Y180655D01*
X-84384Y180685D01*
X-84461Y180725D01*
X-84517Y180736D01*
X-84570Y180756D01*
X-84655Y180763D01*
X-84740Y180780D01*
X-84796Y180775D01*
X-84853Y180780D01*
X-84937Y180763D01*
X-85023Y180755D01*
X-85076Y180735D01*
X-85132Y180724D01*
X-85208Y180684D01*
X-85288Y180653D01*
X-85334Y180619D01*
X-85384Y180593D01*
X-85447Y180533D01*
X-85515Y180482D01*
X-85549Y180436D01*
X-85590Y180397D01*
X-85634Y180323D01*
X-85685Y180254D01*
X-85705Y180201D01*
X-85734Y180152D01*
X-85755Y180068D01*
X-85786Y179988D01*
X-85790Y179931D01*
X-85804Y179876D01*
X-85801Y179790D01*
X-85808Y179705D01*
X-85797Y179656D01*
X-85795Y179592D01*
X-85751Y179454D01*
X-85733Y179377D01*
X-84518Y176444D01*
X-84518Y172806D01*
X-85910Y169445D01*
X-88482Y166872D01*
X-90749Y165934D01*
X-90750Y165933D01*
X-90752Y165932D01*
X-90872Y165861D01*
X-90994Y165789D01*
X-90995Y165788D01*
X-90996Y165787D01*
X-91094Y165683D01*
X-91189Y165582D01*
X-91190Y165581D01*
X-91191Y165580D01*
X-91257Y165451D01*
X-91319Y165330D01*
X-91320Y165328D01*
X-91320Y165327D01*
X-91323Y165312D01*
X-91374Y165051D01*
X-91372Y165020D01*
X-91376Y164996D01*
X-91376Y158854D01*
X-91376Y158853D01*
X-91376Y158851D01*
X-91356Y158711D01*
X-91336Y158573D01*
X-91335Y158571D01*
X-91335Y158570D01*
X-91278Y158444D01*
X-91220Y158313D01*
X-91219Y158312D01*
X-91218Y158311D01*
X-91125Y158202D01*
X-91036Y158096D01*
X-91035Y158096D01*
X-91034Y158094D01*
X-91021Y158086D01*
X-90799Y157939D01*
X-90770Y157930D01*
X-90749Y157916D01*
X-88482Y156978D01*
X-85910Y154405D01*
X-84518Y151044D01*
X-84518Y147406D01*
X-84866Y146566D01*
X-84895Y146454D01*
X-84929Y146345D01*
X-84930Y146317D01*
X-84937Y146290D01*
X-84934Y146176D01*
X-84937Y146061D01*
X-84929Y146034D01*
X-84929Y146006D01*
X-84894Y145897D01*
X-84865Y145786D01*
X-84851Y145762D01*
X-84842Y145735D01*
X-84778Y145640D01*
X-84719Y145541D01*
X-84699Y145522D01*
X-84684Y145499D01*
X-84596Y145425D01*
X-84512Y145347D01*
X-84487Y145334D01*
X-84466Y145316D01*
X-84361Y145270D01*
X-84259Y145217D01*
X-84234Y145213D01*
X-84206Y145201D01*
X-83943Y145164D01*
X-83928Y145162D01*
X-71602Y145162D01*
X-71545Y145170D01*
X-71486Y145168D01*
X-71405Y145190D01*
X-71321Y145202D01*
X-71268Y145225D01*
X-71211Y145240D01*
X-71139Y145283D01*
X-71062Y145318D01*
X-71017Y145356D01*
X-70967Y145385D01*
X-70909Y145447D01*
X-70845Y145501D01*
X-70812Y145550D01*
X-70772Y145593D01*
X-70734Y145668D01*
X-70687Y145738D01*
X-70669Y145794D01*
X-70643Y145846D01*
X-70631Y145914D01*
X-70601Y146009D01*
X-70599Y146109D01*
X-70587Y146177D01*
X-70587Y149007D01*
X-69694Y149900D01*
X-58431Y149900D01*
X-57538Y149007D01*
X-57538Y140005D01*
X-57526Y139918D01*
X-57523Y139831D01*
X-57506Y139778D01*
X-57498Y139723D01*
X-57462Y139643D01*
X-57435Y139560D01*
X-57407Y139521D01*
X-57382Y139464D01*
X-57286Y139351D01*
X-57240Y139287D01*
X-56336Y138383D01*
X-56313Y138365D01*
X-56294Y138343D01*
X-56200Y138280D01*
X-56109Y138212D01*
X-56082Y138201D01*
X-56057Y138185D01*
X-55949Y138151D01*
X-55844Y138111D01*
X-55814Y138108D01*
X-55786Y138099D01*
X-55673Y138096D01*
X-55560Y138087D01*
X-55532Y138093D01*
X-55502Y138092D01*
X-55393Y138121D01*
X-55281Y138143D01*
X-55255Y138157D01*
X-55227Y138164D01*
X-55130Y138222D01*
X-55029Y138274D01*
X-55008Y138294D01*
X-54983Y138309D01*
X-54905Y138392D01*
X-54823Y138470D01*
X-54808Y138495D01*
X-54788Y138516D01*
X-54737Y138617D01*
X-54679Y138715D01*
X-54672Y138743D01*
X-54659Y138770D01*
X-54646Y138847D01*
X-54609Y138991D01*
X-54611Y139053D01*
X-54603Y139101D01*
X-54603Y140844D01*
X-49094Y140844D01*
X-49094Y134834D01*
X-50337Y134834D01*
X-50366Y134830D01*
X-50395Y134833D01*
X-50506Y134810D01*
X-50618Y134794D01*
X-50645Y134782D01*
X-50674Y134777D01*
X-50775Y134724D01*
X-50878Y134678D01*
X-50900Y134659D01*
X-50926Y134646D01*
X-51008Y134568D01*
X-51095Y134495D01*
X-51111Y134470D01*
X-51132Y134450D01*
X-51189Y134352D01*
X-51252Y134258D01*
X-51261Y134230D01*
X-51276Y134205D01*
X-51304Y134095D01*
X-51338Y133987D01*
X-51339Y133957D01*
X-51346Y133929D01*
X-51342Y133816D01*
X-51345Y133703D01*
X-51338Y133674D01*
X-51337Y133645D01*
X-51302Y133537D01*
X-51274Y133428D01*
X-51259Y133402D01*
X-51250Y133374D01*
X-51204Y133311D01*
X-51128Y133183D01*
X-51093Y133150D01*
X-51090Y133145D01*
X-51078Y133133D01*
X-51055Y133101D01*
X-48851Y130897D01*
X-48781Y130845D01*
X-48717Y130785D01*
X-48668Y130760D01*
X-48624Y130726D01*
X-48542Y130695D01*
X-48464Y130655D01*
X-48417Y130648D01*
X-48358Y130625D01*
X-48210Y130613D01*
X-48133Y130600D01*
X-38110Y130600D01*
X-38023Y130612D01*
G37*
%LPC*%
G36*
X-1989Y263049D02*
X-1989Y263049D01*
X-5665Y264572D01*
X-8478Y267385D01*
X-10001Y271061D01*
X-10001Y275039D01*
X-8478Y278715D01*
X-5665Y281528D01*
X-1989Y283051D01*
X1989Y283051D01*
X5665Y281528D01*
X8478Y278715D01*
X10001Y275039D01*
X10001Y271061D01*
X8478Y267385D01*
X5665Y264572D01*
X1989Y263049D01*
X-1989Y263049D01*
G37*
%LPD*%
%LPC*%
G36*
X-1989Y193049D02*
X-1989Y193049D01*
X-5665Y194572D01*
X-8478Y197385D01*
X-10001Y201061D01*
X-10001Y205039D01*
X-8478Y208715D01*
X-5665Y211528D01*
X-1989Y213051D01*
X1989Y213051D01*
X5665Y211528D01*
X8478Y208715D01*
X10001Y205039D01*
X10001Y201061D01*
X8478Y197385D01*
X5665Y194572D01*
X1989Y193049D01*
X-1989Y193049D01*
G37*
%LPD*%
%LPC*%
G36*
X-57381Y259143D02*
X-57381Y259143D01*
X-60743Y260535D01*
X-63315Y263107D01*
X-64707Y266469D01*
X-64707Y270106D01*
X-63315Y273468D01*
X-60743Y276040D01*
X-57381Y277432D01*
X-53744Y277432D01*
X-50382Y276040D01*
X-47810Y273468D01*
X-46418Y270106D01*
X-46418Y266469D01*
X-47810Y263107D01*
X-50382Y260535D01*
X-53744Y259143D01*
X-57381Y259143D01*
G37*
%LPD*%
%LPC*%
G36*
X-68107Y61238D02*
X-68107Y61238D01*
X-69000Y62131D01*
X-69000Y74394D01*
X-68107Y75287D01*
X-56843Y75287D01*
X-55950Y74394D01*
X-55950Y62131D01*
X-56843Y61238D01*
X-68107Y61238D01*
G37*
%LPD*%
G36*
X19100Y223469D02*
X19100Y223469D01*
X19151Y223471D01*
X19183Y223488D01*
X19219Y223497D01*
X19258Y223529D01*
X19303Y223554D01*
X19324Y223584D01*
X19352Y223607D01*
X19373Y223654D01*
X19403Y223695D01*
X19411Y223737D01*
X19423Y223765D01*
X19422Y223796D01*
X19430Y223838D01*
X19430Y241300D01*
X19419Y241350D01*
X19417Y241401D01*
X19399Y241433D01*
X19391Y241469D01*
X19358Y241508D01*
X19334Y241553D01*
X19304Y241574D01*
X19281Y241602D01*
X19234Y241623D01*
X19192Y241653D01*
X19150Y241661D01*
X19122Y241673D01*
X19092Y241672D01*
X19050Y241680D01*
X11113Y241680D01*
X11063Y241669D01*
X11012Y241667D01*
X10980Y241649D01*
X10944Y241641D01*
X10904Y241608D01*
X10860Y241584D01*
X10839Y241554D01*
X10810Y241531D01*
X10789Y241484D01*
X10760Y241442D01*
X10752Y241400D01*
X10739Y241372D01*
X10740Y241342D01*
X10732Y241300D01*
X10732Y223838D01*
X10744Y223788D01*
X10746Y223737D01*
X10763Y223705D01*
X10772Y223669D01*
X10804Y223629D01*
X10829Y223585D01*
X10859Y223564D01*
X10882Y223535D01*
X10929Y223514D01*
X10970Y223485D01*
X11012Y223477D01*
X11040Y223464D01*
X11071Y223465D01*
X11113Y223457D01*
X19050Y223457D01*
X19100Y223469D01*
G37*
%LPC*%
G36*
X66674Y183124D02*
X66674Y183124D01*
X66674Y184141D01*
X66666Y184199D01*
X66667Y184257D01*
X66646Y184339D01*
X66634Y184422D01*
X66610Y184476D01*
X66596Y184532D01*
X66553Y184605D01*
X66518Y184682D01*
X66480Y184726D01*
X66450Y184777D01*
X66389Y184834D01*
X66334Y184899D01*
X66286Y184931D01*
X66243Y184971D01*
X66168Y185010D01*
X66098Y185056D01*
X66042Y185074D01*
X65990Y185101D01*
X65922Y185112D01*
X65827Y185142D01*
X65727Y185145D01*
X65659Y185156D01*
X58634Y185156D01*
X58634Y188459D01*
X58807Y189106D01*
X59142Y189685D01*
X59615Y190158D01*
X60194Y190493D01*
X60841Y190666D01*
X61790Y190666D01*
X61819Y190670D01*
X61848Y190667D01*
X61960Y190690D01*
X62072Y190706D01*
X62098Y190718D01*
X62127Y190723D01*
X62228Y190776D01*
X62331Y190822D01*
X62353Y190841D01*
X62379Y190854D01*
X62462Y190932D01*
X62548Y191005D01*
X62564Y191030D01*
X62586Y191050D01*
X62643Y191148D01*
X62706Y191242D01*
X62714Y191270D01*
X62729Y191295D01*
X62757Y191405D01*
X62791Y191513D01*
X62792Y191543D01*
X62799Y191571D01*
X62796Y191684D01*
X62799Y191797D01*
X62791Y191826D01*
X62790Y191855D01*
X62755Y191963D01*
X62727Y192072D01*
X62712Y192098D01*
X62703Y192126D01*
X62657Y192190D01*
X62582Y192317D01*
X62536Y192360D01*
X62508Y192399D01*
X62117Y192790D01*
X61782Y193369D01*
X61609Y194016D01*
X61609Y195601D01*
X67916Y195601D01*
X67974Y195609D01*
X68032Y195607D01*
X68114Y195629D01*
X68154Y195634D01*
X68216Y195615D01*
X68316Y195612D01*
X68384Y195601D01*
X74691Y195601D01*
X74691Y194016D01*
X74518Y193369D01*
X74183Y192790D01*
X73710Y192317D01*
X73376Y192124D01*
X73345Y192100D01*
X73310Y192083D01*
X73233Y192012D01*
X73152Y191949D01*
X73129Y191917D01*
X73100Y191891D01*
X73046Y191802D01*
X72985Y191718D01*
X72972Y191681D01*
X72952Y191648D01*
X72924Y191548D01*
X72889Y191451D01*
X72887Y191412D01*
X72876Y191374D01*
X72878Y191271D01*
X72871Y191167D01*
X72880Y191129D01*
X72880Y191090D01*
X72910Y190991D01*
X72932Y190889D01*
X72951Y190855D01*
X72962Y190818D01*
X73019Y190730D01*
X73068Y190640D01*
X73096Y190612D01*
X73117Y190579D01*
X73177Y190530D01*
X73268Y190437D01*
X73333Y190401D01*
X73376Y190365D01*
X73735Y190158D01*
X74208Y189685D01*
X74543Y189106D01*
X74716Y188459D01*
X74716Y185156D01*
X67691Y185156D01*
X67633Y185148D01*
X67575Y185149D01*
X67493Y185128D01*
X67410Y185116D01*
X67356Y185092D01*
X67300Y185078D01*
X67227Y185035D01*
X67150Y185000D01*
X67106Y184962D01*
X67055Y184932D01*
X66998Y184871D01*
X66933Y184816D01*
X66901Y184768D01*
X66861Y184725D01*
X66822Y184650D01*
X66776Y184580D01*
X66758Y184524D01*
X66731Y184472D01*
X66720Y184404D01*
X66690Y184309D01*
X66687Y184209D01*
X66676Y184141D01*
X66676Y183124D01*
X66674Y183124D01*
G37*
%LPD*%
G36*
X1074Y100815D02*
X1074Y100815D01*
X1132Y100814D01*
X1214Y100835D01*
X1297Y100847D01*
X1351Y100871D01*
X1407Y100886D01*
X1480Y100929D01*
X1557Y100963D01*
X1601Y101001D01*
X1652Y101031D01*
X1709Y101092D01*
X1774Y101147D01*
X1806Y101195D01*
X1846Y101238D01*
X1885Y101313D01*
X1931Y101383D01*
X1949Y101439D01*
X1976Y101491D01*
X1987Y101559D01*
X2017Y101655D01*
X2020Y101754D01*
X2031Y101822D01*
X2031Y129316D01*
X2023Y129374D01*
X2024Y129433D01*
X2003Y129514D01*
X1991Y129598D01*
X1967Y129651D01*
X1953Y129708D01*
X1910Y129780D01*
X1875Y129857D01*
X1837Y129902D01*
X1807Y129952D01*
X1746Y130010D01*
X1691Y130074D01*
X1643Y130107D01*
X1600Y130147D01*
X1525Y130185D01*
X1455Y130232D01*
X1399Y130249D01*
X1347Y130276D01*
X1279Y130287D01*
X1184Y130318D01*
X1084Y130320D01*
X1016Y130332D01*
X561Y130332D01*
X558Y130333D01*
X491Y130384D01*
X436Y130405D01*
X386Y130434D01*
X304Y130455D01*
X225Y130485D01*
X167Y130490D01*
X110Y130504D01*
X26Y130502D01*
X-58Y130509D01*
X-116Y130497D01*
X-174Y130495D01*
X-254Y130469D01*
X-337Y130453D01*
X-389Y130426D01*
X-445Y130408D01*
X-501Y130368D01*
X-571Y130332D01*
X-1016Y130332D01*
X-1074Y130323D01*
X-1132Y130325D01*
X-1214Y130304D01*
X-1297Y130292D01*
X-1351Y130268D01*
X-1407Y130253D01*
X-1480Y130210D01*
X-1557Y130175D01*
X-1601Y130138D01*
X-1652Y130108D01*
X-1709Y130046D01*
X-1774Y129992D01*
X-1806Y129943D01*
X-1846Y129900D01*
X-1885Y129825D01*
X-1931Y129755D01*
X-1949Y129699D01*
X-1976Y129647D01*
X-1987Y129579D01*
X-2017Y129484D01*
X-2020Y129384D01*
X-2031Y129316D01*
X-2031Y101822D01*
X-2023Y101764D01*
X-2024Y101706D01*
X-2003Y101624D01*
X-1991Y101541D01*
X-1967Y101487D01*
X-1953Y101431D01*
X-1910Y101359D01*
X-1875Y101281D01*
X-1837Y101237D01*
X-1807Y101187D01*
X-1746Y101129D01*
X-1691Y101064D01*
X-1643Y101032D01*
X-1600Y100992D01*
X-1525Y100954D01*
X-1455Y100907D01*
X-1399Y100889D01*
X-1347Y100863D01*
X-1279Y100851D01*
X-1184Y100821D01*
X-1084Y100819D01*
X-1016Y100807D01*
X1016Y100807D01*
X1074Y100815D01*
G37*
%LPC*%
G36*
X-63666Y235394D02*
X-63666Y235394D01*
X-63666Y239197D01*
X-63493Y239843D01*
X-63158Y240423D01*
X-62974Y240607D01*
X-62945Y240646D01*
X-62908Y240679D01*
X-62859Y240759D01*
X-62803Y240834D01*
X-62786Y240880D01*
X-62760Y240921D01*
X-62735Y241012D01*
X-62702Y241100D01*
X-62698Y241148D01*
X-62685Y241195D01*
X-62686Y241289D01*
X-62678Y241383D01*
X-62688Y241431D01*
X-62688Y241480D01*
X-62716Y241570D01*
X-62734Y241662D01*
X-62757Y241705D01*
X-62771Y241752D01*
X-62822Y241831D01*
X-62865Y241914D01*
X-62899Y241949D01*
X-62925Y241990D01*
X-62982Y242038D01*
X-63061Y242120D01*
X-63136Y242164D01*
X-63184Y242204D01*
X-63185Y242204D01*
X-63658Y242677D01*
X-63993Y243257D01*
X-64166Y243903D01*
X-64166Y247206D01*
X-58156Y247206D01*
X-58156Y235394D01*
X-63666Y235394D01*
G37*
%LPD*%
%LPC*%
G36*
X44869Y225869D02*
X44869Y225869D01*
X44869Y233878D01*
X49672Y233878D01*
X50318Y233705D01*
X50898Y233371D01*
X51371Y232898D01*
X51705Y232318D01*
X51878Y231672D01*
X51878Y225869D01*
X44869Y225869D01*
G37*
%LPD*%
%LPC*%
G36*
X44869Y213797D02*
X44869Y213797D01*
X44869Y221806D01*
X51878Y221806D01*
X51878Y216003D01*
X51705Y215357D01*
X51371Y214777D01*
X50898Y214304D01*
X50318Y213970D01*
X49672Y213797D01*
X44869Y213797D01*
G37*
%LPD*%
%LPC*%
G36*
X79484Y279870D02*
X79484Y279870D01*
X77876Y280538D01*
X76814Y280979D01*
X75172Y281930D01*
X74312Y282428D01*
X72021Y284190D01*
X69979Y286237D01*
X68222Y288533D01*
X66779Y291038D01*
X66431Y291881D01*
X69264Y291881D01*
X69308Y291779D01*
X69327Y291751D01*
X69345Y291708D01*
X70977Y289120D01*
X71001Y289095D01*
X71025Y289055D01*
X73052Y286763D01*
X73079Y286742D01*
X73110Y286707D01*
X75478Y284769D01*
X75508Y284753D01*
X75544Y284723D01*
X78192Y283190D01*
X78224Y283179D01*
X78264Y283155D01*
X80569Y282278D01*
X80569Y279578D01*
X79484Y279870D01*
G37*
%LPD*%
%LPC*%
G36*
X-80569Y282278D02*
X-80569Y282278D01*
X-78264Y283155D01*
X-78236Y283174D01*
X-78192Y283190D01*
X-75544Y284723D01*
X-75518Y284746D01*
X-75478Y284769D01*
X-73110Y286707D01*
X-73088Y286733D01*
X-73052Y286763D01*
X-71025Y289055D01*
X-71009Y289085D01*
X-70977Y289120D01*
X-69345Y291708D01*
X-69333Y291740D01*
X-69308Y291779D01*
X-69264Y291881D01*
X-66431Y291881D01*
X-66780Y291038D01*
X-67774Y289310D01*
X-68222Y288533D01*
X-69495Y286870D01*
X-69979Y286238D01*
X-72021Y284191D01*
X-74312Y282428D01*
X-76814Y280980D01*
X-79484Y279870D01*
X-80569Y279578D01*
X-80569Y282278D01*
G37*
%LPD*%
%LPC*%
G36*
X-69264Y9744D02*
X-69264Y9744D01*
X-69308Y9846D01*
X-69327Y9874D01*
X-69345Y9917D01*
X-70977Y12505D01*
X-71001Y12530D01*
X-71025Y12570D01*
X-73052Y14862D01*
X-73079Y14883D01*
X-73110Y14918D01*
X-75478Y16856D01*
X-75508Y16872D01*
X-75544Y16902D01*
X-78192Y18435D01*
X-78224Y18446D01*
X-78264Y18470D01*
X-80569Y19347D01*
X-80569Y22047D01*
X-79484Y21755D01*
X-77387Y20883D01*
X-76814Y20646D01*
X-74752Y19452D01*
X-74312Y19197D01*
X-72021Y17434D01*
X-69979Y15388D01*
X-68222Y13092D01*
X-66779Y10587D01*
X-66431Y9744D01*
X-69264Y9744D01*
G37*
%LPD*%
%LPC*%
G36*
X66431Y9744D02*
X66431Y9744D01*
X66780Y10587D01*
X68222Y13092D01*
X69979Y15388D01*
X72021Y17434D01*
X74312Y19197D01*
X76814Y20646D01*
X79484Y21755D01*
X80569Y22047D01*
X80569Y19347D01*
X78264Y18470D01*
X78236Y18451D01*
X78192Y18435D01*
X75544Y16902D01*
X75518Y16879D01*
X75478Y16856D01*
X73110Y14918D01*
X73088Y14892D01*
X73052Y14862D01*
X71025Y12570D01*
X71009Y12540D01*
X70977Y12505D01*
X69345Y9917D01*
X69333Y9886D01*
X69308Y9846D01*
X69264Y9744D01*
X66431Y9744D01*
G37*
%LPD*%
%LPC*%
G36*
X65163Y270320D02*
X65163Y270320D01*
X65163Y278255D01*
X65511Y278200D01*
X67032Y277706D01*
X68457Y276979D01*
X69751Y276039D01*
X70882Y274909D01*
X71822Y273615D01*
X72548Y272190D01*
X73042Y270669D01*
X73097Y270320D01*
X65163Y270320D01*
G37*
%LPD*%
%LPC*%
G36*
X53166Y270320D02*
X53166Y270320D01*
X53221Y270669D01*
X53715Y272190D01*
X54441Y273615D01*
X55382Y274909D01*
X56512Y276039D01*
X57806Y276979D01*
X59231Y277706D01*
X60752Y278200D01*
X61100Y278255D01*
X61100Y270320D01*
X53166Y270320D01*
G37*
%LPD*%
%LPC*%
G36*
X65163Y266258D02*
X65163Y266258D01*
X73097Y266258D01*
X73042Y265910D01*
X72548Y264389D01*
X71822Y262964D01*
X70882Y261670D01*
X69751Y260539D01*
X68457Y259599D01*
X67032Y258873D01*
X65511Y258379D01*
X65163Y258324D01*
X65163Y266258D01*
G37*
%LPD*%
%LPC*%
G36*
X60752Y258379D02*
X60752Y258379D01*
X59231Y258873D01*
X57806Y259599D01*
X56512Y260539D01*
X55382Y261670D01*
X54441Y262964D01*
X53715Y264389D01*
X53221Y265910D01*
X53166Y266258D01*
X61100Y266258D01*
X61100Y258324D01*
X60752Y258379D01*
G37*
%LPD*%
%LPC*%
G36*
X-64166Y251269D02*
X-64166Y251269D01*
X-64166Y254572D01*
X-63993Y255218D01*
X-63658Y255798D01*
X-63185Y256271D01*
X-62606Y256605D01*
X-61959Y256778D01*
X-58156Y256778D01*
X-58156Y251269D01*
X-64166Y251269D01*
G37*
%LPD*%
%LPC*%
G36*
X-61459Y225322D02*
X-61459Y225322D01*
X-62106Y225495D01*
X-62685Y225829D01*
X-63158Y226302D01*
X-63493Y226882D01*
X-63666Y227528D01*
X-63666Y231331D01*
X-58156Y231331D01*
X-58156Y225322D01*
X-61459Y225322D01*
G37*
%LPD*%
%LPC*%
G36*
X-9572Y217884D02*
X-9572Y217884D01*
X-10218Y218057D01*
X-10798Y218392D01*
X-11271Y218865D01*
X-11605Y219444D01*
X-11778Y220091D01*
X-11778Y223394D01*
X-5769Y223394D01*
X-5769Y217884D01*
X-9572Y217884D01*
G37*
%LPD*%
%LPC*%
G36*
X68706Y175584D02*
X68706Y175584D01*
X68706Y181094D01*
X74716Y181094D01*
X74716Y177791D01*
X74543Y177144D01*
X74208Y176565D01*
X73735Y176092D01*
X73156Y175757D01*
X72509Y175584D01*
X68706Y175584D01*
G37*
%LPD*%
%LPC*%
G36*
X60841Y175584D02*
X60841Y175584D01*
X60194Y175757D01*
X59615Y176092D01*
X59142Y176565D01*
X58807Y177144D01*
X58634Y177791D01*
X58634Y181094D01*
X64644Y181094D01*
X64644Y175584D01*
X60841Y175584D01*
G37*
%LPD*%
%LPC*%
G36*
X-45031Y134834D02*
X-45031Y134834D01*
X-45031Y140844D01*
X-39522Y140844D01*
X-39522Y137041D01*
X-39695Y136394D01*
X-40029Y135815D01*
X-40502Y135342D01*
X-41082Y135007D01*
X-41728Y134834D01*
X-45031Y134834D01*
G37*
%LPD*%
%LPC*%
G36*
X-54094Y225322D02*
X-54094Y225322D01*
X-54094Y231331D01*
X-48584Y231331D01*
X-48584Y227528D01*
X-48757Y226882D01*
X-49092Y226302D01*
X-49565Y225829D01*
X-50144Y225495D01*
X-50791Y225322D01*
X-54094Y225322D01*
G37*
%LPD*%
%LPC*%
G36*
X56578Y91503D02*
X56578Y91503D01*
X56578Y95028D01*
X62897Y95028D01*
X63543Y94855D01*
X64123Y94521D01*
X64596Y94048D01*
X64930Y93468D01*
X65103Y92822D01*
X65103Y91503D01*
X56578Y91503D01*
G37*
%LPD*%
%LPC*%
G36*
X56578Y85947D02*
X56578Y85947D01*
X56578Y89472D01*
X65103Y89472D01*
X65103Y88153D01*
X64930Y87507D01*
X64596Y86927D01*
X64123Y86454D01*
X63543Y86120D01*
X62897Y85947D01*
X56578Y85947D01*
G37*
%LPD*%
%LPC*%
G36*
X69399Y198099D02*
X69399Y198099D01*
X69399Y201891D01*
X72484Y201891D01*
X73131Y201718D01*
X73710Y201383D01*
X74183Y200910D01*
X74518Y200331D01*
X74691Y199684D01*
X74691Y198099D01*
X69399Y198099D01*
G37*
%LPD*%
%LPC*%
G36*
X61609Y198099D02*
X61609Y198099D01*
X61609Y199684D01*
X61782Y200331D01*
X62117Y200910D01*
X62590Y201383D01*
X63169Y201718D01*
X63816Y201891D01*
X66901Y201891D01*
X66901Y198099D01*
X61609Y198099D01*
G37*
%LPD*%
%LPC*%
G36*
X63131Y268288D02*
X63131Y268288D01*
X63131Y268290D01*
X63132Y268290D01*
X63132Y268288D01*
X63131Y268288D01*
G37*
%LPD*%
%LPC*%
G36*
X-56126Y249237D02*
X-56126Y249237D01*
X-56126Y249238D01*
X-56124Y249238D01*
X-56124Y249237D01*
X-56126Y249237D01*
G37*
%LPD*%
%LPC*%
G36*
X42837Y223837D02*
X42837Y223837D01*
X42837Y223838D01*
X42838Y223838D01*
X42838Y223837D01*
X42837Y223837D01*
G37*
%LPD*%
%LPC*%
G36*
X-3738Y225424D02*
X-3738Y225424D01*
X-3738Y225426D01*
X-3737Y225426D01*
X-3737Y225424D01*
X-3738Y225424D01*
G37*
%LPD*%
%LPC*%
G36*
X-56126Y233362D02*
X-56126Y233362D01*
X-56126Y233363D01*
X-56124Y233363D01*
X-56124Y233362D01*
X-56126Y233362D01*
G37*
%LPD*%
D10*
X47625Y166125D03*
X47625Y183125D03*
X66675Y183125D03*
X66675Y166125D03*
D11*
X55563Y78488D03*
X55563Y90488D03*
X55563Y102487D03*
D12*
X33800Y128313D03*
X33800Y123312D03*
X33800Y118310D03*
X33800Y113309D03*
X33800Y108308D03*
X33800Y103307D03*
X33800Y98305D03*
X33800Y93304D03*
X33800Y88303D03*
X33800Y83302D03*
X33800Y78300D03*
X33800Y73299D03*
D13*
X27507Y67006D03*
X22506Y67006D03*
X17504Y67006D03*
X12503Y67006D03*
X7502Y67006D03*
X2501Y67006D03*
X-2501Y67006D03*
X-7502Y67006D03*
X-12503Y67006D03*
X-17504Y67006D03*
X-22506Y67006D03*
X-27507Y67006D03*
D12*
X-33800Y73299D03*
X-33800Y78300D03*
X-33800Y83302D03*
X-33800Y88303D03*
X-33800Y93304D03*
X-33800Y98305D03*
X-33800Y103307D03*
X-33800Y108308D03*
X-33800Y113309D03*
X-33800Y118310D03*
X-33800Y123312D03*
X-33800Y128313D03*
D13*
X-27507Y134606D03*
X-22506Y134606D03*
X-17504Y134606D03*
X-12503Y134606D03*
X-7502Y134606D03*
X-2501Y134606D03*
X2501Y134606D03*
X7502Y134606D03*
X12503Y134606D03*
X17504Y134606D03*
X22506Y134606D03*
X27507Y134606D03*
D14*
X0Y100806D03*
D15*
X106363Y134938D03*
D16*
X-47063Y142875D03*
X-64063Y142875D03*
X-45475Y68263D03*
X-62475Y68263D03*
D10*
X48650Y128588D03*
X65650Y128588D03*
X48650Y119063D03*
X65650Y119063D03*
D17*
X47650Y153988D03*
X66650Y153988D03*
X47650Y139700D03*
X66650Y139700D03*
D18*
X-93663Y174625D03*
X-93663Y149225D03*
X-93663Y123825D03*
X-55563Y268288D03*
X-80963Y268288D03*
D10*
X-28575Y249800D03*
X-28575Y232800D03*
D16*
X-39125Y233363D03*
X-56125Y233363D03*
D18*
X63132Y268289D03*
X88532Y268289D03*
D10*
X13263Y225425D03*
X-3738Y225425D03*
X-39125Y249238D03*
X-56125Y249238D03*
D19*
X68150Y196850D03*
X46150Y196850D03*
D20*
X-14500Y240150D03*
X-14500Y245150D03*
X-14500Y250150D03*
X-14500Y255150D03*
X14500Y255150D03*
X14500Y250150D03*
X14500Y245150D03*
X14500Y240150D03*
D21*
X0Y247650D03*
D22*
X82600Y293913D03*
X165200Y150813D03*
X82600Y7713D03*
X-82600Y7713D03*
X-165200Y150813D03*
X-82600Y293913D03*
X123900Y222313D03*
X123900Y79313D03*
X0Y7713D03*
X-123900Y79313D03*
X-123900Y222313D03*
D17*
X23838Y223838D03*
X42838Y223838D03*
D23*
X68150Y196850D02*
X68150Y184600D01*
X66675Y183125D01*
D24*
X0Y120650D03*
X-1588Y79375D03*
D23*
X-1588Y99219D02*
X0Y100806D01*
X-1588Y99219D02*
X-1588Y79375D01*
D24*
X-61913Y107950D03*
X-127000Y146050D03*
X-125413Y165100D03*
X-68263Y201613D03*
X-1588Y176213D03*
X-15875Y268288D03*
X-47625Y139700D03*
X49213Y30163D03*
X69850Y42863D03*
X-58738Y36513D03*
X-77788Y46038D03*
X-3175Y225425D03*
X141288Y169863D03*
X139700Y136525D03*
X0Y246063D03*
X42863Y223838D03*
X96838Y196850D03*
X106363Y157163D03*
D23*
X-55788Y293913D02*
X-82600Y293913D01*
X-55788Y293913D02*
X-55563Y293688D01*
X-94171Y273758D02*
X-94171Y269367D01*
X-98425Y265113D01*
X-82600Y285329D02*
X-82600Y293913D01*
X-82600Y285329D02*
X-94171Y273758D01*
X80788Y292100D02*
X82600Y293913D01*
X80788Y292100D02*
X49213Y292100D01*
X144463Y150813D02*
X165200Y150813D01*
X144463Y150813D02*
X142875Y152400D01*
X82600Y7713D02*
X54200Y7713D01*
X52388Y9525D01*
X-80788Y9525D02*
X-82600Y7713D01*
X-80788Y9525D02*
X-53975Y9525D01*
X-139700Y150813D02*
X-165200Y150813D01*
D24*
X-55563Y249238D03*
X-68263Y249238D03*
X46150Y196850D03*
D25*
X23838Y219163D01*
X23838Y223838D01*
X22250Y225425D02*
X13263Y225425D01*
X22250Y225425D02*
X23838Y223838D01*
D23*
X46150Y184600D02*
X47625Y183125D01*
X46150Y184600D02*
X46150Y196850D01*
D26*
X-17504Y67006D02*
X-17504Y33379D01*
X-14288Y30163D01*
D27*
X-14288Y30163D03*
D26*
X-16628Y24341D02*
X0Y7713D01*
X-16628Y24341D02*
X-16699Y24341D01*
X-22506Y30147D01*
X-22506Y67006D01*
D28*
X33800Y103307D02*
X33800Y113309D01*
X42897Y113309D01*
X48650Y119063D01*
X48650Y128588D01*
X48650Y138700D01*
X47650Y139700D01*
X47650Y153988D01*
X47650Y166100D02*
X47625Y166125D01*
X47650Y166100D02*
X47650Y153988D01*
D26*
X33800Y113309D02*
X33800Y108308D01*
X-7502Y134606D02*
X-7502Y137944D01*
X-45527Y154471D02*
X-100518Y209462D01*
D27*
X-100518Y209462D03*
D26*
X-24030Y154471D02*
X-7502Y137944D01*
X-24030Y154471D02*
X-45527Y154471D01*
X-12503Y137916D02*
X-12503Y134606D01*
X-50915Y150915D02*
X-122313Y222313D01*
X-123900Y222313D01*
X-50915Y150915D02*
X-25503Y150915D01*
X-12503Y137916D01*
D28*
X33800Y98305D02*
X41155Y98305D01*
X45769Y102919D02*
X45769Y105645D01*
X47405Y107281D01*
X62831Y107281D02*
X66675Y111125D01*
X66675Y118038D01*
X65650Y119063D01*
X45769Y102919D02*
X41155Y98305D01*
X47405Y107281D02*
X62831Y107281D01*
X66675Y154013D02*
X66675Y166125D01*
X66675Y154013D02*
X66650Y153988D01*
X66650Y139700D01*
X66650Y129588D01*
X65650Y128588D01*
X65650Y119063D01*
D26*
X27507Y67006D02*
X28236Y66278D01*
X99001Y66278D01*
D27*
X99001Y66278D03*
D26*
X22506Y67006D02*
X22506Y63219D01*
X26988Y58738D01*
X103325Y58738D01*
X123900Y79313D01*
D27*
X-62475Y68263D03*
D26*
X33800Y88303D02*
X36383Y88303D01*
X37204Y89124D01*
X47510Y85948D02*
X48103Y85948D01*
X55563Y78488D01*
X44334Y89124D02*
X37204Y89124D01*
X44334Y89124D02*
X47510Y85948D01*
X48103Y95028D02*
X55563Y102487D01*
X48103Y95028D02*
X47510Y95028D01*
X45787Y93304D02*
X33800Y93304D01*
X45787Y93304D02*
X47510Y95028D01*
D29*
X-33800Y128313D02*
X-49501Y128313D01*
X-64063Y142875D01*
X-87313Y142875D01*
X-93663Y149225D01*
X-93663Y174625D01*
X-93150Y123312D02*
X-33800Y123312D01*
X-93150Y123312D02*
X-93663Y123825D01*
D24*
X-14652Y235314D03*
D28*
X-14500Y240150D02*
X-14500Y245150D01*
X-14500Y240150D02*
X-14500Y235466D01*
X-14652Y235314D01*
D24*
X-30121Y60484D03*
D30*
X-28534Y58897D01*
D28*
X14500Y255150D02*
X19582Y255150D01*
X26988Y247744D01*
D24*
X26988Y247744D03*
D28*
X-27507Y67006D02*
X-27507Y59923D01*
X-28534Y58897D01*
D26*
X-47859Y96860D02*
X-36411Y108308D01*
X-33800Y108308D01*
X-47859Y96860D02*
X-97644Y96860D01*
X-115191Y79313D02*
X-123900Y79313D01*
X-115191Y79313D02*
X-97644Y96860D01*
D27*
X-99358Y86913D03*
D26*
X-92966Y93304D01*
X-33800Y93304D01*
D28*
X61410Y241168D02*
X88532Y268289D01*
X20282Y245150D02*
X14500Y245150D01*
X20282Y245150D02*
X24264Y241168D01*
X61410Y241168D01*
X14500Y245150D02*
X14500Y250150D01*
D30*
X-28225Y250150D02*
X-28575Y249800D01*
D28*
X-28225Y250150D02*
X-14500Y250150D01*
X-28575Y249800D02*
X-38563Y249800D01*
X-39125Y249238D01*
D26*
X118003Y187428D02*
X124353Y193778D01*
X118003Y187428D02*
X118003Y115095D01*
D27*
X124353Y193778D03*
D26*
X76298Y73390D02*
X41322Y73390D01*
X76298Y73390D02*
X118003Y115095D01*
X41322Y73390D02*
X37232Y77480D01*
X37204Y77480D01*
X36383Y78300D01*
X33800Y78300D01*
X33800Y73299D02*
X37266Y69834D01*
X77771Y69834D02*
X122238Y114300D01*
X130250Y215963D02*
X123900Y222313D01*
X130250Y215963D02*
X130250Y190563D01*
X122238Y182550D01*
X122238Y114300D01*
X77771Y69834D02*
X37266Y69834D01*
X39615Y83302D02*
X33800Y83302D01*
X39615Y83302D02*
X39615Y83302D01*
D27*
X39615Y83302D03*
D28*
X-34925Y233363D02*
X-39125Y233363D01*
X-34925Y233363D02*
X-33338Y233363D01*
X-32775Y232800D02*
X-28575Y232800D01*
X-32775Y232800D02*
X-33338Y233363D01*
D24*
X-33338Y233363D03*
D31*
X-80963Y233363D02*
X-80963Y268288D01*
X-66675Y219075D02*
X-41275Y219075D01*
X-34925Y225425D01*
X-34925Y233363D01*
X-66675Y219075D02*
X-80963Y233363D01*
D28*
X-40438Y73299D02*
X-33800Y73299D01*
X-40438Y73299D02*
X-45475Y68263D01*
M02*
