G04 EAGLE Gerber RS-274X export*
G75*
%MOMM*%
%FSLAX34Y34*%
%LPD*%
%INTop Copper*%
%IPPOS*%
%AMOC8*
5,1,8,0,0,1.08239X$1,22.5*%
G01*
%ADD10R,0.800000X0.800000*%
%ADD11P,1.649562X8X22.500000*%
%ADD12R,1.100000X1.000000*%
%ADD13C,1.524000*%
%ADD14R,1.000000X1.100000*%
%ADD15C,1.000000*%
%ADD16R,2.800000X2.600000*%
%ADD17R,2.800000X2.200000*%
%ADD18R,2.800000X2.800000*%
%ADD19C,0.756400*%
%ADD20C,0.812800*%
%ADD21C,0.406400*%
%ADD22C,0.656400*%
%ADD23C,0.203200*%
%ADD24C,0.254000*%
%ADD25C,0.508000*%
%ADD26C,1.016000*%

G36*
X68667Y12484D02*
X68667Y12484D01*
X68780Y12500D01*
X68788Y12504D01*
X68797Y12505D01*
X68898Y12558D01*
X69000Y12610D01*
X69008Y12617D01*
X69014Y12620D01*
X69030Y12637D01*
X69125Y12722D01*
X69733Y13411D01*
X69751Y13439D01*
X69807Y13509D01*
X70137Y14032D01*
X70217Y14073D01*
X70303Y14108D01*
X70326Y14127D01*
X70354Y14141D01*
X70478Y14254D01*
X71313Y15199D01*
X71330Y15225D01*
X71351Y15246D01*
X71395Y15328D01*
X71444Y15407D01*
X71451Y15437D01*
X71466Y15463D01*
X71486Y15561D01*
X71969Y15956D01*
X71991Y15981D01*
X72058Y16041D01*
X72467Y16504D01*
X72553Y16531D01*
X72644Y16552D01*
X72670Y16568D01*
X72698Y16577D01*
X72839Y16668D01*
X73816Y17467D01*
X73836Y17490D01*
X73861Y17507D01*
X73917Y17582D01*
X73978Y17652D01*
X73990Y17680D01*
X74008Y17704D01*
X74044Y17797D01*
X74585Y18109D01*
X74610Y18130D01*
X74685Y18179D01*
X75164Y18571D01*
X75253Y18583D01*
X75346Y18589D01*
X75374Y18601D01*
X75404Y18605D01*
X75557Y18673D01*
X76649Y19305D01*
X76673Y19324D01*
X76700Y19337D01*
X76767Y19402D01*
X76839Y19461D01*
X76855Y19486D01*
X76877Y19507D01*
X76928Y19593D01*
X77511Y19815D01*
X77540Y19832D01*
X77622Y19868D01*
X78157Y20178D01*
X78247Y20176D01*
X78340Y20167D01*
X78369Y20174D01*
X78399Y20173D01*
X78562Y20215D01*
X79741Y20664D01*
X79767Y20679D01*
X79796Y20687D01*
X79873Y20740D01*
X79954Y20787D01*
X79974Y20810D01*
X79999Y20827D01*
X80062Y20904D01*
X80674Y21029D01*
X80704Y21041D01*
X80791Y21064D01*
X81369Y21284D01*
X81458Y21268D01*
X81548Y21244D01*
X81578Y21246D01*
X81608Y21240D01*
X81775Y21256D01*
X83011Y21509D01*
X83039Y21520D01*
X83069Y21524D01*
X83154Y21564D01*
X83241Y21597D01*
X83264Y21616D01*
X83291Y21630D01*
X83366Y21695D01*
X83990Y21721D01*
X84022Y21727D01*
X84112Y21736D01*
X84922Y21902D01*
X84929Y21901D01*
X84971Y21911D01*
X85014Y21912D01*
X85090Y21939D01*
X85169Y21957D01*
X85205Y21979D01*
X85246Y21994D01*
X85309Y22043D01*
X85378Y22086D01*
X85406Y22119D01*
X85439Y22145D01*
X85528Y22266D01*
X85536Y22275D01*
X85536Y22277D01*
X85539Y22280D01*
X94322Y37493D01*
X94362Y37601D01*
X94405Y37707D01*
X94406Y37717D01*
X94409Y37723D01*
X94410Y37746D01*
X94424Y37874D01*
X94424Y51224D01*
X94405Y51339D01*
X94388Y51455D01*
X94385Y51461D01*
X94384Y51467D01*
X94330Y51569D01*
X94276Y51674D01*
X94272Y51679D01*
X94269Y51684D01*
X94185Y51764D01*
X94101Y51847D01*
X94094Y51850D01*
X94091Y51854D01*
X94074Y51861D01*
X93954Y51927D01*
X92161Y52670D01*
X85393Y59438D01*
X84543Y61492D01*
X84543Y71064D01*
X85393Y73118D01*
X86263Y73988D01*
X86316Y74061D01*
X86376Y74131D01*
X86388Y74161D01*
X86407Y74187D01*
X86434Y74274D01*
X86468Y74359D01*
X86472Y74400D01*
X86479Y74422D01*
X86478Y74455D01*
X86486Y74526D01*
X86486Y91599D01*
X87337Y93653D01*
X109547Y115863D01*
X111601Y116714D01*
X139619Y116714D01*
X139685Y116725D01*
X139753Y116726D01*
X139806Y116744D01*
X139862Y116753D01*
X139921Y116785D01*
X139985Y116808D01*
X140029Y116842D01*
X140079Y116869D01*
X140125Y116918D01*
X140179Y116959D01*
X140226Y117023D01*
X140248Y117047D01*
X140257Y117066D01*
X140278Y117094D01*
X154077Y140996D01*
X154118Y141103D01*
X154160Y141208D01*
X154161Y141218D01*
X154164Y141226D01*
X154169Y141340D01*
X154175Y141454D01*
X154173Y141465D01*
X154173Y141472D01*
X154167Y141495D01*
X154140Y141618D01*
X153849Y142490D01*
X153834Y142519D01*
X153801Y142603D01*
X153514Y143150D01*
X153519Y143240D01*
X153532Y143332D01*
X153527Y143362D01*
X153528Y143392D01*
X153493Y143556D01*
X153091Y144759D01*
X153077Y144786D01*
X153070Y144815D01*
X153020Y144894D01*
X152977Y144977D01*
X152955Y144998D01*
X152939Y145023D01*
X152865Y145090D01*
X152765Y145706D01*
X152754Y145737D01*
X152736Y145825D01*
X152540Y146412D01*
X152560Y146499D01*
X152587Y146588D01*
X152586Y146618D01*
X152593Y146648D01*
X152585Y146816D01*
X152381Y148067D01*
X152372Y148096D01*
X152369Y148126D01*
X152333Y148212D01*
X152303Y148300D01*
X152285Y148325D01*
X152273Y148352D01*
X152211Y148430D01*
X152211Y149055D01*
X152205Y149087D01*
X152201Y149177D01*
X152102Y149787D01*
X152135Y149870D01*
X152177Y149954D01*
X152181Y149984D01*
X152192Y150012D01*
X152211Y150178D01*
X152211Y151447D01*
X152206Y151476D01*
X152208Y151507D01*
X152186Y151597D01*
X152171Y151689D01*
X152157Y151716D01*
X152150Y151746D01*
X152101Y151832D01*
X152201Y152448D01*
X152201Y152481D01*
X152211Y152570D01*
X152211Y153189D01*
X152257Y153265D01*
X152312Y153341D01*
X152321Y153370D01*
X152336Y153396D01*
X152381Y153558D01*
X152585Y154809D01*
X152585Y154840D01*
X152592Y154869D01*
X152584Y154962D01*
X152584Y155055D01*
X152575Y155084D01*
X152572Y155114D01*
X152538Y155208D01*
X152736Y155800D01*
X152741Y155832D01*
X152765Y155919D01*
X152864Y156529D01*
X152922Y156597D01*
X152988Y156664D01*
X153002Y156691D01*
X153021Y156714D01*
X153091Y156866D01*
X153493Y158069D01*
X153498Y158099D01*
X153510Y158127D01*
X153517Y158220D01*
X153532Y158312D01*
X153527Y158342D01*
X153530Y158372D01*
X153511Y158469D01*
X153801Y159022D01*
X153811Y159054D01*
X153849Y159135D01*
X154045Y159721D01*
X154113Y159779D01*
X154189Y159834D01*
X154206Y159859D01*
X154229Y159878D01*
X154323Y160017D01*
X154913Y161140D01*
X154922Y161169D01*
X154938Y161195D01*
X154961Y161285D01*
X154990Y161374D01*
X154990Y161404D01*
X154997Y161433D01*
X154994Y161533D01*
X155370Y162032D01*
X155385Y162061D01*
X155435Y162136D01*
X155722Y162683D01*
X155799Y162729D01*
X155882Y162771D01*
X155904Y162793D01*
X155930Y162808D01*
X156045Y162930D01*
X156807Y163944D01*
X156821Y163971D01*
X156841Y163994D01*
X156877Y164080D01*
X156921Y164162D01*
X156925Y164192D01*
X156937Y164220D01*
X156950Y164319D01*
X157400Y164751D01*
X157420Y164777D01*
X157482Y164843D01*
X157853Y165337D01*
X157936Y165371D01*
X158025Y165398D01*
X158050Y165416D01*
X158078Y165428D01*
X158211Y165530D01*
X159126Y166408D01*
X159144Y166432D01*
X159167Y166451D01*
X159217Y166530D01*
X159273Y166605D01*
X159283Y166634D01*
X159299Y166659D01*
X159327Y166755D01*
X159841Y167109D01*
X159865Y167132D01*
X159891Y167152D01*
X159894Y167154D01*
X159898Y167157D01*
X159936Y167187D01*
X160471Y167701D01*
X160502Y167742D01*
X160540Y167776D01*
X160575Y167839D01*
X160619Y167897D01*
X160635Y167946D01*
X160660Y167991D01*
X160673Y168062D01*
X160696Y168131D01*
X160695Y168182D01*
X160705Y168233D01*
X160695Y168305D01*
X160694Y168377D01*
X160678Y168426D01*
X160670Y168477D01*
X160623Y168584D01*
X160615Y168610D01*
X160609Y168617D01*
X160603Y168630D01*
X142968Y199176D01*
X142895Y199265D01*
X142825Y199355D01*
X142818Y199360D01*
X142812Y199367D01*
X142715Y199428D01*
X142620Y199490D01*
X142611Y199493D01*
X142604Y199497D01*
X142492Y199524D01*
X142382Y199553D01*
X142373Y199553D01*
X142365Y199555D01*
X142251Y199545D01*
X142137Y199537D01*
X142127Y199534D01*
X142120Y199533D01*
X142098Y199524D01*
X141978Y199482D01*
X141466Y199235D01*
X141437Y199215D01*
X141405Y199202D01*
X141337Y199145D01*
X141264Y199094D01*
X141244Y199066D01*
X141217Y199043D01*
X141172Y198978D01*
X140557Y198788D01*
X140528Y198774D01*
X140451Y198747D01*
X139874Y198469D01*
X139803Y198475D01*
X139715Y198491D01*
X139681Y198485D01*
X139647Y198488D01*
X139482Y198457D01*
X137375Y197808D01*
X137344Y197792D01*
X137310Y197785D01*
X137235Y197738D01*
X137155Y197698D01*
X137130Y197674D01*
X137101Y197656D01*
X137047Y197597D01*
X136410Y197502D01*
X136379Y197492D01*
X136300Y197476D01*
X135688Y197288D01*
X135618Y197304D01*
X135534Y197333D01*
X135499Y197333D01*
X135465Y197341D01*
X135298Y197334D01*
X133118Y197007D01*
X133085Y196996D01*
X133050Y196993D01*
X132968Y196958D01*
X132884Y196931D01*
X132856Y196911D01*
X132824Y196897D01*
X132762Y196847D01*
X132118Y196848D01*
X132086Y196842D01*
X132005Y196839D01*
X131372Y196744D01*
X131305Y196771D01*
X131226Y196811D01*
X131192Y196816D01*
X131159Y196829D01*
X130993Y196848D01*
X129918Y196848D01*
X129888Y196843D01*
X129882Y196844D01*
X129849Y196837D01*
X129845Y196836D01*
X129772Y196834D01*
X129725Y196817D01*
X129675Y196809D01*
X129645Y196793D01*
X129641Y196792D01*
X129623Y196781D01*
X129610Y196774D01*
X129541Y196749D01*
X129502Y196717D01*
X129458Y196694D01*
X129433Y196667D01*
X129430Y196666D01*
X129419Y196653D01*
X129407Y196640D01*
X129350Y196594D01*
X129323Y196552D01*
X129288Y196515D01*
X129273Y196482D01*
X129270Y196479D01*
X129262Y196458D01*
X129257Y196449D01*
X129218Y196386D01*
X129206Y196338D01*
X129185Y196292D01*
X129181Y196257D01*
X129178Y196251D01*
X129173Y196206D01*
X129159Y196148D01*
X129162Y196107D01*
X129160Y196084D01*
X129160Y196068D01*
X129158Y196048D01*
X129160Y196038D01*
X129160Y191786D01*
X126344Y188971D01*
X122362Y188971D01*
X119546Y191786D01*
X119546Y195769D01*
X120890Y197112D01*
X120937Y197178D01*
X120992Y197238D01*
X121009Y197277D01*
X121034Y197312D01*
X121057Y197390D01*
X121090Y197464D01*
X121093Y197506D01*
X121106Y197547D01*
X121104Y197628D01*
X121111Y197709D01*
X121101Y197750D01*
X121100Y197793D01*
X121072Y197869D01*
X121052Y197948D01*
X121030Y197984D01*
X121015Y198024D01*
X120964Y198087D01*
X120921Y198156D01*
X120888Y198183D01*
X120861Y198216D01*
X120793Y198260D01*
X120730Y198311D01*
X120679Y198333D01*
X120654Y198349D01*
X120627Y198356D01*
X120576Y198378D01*
X120301Y198463D01*
X120266Y198468D01*
X120234Y198480D01*
X120145Y198485D01*
X120057Y198497D01*
X120023Y198490D01*
X119988Y198492D01*
X119911Y198474D01*
X119331Y198754D01*
X119300Y198763D01*
X119225Y198795D01*
X118613Y198984D01*
X118565Y199037D01*
X118511Y199108D01*
X118483Y199128D01*
X118459Y199153D01*
X118317Y199242D01*
X116332Y200199D01*
X116299Y200209D01*
X116268Y200226D01*
X116181Y200244D01*
X116096Y200269D01*
X116061Y200267D01*
X116027Y200274D01*
X115948Y200268D01*
X115416Y200631D01*
X115386Y200645D01*
X115318Y200688D01*
X114741Y200966D01*
X114701Y201026D01*
X114659Y201104D01*
X114633Y201127D01*
X114614Y201156D01*
X114487Y201265D01*
X112666Y202508D01*
X112634Y202522D01*
X112607Y202544D01*
X112524Y202574D01*
X112443Y202611D01*
X112408Y202615D01*
X112376Y202627D01*
X112297Y202633D01*
X111825Y203071D01*
X111797Y203089D01*
X111736Y203142D01*
X111207Y203503D01*
X111177Y203568D01*
X111146Y203651D01*
X111125Y203678D01*
X111110Y203710D01*
X111000Y203837D01*
X109385Y205336D01*
X109356Y205356D01*
X109332Y205381D01*
X109254Y205423D01*
X109180Y205472D01*
X109147Y205481D01*
X109116Y205498D01*
X109039Y205515D01*
X108637Y206019D01*
X108613Y206041D01*
X108560Y206102D01*
X108091Y206538D01*
X108070Y206607D01*
X108053Y206694D01*
X108035Y206724D01*
X108025Y206757D01*
X107936Y206899D01*
X106562Y208623D01*
X106537Y208646D01*
X106517Y208675D01*
X106446Y208728D01*
X106380Y208788D01*
X106348Y208802D01*
X106320Y208822D01*
X106246Y208851D01*
X105925Y209409D01*
X105904Y209434D01*
X105861Y209503D01*
X105462Y210004D01*
X105452Y210075D01*
X105447Y210164D01*
X105435Y210196D01*
X105430Y210230D01*
X105362Y210384D01*
X104261Y212293D01*
X104239Y212320D01*
X104224Y212351D01*
X104200Y212375D01*
X104183Y212404D01*
X104141Y212440D01*
X104105Y212483D01*
X104076Y212502D01*
X104051Y212527D01*
X104014Y212548D01*
X103996Y212564D01*
X103981Y212570D01*
X103748Y213165D01*
X103731Y213194D01*
X103698Y213268D01*
X103378Y213823D01*
X103379Y213894D01*
X103388Y213983D01*
X103380Y214017D01*
X103381Y214051D01*
X103337Y214213D01*
X102532Y216265D01*
X102515Y216295D01*
X102504Y216328D01*
X102452Y216400D01*
X102407Y216477D01*
X102380Y216500D01*
X102360Y216528D01*
X102298Y216577D01*
X102155Y217204D01*
X102143Y217235D01*
X102121Y217313D01*
X101888Y217909D01*
X101899Y217980D01*
X101921Y218066D01*
X101918Y218101D01*
X101924Y218135D01*
X101905Y218302D01*
X101415Y220451D01*
X101402Y220483D01*
X101397Y220517D01*
X101378Y220553D01*
X101375Y220566D01*
X101353Y220604D01*
X101322Y220679D01*
X101300Y220705D01*
X101284Y220736D01*
X101256Y220766D01*
X101249Y220777D01*
X101230Y220794D01*
X101182Y221436D01*
X101174Y221468D01*
X101165Y221548D01*
X101023Y222173D01*
X101044Y222241D01*
X101079Y222323D01*
X101082Y222358D01*
X101092Y222391D01*
X101098Y222558D01*
X100934Y224756D01*
X100926Y224790D01*
X100926Y224825D01*
X100897Y224909D01*
X100876Y224995D01*
X100858Y225025D01*
X100847Y225058D01*
X100802Y225123D01*
X100850Y225765D01*
X100847Y225798D01*
X100850Y225879D01*
X100803Y226517D01*
X100834Y226581D01*
X100881Y226658D01*
X100889Y226691D01*
X100904Y226722D01*
X100935Y226887D01*
X101100Y229085D01*
X101097Y229120D01*
X101102Y229154D01*
X101087Y229242D01*
X101079Y229330D01*
X101065Y229362D01*
X101059Y229396D01*
X101024Y229468D01*
X101168Y230095D01*
X101170Y230128D01*
X101185Y230208D01*
X101233Y230846D01*
X101274Y230905D01*
X101331Y230973D01*
X101344Y231005D01*
X101363Y231034D01*
X101419Y231192D01*
X101910Y233341D01*
X101912Y233376D01*
X101922Y233409D01*
X101919Y233498D01*
X101925Y233587D01*
X101916Y233620D01*
X101915Y233655D01*
X101892Y233731D01*
X102127Y234330D01*
X102134Y234362D01*
X102160Y234438D01*
X102303Y235063D01*
X102352Y235115D01*
X102419Y235174D01*
X102436Y235204D01*
X102460Y235229D01*
X102538Y235377D01*
X103344Y237429D01*
X103352Y237463D01*
X103367Y237494D01*
X103377Y237582D01*
X103396Y237669D01*
X103392Y237704D01*
X103396Y237738D01*
X103385Y237817D01*
X103707Y238374D01*
X103718Y238405D01*
X103756Y238476D01*
X103990Y239072D01*
X104047Y239117D01*
X104121Y239165D01*
X104143Y239192D01*
X104170Y239213D01*
X104270Y239348D01*
X105372Y241257D01*
X105385Y241289D01*
X105404Y241318D01*
X105428Y241404D01*
X105459Y241487D01*
X105461Y241522D01*
X105470Y241555D01*
X105470Y241634D01*
X105871Y242137D01*
X105887Y242166D01*
X105935Y242232D01*
X106256Y242786D01*
X106318Y242821D01*
X106399Y242858D01*
X106425Y242881D01*
X106455Y242898D01*
X106573Y243017D01*
X107948Y244740D01*
X107965Y244770D01*
X107989Y244796D01*
X108025Y244877D01*
X108068Y244955D01*
X108075Y244989D01*
X108089Y245020D01*
X108101Y245099D01*
X108573Y245536D01*
X108593Y245562D01*
X108650Y245620D01*
X109050Y246120D01*
X109116Y246146D01*
X109202Y246170D01*
X109231Y246190D01*
X109263Y246202D01*
X109398Y246302D01*
X111014Y247800D01*
X111036Y247828D01*
X111063Y247849D01*
X111111Y247924D01*
X111165Y247995D01*
X111177Y248027D01*
X111195Y248057D01*
X111219Y248132D01*
X111751Y248495D01*
X111775Y248518D01*
X111840Y248566D01*
X112309Y249001D01*
X112379Y249016D01*
X112467Y249027D01*
X112499Y249043D01*
X112533Y249050D01*
X112681Y249128D01*
X113136Y249439D01*
X113219Y249518D01*
X113304Y249595D01*
X113308Y249602D01*
X113314Y249608D01*
X113368Y249709D01*
X113423Y249809D01*
X113425Y249818D01*
X113429Y249826D01*
X113448Y249939D01*
X113468Y250051D01*
X113467Y250060D01*
X113469Y250068D01*
X113450Y250182D01*
X113434Y250295D01*
X113430Y250304D01*
X113429Y250311D01*
X113418Y250331D01*
X113367Y250448D01*
X95735Y280988D01*
X95703Y281027D01*
X95679Y281072D01*
X95626Y281122D01*
X95580Y281178D01*
X95536Y281205D01*
X95499Y281240D01*
X95433Y281270D01*
X95371Y281309D01*
X95322Y281321D01*
X95275Y281342D01*
X95203Y281349D01*
X95132Y281366D01*
X95081Y281362D01*
X95031Y281367D01*
X94914Y281347D01*
X94887Y281344D01*
X94879Y281341D01*
X94865Y281338D01*
X94111Y281121D01*
X94082Y281107D01*
X93997Y281078D01*
X93438Y280813D01*
X93349Y280822D01*
X93257Y280839D01*
X93227Y280835D01*
X93196Y280838D01*
X93031Y280810D01*
X91819Y280460D01*
X91792Y280447D01*
X91762Y280441D01*
X91681Y280394D01*
X91597Y280354D01*
X91575Y280333D01*
X91549Y280318D01*
X91479Y280247D01*
X90859Y280173D01*
X90827Y280164D01*
X90739Y280148D01*
X90145Y279977D01*
X90058Y280000D01*
X89970Y280032D01*
X89940Y280032D01*
X89911Y280040D01*
X89743Y280039D01*
X88490Y279888D01*
X88461Y279880D01*
X88431Y279879D01*
X88343Y279846D01*
X88254Y279820D01*
X88229Y279802D01*
X88201Y279792D01*
X88121Y279733D01*
X87497Y279759D01*
X87464Y279755D01*
X87374Y279754D01*
X86827Y279688D01*
X86733Y279661D01*
X86638Y279640D01*
X86616Y279627D01*
X86591Y279620D01*
X86511Y279564D01*
X86427Y279514D01*
X86410Y279494D01*
X86389Y279480D01*
X86331Y279402D01*
X86267Y279327D01*
X86257Y279303D01*
X86242Y279282D01*
X86212Y279190D01*
X86175Y279099D01*
X86172Y279067D01*
X86166Y279048D01*
X86166Y279016D01*
X86157Y278932D01*
X86157Y278195D01*
X86160Y278176D01*
X86158Y278156D01*
X86180Y278054D01*
X86196Y277952D01*
X86206Y277935D01*
X86210Y277915D01*
X86263Y277826D01*
X86312Y277735D01*
X86326Y277721D01*
X86336Y277704D01*
X86415Y277637D01*
X86490Y277566D01*
X86508Y277557D01*
X86523Y277544D01*
X86619Y277506D01*
X86713Y277462D01*
X86733Y277460D01*
X86751Y277452D01*
X86918Y277434D01*
X90351Y277434D01*
X93712Y276042D01*
X96284Y273469D01*
X97676Y270108D01*
X97676Y266470D01*
X96284Y263109D01*
X93712Y260537D01*
X90351Y259144D01*
X86713Y259144D01*
X83351Y260537D01*
X82212Y261676D01*
X82154Y261718D01*
X82102Y261768D01*
X82054Y261790D01*
X82012Y261820D01*
X81944Y261841D01*
X81879Y261871D01*
X81827Y261877D01*
X81777Y261892D01*
X81705Y261890D01*
X81634Y261898D01*
X81583Y261887D01*
X81531Y261886D01*
X81464Y261861D01*
X81394Y261846D01*
X81349Y261819D01*
X81300Y261801D01*
X81244Y261757D01*
X81183Y261720D01*
X81149Y261680D01*
X81108Y261648D01*
X81069Y261587D01*
X81023Y261533D01*
X81003Y261485D01*
X80975Y261441D01*
X80958Y261371D01*
X80931Y261305D01*
X80923Y261234D01*
X80915Y261202D01*
X80917Y261179D01*
X80912Y261138D01*
X80912Y226582D01*
X51680Y197350D01*
X51627Y197276D01*
X51567Y197206D01*
X51555Y197176D01*
X51536Y197150D01*
X51509Y197063D01*
X51475Y196978D01*
X51471Y196937D01*
X51464Y196915D01*
X51465Y196883D01*
X51457Y196811D01*
X51457Y194652D01*
X48348Y191543D01*
X43952Y191543D01*
X40843Y194652D01*
X40843Y199048D01*
X43952Y202157D01*
X46111Y202157D01*
X46202Y202171D01*
X46292Y202179D01*
X46322Y202191D01*
X46354Y202196D01*
X46435Y202239D01*
X46519Y202275D01*
X46551Y202301D01*
X46572Y202312D01*
X46594Y202335D01*
X46650Y202380D01*
X73576Y229306D01*
X73629Y229380D01*
X73688Y229449D01*
X73701Y229479D01*
X73719Y229506D01*
X73746Y229593D01*
X73780Y229677D01*
X73785Y229718D01*
X73792Y229741D01*
X73791Y229773D01*
X73799Y229844D01*
X73799Y263673D01*
X73788Y263740D01*
X73787Y263808D01*
X73768Y263861D01*
X73759Y263916D01*
X73727Y263976D01*
X73705Y264040D01*
X73670Y264084D01*
X73644Y264133D01*
X73595Y264180D01*
X73553Y264233D01*
X73506Y264264D01*
X73466Y264303D01*
X73404Y264331D01*
X73348Y264368D01*
X73293Y264383D01*
X73243Y264406D01*
X73175Y264414D01*
X73110Y264431D01*
X73054Y264427D01*
X72998Y264433D01*
X72932Y264419D01*
X72864Y264414D01*
X72813Y264393D01*
X72758Y264381D01*
X72699Y264346D01*
X72637Y264320D01*
X72595Y264284D01*
X72547Y264255D01*
X72503Y264203D01*
X72451Y264159D01*
X72408Y264093D01*
X72387Y264068D01*
X72379Y264048D01*
X72359Y264019D01*
X71822Y262964D01*
X70882Y261670D01*
X69751Y260539D01*
X68457Y259599D01*
X67032Y258873D01*
X65511Y258379D01*
X64655Y258243D01*
X64655Y267527D01*
X64652Y267547D01*
X64654Y267567D01*
X64632Y267668D01*
X64615Y267770D01*
X64606Y267787D01*
X64602Y267807D01*
X64548Y267896D01*
X64500Y267987D01*
X64486Y268001D01*
X64475Y268018D01*
X64397Y268085D01*
X64322Y268157D01*
X64304Y268165D01*
X64288Y268178D01*
X64192Y268217D01*
X64099Y268260D01*
X64079Y268262D01*
X64060Y268270D01*
X63894Y268288D01*
X62370Y268288D01*
X62350Y268285D01*
X62330Y268287D01*
X62229Y268265D01*
X62127Y268249D01*
X62109Y268239D01*
X62090Y268235D01*
X62001Y268182D01*
X61909Y268134D01*
X61896Y268119D01*
X61879Y268109D01*
X61811Y268030D01*
X61740Y267955D01*
X61732Y267937D01*
X61719Y267922D01*
X61680Y267826D01*
X61636Y267732D01*
X61634Y267712D01*
X61627Y267694D01*
X61608Y267527D01*
X61608Y258243D01*
X60752Y258379D01*
X59231Y258873D01*
X57806Y259599D01*
X56512Y260539D01*
X55381Y261670D01*
X54441Y262964D01*
X53964Y263900D01*
X53924Y263955D01*
X53892Y264015D01*
X53852Y264053D01*
X53819Y264098D01*
X53763Y264137D01*
X53714Y264184D01*
X53663Y264208D01*
X53617Y264240D01*
X53553Y264259D01*
X53491Y264288D01*
X53435Y264294D01*
X53382Y264310D01*
X53314Y264307D01*
X53247Y264315D01*
X53192Y264303D01*
X53136Y264301D01*
X53072Y264277D01*
X53006Y264263D01*
X52958Y264234D01*
X52906Y264214D01*
X52853Y264171D01*
X52795Y264136D01*
X52759Y264094D01*
X52715Y264058D01*
X52679Y264001D01*
X52635Y263949D01*
X52614Y263898D01*
X52584Y263850D01*
X52569Y263784D01*
X52543Y263721D01*
X52535Y263643D01*
X52527Y263611D01*
X52529Y263590D01*
X52525Y263555D01*
X52525Y252418D01*
X51632Y251525D01*
X32549Y251525D01*
X32478Y251514D01*
X32406Y251512D01*
X32357Y251494D01*
X32306Y251486D01*
X32243Y251452D01*
X32175Y251427D01*
X32135Y251395D01*
X32089Y251370D01*
X32039Y251318D01*
X31983Y251274D01*
X31955Y251230D01*
X31919Y251192D01*
X31889Y251127D01*
X31850Y251067D01*
X31838Y251016D01*
X31816Y250969D01*
X31808Y250898D01*
X31790Y250828D01*
X31794Y250776D01*
X31789Y250725D01*
X31804Y250654D01*
X31809Y250583D01*
X31830Y250535D01*
X31841Y250484D01*
X31878Y250423D01*
X31906Y250357D01*
X31951Y250301D01*
X31967Y250273D01*
X31985Y250258D01*
X31995Y250246D01*
X31995Y250245D01*
X32011Y250226D01*
X32294Y249942D01*
X32294Y245546D01*
X31275Y244527D01*
X31222Y244453D01*
X31163Y244383D01*
X31150Y244353D01*
X31132Y244327D01*
X31105Y244240D01*
X31071Y244155D01*
X31066Y244114D01*
X31059Y244092D01*
X31060Y244060D01*
X31052Y243989D01*
X31052Y233460D01*
X28671Y231079D01*
X-9656Y231079D01*
X-9675Y231076D01*
X-9695Y231078D01*
X-9796Y231056D01*
X-9898Y231040D01*
X-9916Y231030D01*
X-9935Y231026D01*
X-10024Y230973D01*
X-10116Y230924D01*
X-10129Y230910D01*
X-10146Y230900D01*
X-10214Y230821D01*
X-10285Y230746D01*
X-10293Y230728D01*
X-10306Y230713D01*
X-10345Y230617D01*
X-10389Y230523D01*
X-10391Y230503D01*
X-10398Y230485D01*
X-10417Y230318D01*
X-10417Y207862D01*
X-10401Y207766D01*
X-10392Y207669D01*
X-10381Y207645D01*
X-10377Y207619D01*
X-10332Y207533D01*
X-10292Y207444D01*
X-10274Y207425D01*
X-10262Y207402D01*
X-10191Y207335D01*
X-10125Y207263D01*
X-10103Y207250D01*
X-10084Y207232D01*
X-9995Y207191D01*
X-9910Y207144D01*
X-9884Y207140D01*
X-9861Y207129D01*
X-9764Y207118D01*
X-9668Y207101D01*
X-9642Y207105D01*
X-9616Y207102D01*
X-9521Y207122D01*
X-9425Y207137D01*
X-9401Y207148D01*
X-9376Y207154D01*
X-9292Y207204D01*
X-9205Y207248D01*
X-9187Y207267D01*
X-9165Y207280D01*
X-9101Y207354D01*
X-9033Y207424D01*
X-9017Y207452D01*
X-9005Y207467D01*
X-8992Y207498D01*
X-8952Y207571D01*
X-8478Y208715D01*
X-5665Y211528D01*
X-1989Y213051D01*
X1989Y213051D01*
X5665Y211528D01*
X8478Y208715D01*
X10001Y205039D01*
X10001Y201061D01*
X8478Y197385D01*
X5665Y194572D01*
X1989Y193049D01*
X-1989Y193049D01*
X-5665Y194572D01*
X-8478Y197385D01*
X-8952Y198529D01*
X-9004Y198612D01*
X-9049Y198698D01*
X-9068Y198716D01*
X-9082Y198738D01*
X-9157Y198801D01*
X-9227Y198868D01*
X-9251Y198879D01*
X-9271Y198895D01*
X-9362Y198930D01*
X-9451Y198971D01*
X-9477Y198974D01*
X-9501Y198983D01*
X-9598Y198988D01*
X-9695Y198998D01*
X-9720Y198993D01*
X-9747Y198994D01*
X-9840Y198967D01*
X-9935Y198946D01*
X-9958Y198933D01*
X-9983Y198925D01*
X-10063Y198870D01*
X-10146Y198820D01*
X-10163Y198800D01*
X-10185Y198785D01*
X-10243Y198707D01*
X-10306Y198633D01*
X-10316Y198609D01*
X-10332Y198588D01*
X-10362Y198495D01*
X-10398Y198405D01*
X-10402Y198372D01*
X-10408Y198354D01*
X-10408Y198321D01*
X-10417Y198238D01*
X-10417Y171831D01*
X-10414Y171811D01*
X-10416Y171792D01*
X-10394Y171690D01*
X-10377Y171588D01*
X-10368Y171571D01*
X-10363Y171551D01*
X-10310Y171462D01*
X-10262Y171371D01*
X-10248Y171357D01*
X-10237Y171340D01*
X-10159Y171273D01*
X-10084Y171201D01*
X-10066Y171193D01*
X-10050Y171180D01*
X-9954Y171141D01*
X-9861Y171098D01*
X-9841Y171096D01*
X-9822Y171088D01*
X-9656Y171070D01*
X26540Y171070D01*
X26630Y171084D01*
X26721Y171092D01*
X26750Y171104D01*
X26782Y171109D01*
X26863Y171152D01*
X26947Y171188D01*
X26979Y171214D01*
X27000Y171225D01*
X27022Y171248D01*
X27078Y171293D01*
X33205Y177420D01*
X42952Y177420D01*
X42971Y177423D01*
X42991Y177421D01*
X43092Y177443D01*
X43194Y177459D01*
X43212Y177469D01*
X43231Y177473D01*
X43320Y177526D01*
X43412Y177575D01*
X43425Y177589D01*
X43442Y177599D01*
X43510Y177678D01*
X43581Y177753D01*
X43589Y177771D01*
X43602Y177786D01*
X43641Y177882D01*
X43685Y177976D01*
X43687Y177996D01*
X43694Y178014D01*
X43713Y178181D01*
X43713Y180757D01*
X44606Y181650D01*
X55869Y181650D01*
X56762Y180757D01*
X56762Y168493D01*
X55869Y167600D01*
X44606Y167600D01*
X43713Y168493D01*
X43713Y171069D01*
X43710Y171089D01*
X43712Y171108D01*
X43690Y171210D01*
X43673Y171312D01*
X43664Y171329D01*
X43659Y171349D01*
X43606Y171438D01*
X43558Y171529D01*
X43544Y171543D01*
X43533Y171560D01*
X43455Y171627D01*
X43380Y171699D01*
X43362Y171707D01*
X43346Y171720D01*
X43250Y171759D01*
X43157Y171802D01*
X43137Y171804D01*
X43118Y171812D01*
X42952Y171830D01*
X35835Y171830D01*
X35745Y171816D01*
X35654Y171808D01*
X35625Y171796D01*
X35593Y171791D01*
X35512Y171748D01*
X35428Y171712D01*
X35396Y171686D01*
X35375Y171675D01*
X35353Y171652D01*
X35297Y171607D01*
X29170Y165480D01*
X23064Y165480D01*
X22993Y165469D01*
X22921Y165467D01*
X22872Y165449D01*
X22821Y165441D01*
X22758Y165407D01*
X22690Y165382D01*
X22650Y165350D01*
X22604Y165325D01*
X22554Y165273D01*
X22498Y165229D01*
X22470Y165185D01*
X22434Y165147D01*
X22404Y165082D01*
X22365Y165022D01*
X22353Y164971D01*
X22331Y164924D01*
X22323Y164853D01*
X22305Y164783D01*
X22309Y164731D01*
X22304Y164680D01*
X22319Y164609D01*
X22324Y164538D01*
X22345Y164490D01*
X22356Y164439D01*
X22393Y164378D01*
X22421Y164312D01*
X22466Y164256D01*
X22482Y164228D01*
X22485Y164225D01*
X22486Y164224D01*
X22501Y164211D01*
X22526Y164181D01*
X23025Y163682D01*
X23025Y136418D01*
X22132Y135525D01*
X-7132Y135525D01*
X-8025Y136418D01*
X-8025Y163682D01*
X-7526Y164181D01*
X-7484Y164239D01*
X-7434Y164291D01*
X-7412Y164338D01*
X-7382Y164380D01*
X-7361Y164449D01*
X-7331Y164514D01*
X-7325Y164566D01*
X-7310Y164616D01*
X-7312Y164687D01*
X-7304Y164758D01*
X-7315Y164809D01*
X-7316Y164861D01*
X-7341Y164929D01*
X-7356Y164999D01*
X-7383Y165044D01*
X-7400Y165092D01*
X-7445Y165148D01*
X-7482Y165210D01*
X-7522Y165244D01*
X-7554Y165284D01*
X-7614Y165323D01*
X-7669Y165370D01*
X-7717Y165389D01*
X-7761Y165417D01*
X-7831Y165435D01*
X-7897Y165462D01*
X-7968Y165470D01*
X-8000Y165478D01*
X-8023Y165476D01*
X-8064Y165480D01*
X-9656Y165480D01*
X-9675Y165477D01*
X-9695Y165479D01*
X-9796Y165457D01*
X-9898Y165441D01*
X-9916Y165431D01*
X-9935Y165427D01*
X-10024Y165374D01*
X-10116Y165325D01*
X-10129Y165311D01*
X-10146Y165301D01*
X-10214Y165222D01*
X-10285Y165147D01*
X-10293Y165129D01*
X-10306Y165114D01*
X-10345Y165018D01*
X-10389Y164924D01*
X-10391Y164904D01*
X-10398Y164886D01*
X-10417Y164719D01*
X-10417Y74439D01*
X-24591Y60265D01*
X-24644Y60191D01*
X-24703Y60122D01*
X-24716Y60092D01*
X-24734Y60065D01*
X-24761Y59979D01*
X-24795Y59894D01*
X-24800Y59853D01*
X-24807Y59830D01*
X-24806Y59798D01*
X-24814Y59727D01*
X-24814Y58286D01*
X-27922Y55177D01*
X-32319Y55177D01*
X-35427Y58286D01*
X-35427Y62682D01*
X-32319Y65791D01*
X-30877Y65791D01*
X-30787Y65805D01*
X-30696Y65813D01*
X-30667Y65825D01*
X-30635Y65830D01*
X-30554Y65873D01*
X-30470Y65909D01*
X-30438Y65935D01*
X-30417Y65945D01*
X-30395Y65969D01*
X-30339Y66014D01*
X-18769Y77584D01*
X-18716Y77658D01*
X-18657Y77727D01*
X-18644Y77757D01*
X-18626Y77783D01*
X-18599Y77870D01*
X-18565Y77955D01*
X-18560Y77996D01*
X-18553Y78018D01*
X-18554Y78051D01*
X-18546Y78122D01*
X-18546Y231389D01*
X-18561Y231479D01*
X-18568Y231570D01*
X-18581Y231599D01*
X-18586Y231631D01*
X-18629Y231712D01*
X-18664Y231796D01*
X-18690Y231828D01*
X-18701Y231849D01*
X-18724Y231871D01*
X-18769Y231927D01*
X-19958Y233116D01*
X-19958Y237512D01*
X-16850Y240621D01*
X-12454Y240621D01*
X-11264Y239432D01*
X-11190Y239379D01*
X-11121Y239319D01*
X-11091Y239307D01*
X-11065Y239288D01*
X-10978Y239261D01*
X-10893Y239227D01*
X-10852Y239223D01*
X-10830Y239216D01*
X-10797Y239217D01*
X-10726Y239209D01*
X22162Y239209D01*
X22181Y239212D01*
X22201Y239210D01*
X22302Y239232D01*
X22404Y239248D01*
X22422Y239258D01*
X22441Y239262D01*
X22530Y239315D01*
X22622Y239364D01*
X22635Y239378D01*
X22652Y239388D01*
X22720Y239467D01*
X22791Y239542D01*
X22799Y239560D01*
X22812Y239575D01*
X22851Y239671D01*
X22895Y239765D01*
X22897Y239785D01*
X22904Y239803D01*
X22923Y239970D01*
X22923Y243989D01*
X22908Y244079D01*
X22901Y244170D01*
X22888Y244199D01*
X22883Y244231D01*
X22840Y244312D01*
X22805Y244396D01*
X22779Y244428D01*
X22768Y244449D01*
X22745Y244471D01*
X22700Y244527D01*
X21681Y245546D01*
X21681Y249942D01*
X22278Y250539D01*
X22290Y250555D01*
X22305Y250568D01*
X22361Y250655D01*
X22421Y250739D01*
X22427Y250758D01*
X22438Y250775D01*
X22463Y250875D01*
X22494Y250974D01*
X22493Y250994D01*
X22498Y251013D01*
X22490Y251116D01*
X22487Y251220D01*
X22481Y251239D01*
X22479Y251259D01*
X22439Y251353D01*
X22403Y251451D01*
X22390Y251467D01*
X22383Y251485D01*
X22278Y251616D01*
X21475Y252418D01*
X21475Y253184D01*
X21464Y253255D01*
X21462Y253327D01*
X21444Y253376D01*
X21436Y253427D01*
X21402Y253491D01*
X21377Y253558D01*
X21345Y253599D01*
X21320Y253645D01*
X21268Y253694D01*
X21224Y253750D01*
X21180Y253778D01*
X21142Y253814D01*
X21077Y253844D01*
X21017Y253883D01*
X20966Y253896D01*
X20919Y253918D01*
X20848Y253925D01*
X20778Y253943D01*
X20726Y253939D01*
X20675Y253945D01*
X20604Y253929D01*
X20533Y253924D01*
X20485Y253904D01*
X20434Y253892D01*
X20373Y253856D01*
X20307Y253828D01*
X20251Y253783D01*
X20223Y253766D01*
X20208Y253748D01*
X20176Y253723D01*
X18029Y251576D01*
X15601Y250570D01*
X-19174Y250570D01*
X-19264Y250556D01*
X-19355Y250548D01*
X-19385Y250536D01*
X-19417Y250531D01*
X-19497Y250488D01*
X-19581Y250452D01*
X-19613Y250426D01*
X-19634Y250415D01*
X-19656Y250392D01*
X-19712Y250347D01*
X-26510Y243550D01*
X-26563Y243476D01*
X-26622Y243406D01*
X-26635Y243376D01*
X-26653Y243350D01*
X-26680Y243263D01*
X-26714Y243178D01*
X-26719Y243137D01*
X-26726Y243115D01*
X-26725Y243083D01*
X-26733Y243011D01*
X-26733Y206336D01*
X-26730Y206316D01*
X-26732Y206297D01*
X-26710Y206195D01*
X-26693Y206093D01*
X-26684Y206076D01*
X-26679Y206056D01*
X-26626Y205967D01*
X-26578Y205876D01*
X-26564Y205862D01*
X-26553Y205845D01*
X-26475Y205778D01*
X-26400Y205706D01*
X-26382Y205698D01*
X-26366Y205685D01*
X-26270Y205646D01*
X-26177Y205603D01*
X-26157Y205601D01*
X-26138Y205593D01*
X-25972Y205575D01*
X-22368Y205575D01*
X-21475Y204682D01*
X-21475Y175418D01*
X-22368Y174525D01*
X-51632Y174525D01*
X-52525Y175418D01*
X-52525Y204682D01*
X-51632Y205575D01*
X-40703Y205575D01*
X-40684Y205578D01*
X-40664Y205576D01*
X-40563Y205598D01*
X-40461Y205614D01*
X-40443Y205624D01*
X-40424Y205628D01*
X-40335Y205681D01*
X-40243Y205730D01*
X-40230Y205744D01*
X-40213Y205754D01*
X-40145Y205833D01*
X-40074Y205908D01*
X-40066Y205926D01*
X-40053Y205941D01*
X-40014Y206037D01*
X-39970Y206131D01*
X-39968Y206151D01*
X-39961Y206169D01*
X-39942Y206336D01*
X-39942Y247376D01*
X-38937Y249804D01*
X-25966Y262774D01*
X-23539Y263780D01*
X-6711Y263780D01*
X-6640Y263791D01*
X-6568Y263793D01*
X-6519Y263811D01*
X-6468Y263819D01*
X-6405Y263853D01*
X-6337Y263878D01*
X-6297Y263910D01*
X-6251Y263935D01*
X-6201Y263987D01*
X-6145Y264031D01*
X-6117Y264075D01*
X-6081Y264113D01*
X-6051Y264178D01*
X-6012Y264238D01*
X-6000Y264289D01*
X-5978Y264336D01*
X-5970Y264407D01*
X-5952Y264477D01*
X-5956Y264529D01*
X-5950Y264580D01*
X-5966Y264651D01*
X-5971Y264722D01*
X-5992Y264770D01*
X-6003Y264821D01*
X-6040Y264882D01*
X-6068Y264948D01*
X-6112Y265004D01*
X-6129Y265032D01*
X-6147Y265047D01*
X-6172Y265079D01*
X-8478Y267385D01*
X-10001Y271061D01*
X-10001Y275039D01*
X-8478Y278715D01*
X-5665Y281528D01*
X-1989Y283051D01*
X1989Y283051D01*
X5665Y281528D01*
X8478Y278715D01*
X10001Y275039D01*
X10001Y271061D01*
X8478Y267385D01*
X6172Y265079D01*
X6131Y265021D01*
X6081Y264969D01*
X6059Y264922D01*
X6029Y264880D01*
X6008Y264811D01*
X5978Y264746D01*
X5972Y264694D01*
X5957Y264644D01*
X5958Y264573D01*
X5950Y264502D01*
X5962Y264451D01*
X5963Y264399D01*
X5988Y264331D01*
X6003Y264261D01*
X6029Y264216D01*
X6047Y264168D01*
X6092Y264112D01*
X6129Y264050D01*
X6168Y264016D01*
X6201Y263976D01*
X6261Y263937D01*
X6316Y263890D01*
X6364Y263871D01*
X6408Y263843D01*
X6477Y263825D01*
X6544Y263798D01*
X6615Y263790D01*
X6646Y263782D01*
X6670Y263784D01*
X6711Y263780D01*
X11236Y263780D01*
X11326Y263794D01*
X11417Y263802D01*
X11447Y263814D01*
X11479Y263819D01*
X11560Y263862D01*
X11644Y263898D01*
X11676Y263924D01*
X11697Y263935D01*
X11719Y263958D01*
X11775Y264003D01*
X17421Y269649D01*
X19849Y270655D01*
X20714Y270655D01*
X20734Y270658D01*
X20753Y270656D01*
X20855Y270678D01*
X20957Y270694D01*
X20974Y270704D01*
X20994Y270708D01*
X21083Y270761D01*
X21174Y270810D01*
X21188Y270824D01*
X21205Y270834D01*
X21272Y270913D01*
X21344Y270988D01*
X21352Y271006D01*
X21365Y271021D01*
X21404Y271117D01*
X21447Y271211D01*
X21449Y271231D01*
X21457Y271249D01*
X21475Y271416D01*
X21475Y275682D01*
X22368Y276575D01*
X51632Y276575D01*
X52525Y275682D01*
X52525Y273024D01*
X52536Y272957D01*
X52537Y272889D01*
X52555Y272836D01*
X52564Y272781D01*
X52596Y272721D01*
X52619Y272657D01*
X52653Y272613D01*
X52680Y272564D01*
X52729Y272517D01*
X52771Y272464D01*
X52817Y272433D01*
X52858Y272394D01*
X52919Y272366D01*
X52976Y272329D01*
X53030Y272314D01*
X53081Y272291D01*
X53148Y272283D01*
X53214Y272266D01*
X53270Y272270D01*
X53325Y272264D01*
X53392Y272278D01*
X53459Y272283D01*
X53511Y272304D01*
X53566Y272316D01*
X53624Y272351D01*
X53687Y272377D01*
X53729Y272413D01*
X53777Y272442D01*
X53821Y272494D01*
X53872Y272538D01*
X53915Y272604D01*
X53937Y272629D01*
X53945Y272648D01*
X53964Y272678D01*
X54441Y273615D01*
X55381Y274909D01*
X56512Y276039D01*
X57806Y276979D01*
X59231Y277706D01*
X60752Y278200D01*
X61608Y278335D01*
X61608Y269051D01*
X61612Y269032D01*
X61609Y269012D01*
X61631Y268911D01*
X61648Y268809D01*
X61657Y268791D01*
X61662Y268772D01*
X61715Y268683D01*
X61763Y268591D01*
X61778Y268578D01*
X61788Y268560D01*
X61867Y268493D01*
X61942Y268422D01*
X61960Y268413D01*
X61975Y268401D01*
X62071Y268362D01*
X62165Y268318D01*
X62184Y268316D01*
X62203Y268309D01*
X62370Y268290D01*
X63894Y268290D01*
X63913Y268293D01*
X63933Y268291D01*
X64034Y268313D01*
X64136Y268330D01*
X64154Y268339D01*
X64173Y268343D01*
X64262Y268397D01*
X64354Y268445D01*
X64367Y268459D01*
X64384Y268470D01*
X64452Y268548D01*
X64523Y268623D01*
X64531Y268641D01*
X64544Y268656D01*
X64583Y268753D01*
X64627Y268846D01*
X64629Y268866D01*
X64636Y268885D01*
X64655Y269051D01*
X64655Y278335D01*
X65511Y278200D01*
X67032Y277706D01*
X68457Y276979D01*
X69751Y276039D01*
X70882Y274909D01*
X71822Y273615D01*
X72359Y272560D01*
X72399Y272505D01*
X72431Y272445D01*
X72472Y272407D01*
X72505Y272362D01*
X72560Y272322D01*
X72610Y272276D01*
X72660Y272252D01*
X72706Y272220D01*
X72771Y272201D01*
X72833Y272172D01*
X72888Y272166D01*
X72942Y272150D01*
X73010Y272153D01*
X73077Y272145D01*
X73132Y272157D01*
X73188Y272159D01*
X73251Y272183D01*
X73317Y272197D01*
X73366Y272226D01*
X73418Y272246D01*
X73470Y272289D01*
X73529Y272324D01*
X73565Y272366D01*
X73608Y272402D01*
X73644Y272459D01*
X73688Y272510D01*
X73709Y272562D01*
X73739Y272610D01*
X73755Y272676D01*
X73780Y272739D01*
X73789Y272817D01*
X73797Y272849D01*
X73795Y272870D01*
X73799Y272905D01*
X73799Y274392D01*
X78820Y279413D01*
X78873Y279487D01*
X78933Y279557D01*
X78945Y279587D01*
X78964Y279613D01*
X78991Y279700D01*
X79025Y279785D01*
X79029Y279826D01*
X79036Y279848D01*
X79035Y279880D01*
X79043Y279952D01*
X79043Y280696D01*
X79024Y280812D01*
X79006Y280930D01*
X79004Y280934D01*
X79004Y280939D01*
X78949Y281043D01*
X78894Y281149D01*
X78891Y281152D01*
X78888Y281156D01*
X78802Y281238D01*
X78718Y281320D01*
X78713Y281322D01*
X78710Y281326D01*
X78602Y281376D01*
X78496Y281427D01*
X78491Y281427D01*
X78487Y281429D01*
X78370Y281442D01*
X78252Y281457D01*
X78246Y281456D01*
X78243Y281456D01*
X78228Y281453D01*
X78164Y281443D01*
X77622Y281757D01*
X77591Y281769D01*
X77511Y281810D01*
X76933Y282030D01*
X76878Y282100D01*
X76827Y282178D01*
X76803Y282197D01*
X76784Y282221D01*
X76649Y282320D01*
X75557Y282952D01*
X75529Y282963D01*
X75504Y282981D01*
X75415Y283007D01*
X75327Y283040D01*
X75297Y283041D01*
X75268Y283049D01*
X75169Y283050D01*
X74685Y283446D01*
X74657Y283462D01*
X74585Y283516D01*
X74049Y283825D01*
X74006Y283904D01*
X73968Y283989D01*
X73948Y284011D01*
X73933Y284038D01*
X73816Y284158D01*
X72839Y284957D01*
X72813Y284972D01*
X72791Y284993D01*
X72707Y285033D01*
X72626Y285080D01*
X72596Y285086D01*
X72569Y285099D01*
X72471Y285116D01*
X72058Y285584D01*
X72032Y285604D01*
X71969Y285669D01*
X71491Y286060D01*
X71461Y286145D01*
X71437Y286235D01*
X71420Y286260D01*
X71410Y286289D01*
X71313Y286426D01*
X70478Y287371D01*
X70454Y287391D01*
X70436Y287415D01*
X70360Y287468D01*
X70287Y287527D01*
X70259Y287538D01*
X70234Y287555D01*
X70140Y287587D01*
X69900Y287969D01*
X69865Y288008D01*
X69838Y288053D01*
X69784Y288100D01*
X69737Y288153D01*
X69691Y288179D01*
X69651Y288213D01*
X69585Y288240D01*
X69523Y288275D01*
X69471Y288286D01*
X69422Y288305D01*
X69310Y288318D01*
X69282Y288323D01*
X69272Y288322D01*
X69256Y288324D01*
X-20714Y288324D01*
X-20734Y288321D01*
X-20753Y288323D01*
X-20855Y288301D01*
X-20957Y288284D01*
X-20974Y288275D01*
X-20994Y288270D01*
X-21083Y288217D01*
X-21174Y288169D01*
X-21188Y288155D01*
X-21205Y288144D01*
X-21272Y288066D01*
X-21344Y287991D01*
X-21352Y287973D01*
X-21365Y287957D01*
X-21404Y287861D01*
X-21447Y287768D01*
X-21449Y287748D01*
X-21457Y287729D01*
X-21475Y287563D01*
X-21475Y272418D01*
X-22368Y271525D01*
X-41306Y271525D01*
X-41396Y271511D01*
X-41487Y271503D01*
X-41517Y271491D01*
X-41549Y271486D01*
X-41629Y271443D01*
X-41713Y271407D01*
X-41745Y271381D01*
X-41766Y271370D01*
X-41788Y271347D01*
X-41844Y271302D01*
X-46195Y266952D01*
X-46248Y266878D01*
X-46307Y266808D01*
X-46319Y266778D01*
X-46338Y266752D01*
X-46365Y266665D01*
X-46399Y266580D01*
X-46404Y266539D01*
X-46411Y266517D01*
X-46410Y266487D01*
X-47810Y263107D01*
X-50382Y260535D01*
X-53744Y259143D01*
X-57381Y259143D01*
X-60743Y260535D01*
X-63315Y263107D01*
X-64707Y266469D01*
X-64707Y270106D01*
X-63315Y273468D01*
X-60743Y276040D01*
X-57381Y277432D01*
X-53744Y277432D01*
X-53577Y277363D01*
X-53533Y277353D01*
X-53491Y277334D01*
X-53414Y277325D01*
X-53338Y277307D01*
X-53292Y277312D01*
X-53247Y277306D01*
X-53170Y277323D01*
X-53093Y277330D01*
X-53051Y277349D01*
X-53006Y277359D01*
X-52939Y277399D01*
X-52868Y277430D01*
X-52834Y277461D01*
X-52795Y277485D01*
X-52744Y277544D01*
X-52687Y277597D01*
X-52665Y277637D01*
X-52635Y277672D01*
X-52606Y277744D01*
X-52569Y277812D01*
X-52560Y277857D01*
X-52543Y277900D01*
X-52528Y278036D01*
X-52525Y278054D01*
X-52526Y278059D01*
X-52525Y278067D01*
X-52525Y287563D01*
X-52528Y287582D01*
X-52526Y287602D01*
X-52548Y287703D01*
X-52564Y287805D01*
X-52574Y287823D01*
X-52578Y287842D01*
X-52631Y287931D01*
X-52680Y288023D01*
X-52694Y288036D01*
X-52704Y288053D01*
X-52783Y288121D01*
X-52858Y288192D01*
X-52876Y288200D01*
X-52891Y288213D01*
X-52987Y288252D01*
X-53081Y288296D01*
X-53101Y288298D01*
X-53119Y288305D01*
X-53286Y288324D01*
X-63562Y288324D01*
X-63627Y288313D01*
X-63692Y288313D01*
X-63772Y288289D01*
X-63805Y288284D01*
X-63822Y288275D01*
X-63853Y288266D01*
X-64161Y288138D01*
X-66385Y288138D01*
X-66693Y288266D01*
X-66756Y288281D01*
X-66817Y288305D01*
X-66900Y288314D01*
X-66932Y288322D01*
X-66952Y288320D01*
X-66984Y288324D01*
X-69256Y288324D01*
X-69308Y288315D01*
X-69361Y288317D01*
X-69429Y288295D01*
X-69499Y288284D01*
X-69545Y288259D01*
X-69596Y288244D01*
X-69653Y288202D01*
X-69716Y288169D01*
X-69752Y288131D01*
X-69795Y288100D01*
X-69866Y288011D01*
X-69885Y287991D01*
X-69890Y287981D01*
X-69900Y287969D01*
X-70137Y287593D01*
X-70217Y287552D01*
X-70303Y287517D01*
X-70326Y287498D01*
X-70354Y287484D01*
X-70478Y287371D01*
X-71313Y286426D01*
X-71330Y286400D01*
X-71351Y286379D01*
X-71395Y286297D01*
X-71444Y286218D01*
X-71451Y286188D01*
X-71466Y286162D01*
X-71486Y286064D01*
X-71969Y285669D01*
X-71991Y285644D01*
X-72058Y285584D01*
X-72467Y285121D01*
X-72553Y285094D01*
X-72644Y285073D01*
X-72670Y285057D01*
X-72698Y285048D01*
X-72839Y284957D01*
X-73816Y284158D01*
X-73836Y284135D01*
X-73861Y284118D01*
X-73917Y284043D01*
X-73978Y283973D01*
X-73990Y283945D01*
X-74008Y283921D01*
X-74044Y283828D01*
X-74585Y283516D01*
X-74610Y283495D01*
X-74685Y283446D01*
X-75164Y283054D01*
X-75253Y283042D01*
X-75346Y283036D01*
X-75374Y283024D01*
X-75404Y283020D01*
X-75557Y282952D01*
X-76649Y282320D01*
X-76673Y282301D01*
X-76700Y282288D01*
X-76767Y282223D01*
X-76839Y282164D01*
X-76855Y282139D01*
X-76877Y282118D01*
X-76928Y282032D01*
X-77511Y281810D01*
X-77540Y281793D01*
X-77622Y281757D01*
X-78157Y281447D01*
X-78247Y281449D01*
X-78340Y281458D01*
X-78369Y281451D01*
X-78399Y281452D01*
X-78562Y281410D01*
X-79741Y280961D01*
X-79767Y280946D01*
X-79796Y280938D01*
X-79873Y280885D01*
X-79954Y280838D01*
X-79974Y280815D01*
X-79999Y280798D01*
X-80062Y280721D01*
X-80674Y280596D01*
X-80704Y280584D01*
X-80791Y280561D01*
X-81369Y280341D01*
X-81458Y280357D01*
X-81548Y280381D01*
X-81578Y280379D01*
X-81608Y280385D01*
X-81775Y280369D01*
X-83011Y280116D01*
X-83039Y280105D01*
X-83069Y280101D01*
X-83154Y280061D01*
X-83241Y280028D01*
X-83264Y280009D01*
X-83291Y279995D01*
X-83366Y279930D01*
X-83990Y279904D01*
X-84022Y279898D01*
X-84112Y279889D01*
X-84922Y279723D01*
X-84929Y279724D01*
X-84971Y279714D01*
X-85014Y279713D01*
X-85090Y279686D01*
X-85169Y279668D01*
X-85205Y279646D01*
X-85246Y279631D01*
X-85309Y279582D01*
X-85378Y279539D01*
X-85406Y279506D01*
X-85439Y279480D01*
X-85528Y279359D01*
X-85536Y279350D01*
X-85536Y279348D01*
X-85539Y279345D01*
X-86735Y277272D01*
X-86780Y277155D01*
X-86821Y277046D01*
X-86821Y277044D01*
X-86822Y277042D01*
X-86827Y276922D01*
X-86832Y276800D01*
X-86831Y276798D01*
X-86831Y276796D01*
X-86797Y276682D01*
X-86763Y276564D01*
X-86762Y276562D01*
X-86761Y276560D01*
X-86693Y276463D01*
X-86623Y276362D01*
X-86621Y276361D01*
X-86620Y276359D01*
X-86523Y276288D01*
X-86426Y276215D01*
X-86424Y276215D01*
X-86422Y276213D01*
X-86305Y276176D01*
X-86192Y276139D01*
X-86190Y276139D01*
X-86188Y276139D01*
X-86066Y276140D01*
X-85946Y276142D01*
X-85943Y276142D01*
X-85942Y276142D01*
X-85934Y276145D01*
X-85785Y276188D01*
X-82781Y277432D01*
X-79144Y277432D01*
X-75782Y276040D01*
X-73210Y273468D01*
X-71818Y270106D01*
X-71818Y266469D01*
X-73210Y263107D01*
X-75782Y260535D01*
X-79144Y259143D01*
X-82781Y259143D01*
X-86143Y260535D01*
X-88715Y263107D01*
X-90107Y266469D01*
X-90107Y268591D01*
X-90115Y268638D01*
X-90113Y268686D01*
X-90135Y268759D01*
X-90147Y268833D01*
X-90169Y268876D01*
X-90183Y268922D01*
X-90227Y268984D01*
X-90262Y269051D01*
X-90297Y269084D01*
X-90324Y269123D01*
X-90385Y269168D01*
X-90440Y269220D01*
X-90484Y269240D01*
X-90523Y269269D01*
X-90595Y269292D01*
X-90663Y269324D01*
X-90711Y269329D01*
X-90757Y269344D01*
X-90833Y269342D01*
X-90908Y269351D01*
X-90955Y269341D01*
X-91003Y269340D01*
X-91074Y269315D01*
X-91148Y269299D01*
X-91189Y269274D01*
X-91235Y269258D01*
X-91294Y269211D01*
X-91359Y269172D01*
X-91391Y269136D01*
X-91428Y269106D01*
X-91505Y269002D01*
X-91519Y268985D01*
X-91522Y268979D01*
X-91528Y268971D01*
X-99084Y255882D01*
X-99125Y255775D01*
X-99168Y255669D01*
X-99169Y255659D01*
X-99171Y255652D01*
X-99172Y255630D01*
X-99186Y255502D01*
X-99186Y250280D01*
X-99172Y250190D01*
X-99164Y250099D01*
X-99152Y250069D01*
X-99147Y250037D01*
X-99104Y249957D01*
X-99068Y249873D01*
X-99042Y249841D01*
X-99031Y249820D01*
X-99008Y249798D01*
X-98963Y249742D01*
X-90512Y241291D01*
X-89661Y239237D01*
X-89661Y219369D01*
X-89647Y219278D01*
X-89639Y219188D01*
X-89627Y219158D01*
X-89622Y219126D01*
X-89579Y219045D01*
X-89543Y218961D01*
X-89517Y218929D01*
X-89506Y218908D01*
X-89483Y218886D01*
X-89438Y218830D01*
X-86910Y216302D01*
X-86060Y214248D01*
X-86060Y204677D01*
X-86910Y202623D01*
X-93678Y195855D01*
X-95732Y195004D01*
X-98402Y195004D01*
X-98492Y194989D01*
X-98583Y194982D01*
X-98613Y194969D01*
X-98645Y194964D01*
X-98726Y194921D01*
X-98810Y194886D01*
X-98842Y194860D01*
X-98862Y194849D01*
X-98885Y194826D01*
X-98941Y194781D01*
X-107959Y185762D01*
X-110013Y184911D01*
X-137070Y184911D01*
X-137160Y184897D01*
X-137251Y184889D01*
X-137281Y184877D01*
X-137312Y184872D01*
X-137393Y184829D01*
X-137477Y184793D01*
X-137509Y184767D01*
X-137530Y184756D01*
X-137552Y184733D01*
X-137608Y184688D01*
X-143639Y178657D01*
X-143648Y178645D01*
X-143661Y178635D01*
X-143760Y178500D01*
X-154077Y160629D01*
X-154118Y160522D01*
X-154160Y160417D01*
X-154161Y160407D01*
X-154164Y160399D01*
X-154169Y160285D01*
X-154175Y160171D01*
X-154173Y160160D01*
X-154173Y160153D01*
X-154167Y160130D01*
X-154140Y160007D01*
X-153849Y159135D01*
X-153841Y159120D01*
X-153838Y159107D01*
X-153826Y159086D01*
X-153801Y159022D01*
X-153514Y158475D01*
X-153519Y158385D01*
X-153532Y158293D01*
X-153527Y158263D01*
X-153528Y158233D01*
X-153493Y158069D01*
X-153091Y156866D01*
X-153077Y156839D01*
X-153070Y156810D01*
X-153020Y156731D01*
X-152977Y156648D01*
X-152955Y156627D01*
X-152946Y156613D01*
X-152945Y156612D01*
X-152939Y156602D01*
X-152865Y156535D01*
X-152765Y155919D01*
X-152754Y155888D01*
X-152736Y155800D01*
X-152540Y155213D01*
X-152560Y155126D01*
X-152587Y155037D01*
X-152586Y155007D01*
X-152593Y154977D01*
X-152585Y154809D01*
X-152381Y153558D01*
X-152372Y153529D01*
X-152369Y153499D01*
X-152333Y153413D01*
X-152303Y153325D01*
X-152285Y153300D01*
X-152273Y153273D01*
X-152211Y153195D01*
X-152211Y152570D01*
X-152205Y152538D01*
X-152204Y152500D01*
X-152204Y152496D01*
X-152203Y152492D01*
X-152201Y152448D01*
X-152102Y151838D01*
X-152135Y151755D01*
X-152177Y151671D01*
X-152181Y151641D01*
X-152192Y151613D01*
X-152211Y151447D01*
X-152211Y150178D01*
X-152206Y150149D01*
X-152208Y150118D01*
X-152186Y150028D01*
X-152171Y149936D01*
X-152157Y149909D01*
X-152150Y149879D01*
X-152101Y149793D01*
X-152201Y149177D01*
X-152201Y149144D01*
X-152211Y149055D01*
X-152211Y148436D01*
X-152233Y148400D01*
X-152237Y148396D01*
X-152242Y148385D01*
X-152257Y148359D01*
X-152312Y148284D01*
X-152321Y148255D01*
X-152336Y148229D01*
X-152381Y148067D01*
X-152585Y146816D01*
X-152585Y146785D01*
X-152592Y146756D01*
X-152584Y146663D01*
X-152584Y146570D01*
X-152575Y146541D01*
X-152572Y146511D01*
X-152538Y146417D01*
X-152736Y145825D01*
X-152741Y145793D01*
X-152765Y145706D01*
X-152864Y145096D01*
X-152922Y145028D01*
X-152988Y144962D01*
X-153002Y144934D01*
X-153021Y144911D01*
X-153092Y144759D01*
X-153493Y143556D01*
X-153498Y143526D01*
X-153510Y143498D01*
X-153517Y143405D01*
X-153532Y143313D01*
X-153527Y143283D01*
X-153530Y143253D01*
X-153511Y143156D01*
X-153801Y142603D01*
X-153811Y142572D01*
X-153849Y142490D01*
X-154140Y141618D01*
X-154158Y141505D01*
X-154179Y141393D01*
X-154178Y141384D01*
X-154179Y141375D01*
X-154161Y141263D01*
X-154145Y141150D01*
X-154140Y141140D01*
X-154139Y141132D01*
X-154128Y141112D01*
X-154077Y140996D01*
X-148097Y130637D01*
X-148087Y130625D01*
X-148081Y130610D01*
X-147976Y130479D01*
X-136021Y118524D01*
X-135947Y118471D01*
X-135877Y118412D01*
X-135847Y118399D01*
X-135821Y118381D01*
X-135734Y118354D01*
X-135649Y118320D01*
X-135608Y118315D01*
X-135586Y118308D01*
X-135554Y118309D01*
X-135482Y118301D01*
X-110013Y118301D01*
X-107959Y117450D01*
X-85750Y95241D01*
X-84899Y93187D01*
X-84899Y22518D01*
X-84888Y22453D01*
X-84887Y22386D01*
X-84868Y22332D01*
X-84859Y22275D01*
X-84828Y22217D01*
X-84806Y22154D01*
X-84771Y22109D01*
X-84744Y22058D01*
X-84696Y22012D01*
X-84655Y21960D01*
X-84607Y21928D01*
X-84566Y21889D01*
X-84505Y21861D01*
X-84450Y21824D01*
X-84372Y21799D01*
X-84343Y21785D01*
X-84323Y21783D01*
X-84291Y21772D01*
X-84112Y21736D01*
X-84079Y21734D01*
X-83990Y21721D01*
X-83372Y21695D01*
X-83298Y21646D01*
X-83224Y21588D01*
X-83196Y21578D01*
X-83170Y21561D01*
X-83011Y21509D01*
X-81775Y21256D01*
X-81744Y21254D01*
X-81715Y21246D01*
X-81622Y21249D01*
X-81529Y21246D01*
X-81500Y21254D01*
X-81470Y21255D01*
X-81375Y21286D01*
X-80791Y21064D01*
X-80759Y21057D01*
X-80674Y21029D01*
X-80068Y20905D01*
X-80002Y20844D01*
X-79939Y20776D01*
X-79912Y20761D01*
X-79890Y20740D01*
X-79741Y20664D01*
X-78562Y20215D01*
X-78532Y20209D01*
X-78505Y20196D01*
X-78412Y20184D01*
X-78321Y20166D01*
X-78291Y20170D01*
X-78261Y20166D01*
X-78162Y20181D01*
X-77622Y19868D01*
X-77591Y19856D01*
X-77511Y19815D01*
X-76933Y19595D01*
X-76878Y19525D01*
X-76827Y19447D01*
X-76803Y19428D01*
X-76784Y19404D01*
X-76649Y19305D01*
X-75557Y18673D01*
X-75529Y18662D01*
X-75504Y18644D01*
X-75415Y18618D01*
X-75327Y18585D01*
X-75297Y18584D01*
X-75268Y18576D01*
X-75169Y18575D01*
X-74685Y18179D01*
X-74657Y18163D01*
X-74585Y18109D01*
X-74049Y17800D01*
X-74006Y17721D01*
X-73968Y17636D01*
X-73948Y17614D01*
X-73933Y17587D01*
X-73816Y17467D01*
X-72839Y16668D01*
X-72813Y16653D01*
X-72791Y16632D01*
X-72707Y16592D01*
X-72626Y16545D01*
X-72596Y16539D01*
X-72569Y16526D01*
X-72471Y16509D01*
X-72058Y16041D01*
X-72032Y16021D01*
X-71969Y15956D01*
X-71491Y15565D01*
X-71461Y15480D01*
X-71437Y15390D01*
X-71420Y15365D01*
X-71410Y15336D01*
X-71313Y15199D01*
X-70478Y14254D01*
X-70454Y14234D01*
X-70436Y14210D01*
X-70360Y14157D01*
X-70287Y14098D01*
X-70259Y14087D01*
X-70234Y14070D01*
X-70140Y14038D01*
X-69900Y13656D01*
X-69865Y13617D01*
X-69838Y13572D01*
X-69784Y13525D01*
X-69737Y13472D01*
X-69691Y13446D01*
X-69651Y13412D01*
X-69585Y13385D01*
X-69523Y13350D01*
X-69471Y13339D01*
X-69422Y13320D01*
X-69310Y13307D01*
X-69282Y13302D01*
X-69272Y13303D01*
X-69256Y13301D01*
X-47305Y13301D01*
X-47215Y13316D01*
X-47124Y13323D01*
X-47094Y13336D01*
X-47063Y13341D01*
X-46982Y13384D01*
X-46898Y13419D01*
X-46866Y13445D01*
X-46845Y13456D01*
X-46823Y13479D01*
X-46767Y13524D01*
X-28969Y31322D01*
X-28916Y31396D01*
X-28857Y31465D01*
X-28844Y31496D01*
X-28826Y31522D01*
X-28799Y31609D01*
X-28765Y31694D01*
X-28760Y31734D01*
X-28753Y31757D01*
X-28754Y31789D01*
X-28746Y31860D01*
X-28746Y34948D01*
X-27895Y37002D01*
X-22807Y42091D01*
X-21127Y43770D01*
X-19073Y44621D01*
X10231Y44621D01*
X12285Y43770D01*
X43367Y12688D01*
X43441Y12635D01*
X43510Y12576D01*
X43541Y12563D01*
X43567Y12545D01*
X43654Y12518D01*
X43739Y12484D01*
X43779Y12479D01*
X43802Y12472D01*
X43834Y12473D01*
X43905Y12465D01*
X68554Y12465D01*
X68667Y12484D01*
G37*
G36*
X131941Y198380D02*
X131941Y198380D01*
X131984Y198379D01*
X135977Y198979D01*
X136007Y198990D01*
X136050Y198996D01*
X139909Y200185D01*
X139937Y200200D01*
X139978Y200212D01*
X143616Y201963D01*
X143638Y201979D01*
X143664Y201989D01*
X143717Y202039D01*
X143775Y202083D01*
X143788Y202106D01*
X143808Y202125D01*
X143838Y202192D01*
X143874Y202255D01*
X143877Y202282D01*
X143888Y202307D01*
X143889Y202380D01*
X143898Y202453D01*
X143890Y202479D01*
X143890Y202506D01*
X143854Y202605D01*
X143842Y202644D01*
X143836Y202651D01*
X143832Y202662D01*
X116832Y249462D01*
X116814Y249482D01*
X116803Y249507D01*
X116749Y249556D01*
X116701Y249611D01*
X116676Y249623D01*
X116656Y249641D01*
X116587Y249665D01*
X116521Y249697D01*
X116494Y249698D01*
X116469Y249707D01*
X116396Y249702D01*
X116323Y249706D01*
X116297Y249696D01*
X116270Y249695D01*
X116174Y249651D01*
X116136Y249636D01*
X116129Y249630D01*
X116119Y249625D01*
X112782Y247352D01*
X112760Y247329D01*
X112724Y247305D01*
X109763Y244560D01*
X109744Y244534D01*
X109712Y244505D01*
X107194Y241349D01*
X107179Y241321D01*
X107152Y241288D01*
X105132Y237791D01*
X105122Y237761D01*
X105099Y237724D01*
X103623Y233966D01*
X103618Y233935D01*
X103601Y233895D01*
X102701Y229959D01*
X102701Y229927D01*
X102690Y229885D01*
X102387Y225859D01*
X102390Y225835D01*
X102387Y225815D01*
X102389Y225806D01*
X102387Y225784D01*
X102688Y221758D01*
X102696Y221727D01*
X102699Y221684D01*
X103596Y217747D01*
X103609Y217718D01*
X103618Y217676D01*
X105092Y213917D01*
X105109Y213890D01*
X105124Y213849D01*
X107142Y210352D01*
X107163Y210328D01*
X107184Y210290D01*
X109700Y207133D01*
X109725Y207112D01*
X109751Y207078D01*
X112710Y204331D01*
X112737Y204314D01*
X112768Y204284D01*
X116104Y202009D01*
X116133Y201996D01*
X116168Y201971D01*
X119806Y200218D01*
X119836Y200211D01*
X119875Y200191D01*
X123733Y199000D01*
X123765Y198997D01*
X123806Y198983D01*
X127798Y198380D01*
X127830Y198382D01*
X127872Y198374D01*
X131910Y198373D01*
X131941Y198380D01*
G37*
G36*
X-127872Y198374D02*
X-127872Y198374D01*
X-127841Y198381D01*
X-127798Y198380D01*
X-123806Y198983D01*
X-123776Y198994D01*
X-123733Y199000D01*
X-119875Y200191D01*
X-119847Y200206D01*
X-119806Y200218D01*
X-116168Y201971D01*
X-116143Y201991D01*
X-116104Y202009D01*
X-112768Y204284D01*
X-112746Y204307D01*
X-112710Y204331D01*
X-109751Y207078D01*
X-109732Y207104D01*
X-109700Y207133D01*
X-107184Y210290D01*
X-107169Y210319D01*
X-107142Y210352D01*
X-105124Y213849D01*
X-105114Y213880D01*
X-105092Y213917D01*
X-103618Y217676D01*
X-103612Y217707D01*
X-103596Y217747D01*
X-102699Y221684D01*
X-102698Y221716D01*
X-102688Y221758D01*
X-102387Y225784D01*
X-102391Y225816D01*
X-102390Y225832D01*
X-102387Y225848D01*
X-102388Y225852D01*
X-102387Y225859D01*
X-102690Y229885D01*
X-102699Y229916D01*
X-102701Y229959D01*
X-103601Y233895D01*
X-103614Y233924D01*
X-103623Y233966D01*
X-105099Y237724D01*
X-105117Y237751D01*
X-105132Y237791D01*
X-107152Y241288D01*
X-107173Y241311D01*
X-107194Y241349D01*
X-109712Y244505D01*
X-109737Y244526D01*
X-109763Y244560D01*
X-112724Y247305D01*
X-112751Y247322D01*
X-112782Y247352D01*
X-116119Y249625D01*
X-116144Y249636D01*
X-116165Y249653D01*
X-116235Y249674D01*
X-116302Y249702D01*
X-116330Y249702D01*
X-116356Y249710D01*
X-116428Y249702D01*
X-116501Y249701D01*
X-116526Y249691D01*
X-116553Y249688D01*
X-116617Y249652D01*
X-116684Y249623D01*
X-116703Y249604D01*
X-116726Y249590D01*
X-116794Y249509D01*
X-116822Y249480D01*
X-116825Y249471D01*
X-116832Y249462D01*
X-143832Y202662D01*
X-143841Y202636D01*
X-143857Y202614D01*
X-143872Y202543D01*
X-143896Y202473D01*
X-143893Y202446D01*
X-143899Y202420D01*
X-143886Y202348D01*
X-143880Y202275D01*
X-143867Y202251D01*
X-143862Y202224D01*
X-143822Y202164D01*
X-143788Y202099D01*
X-143767Y202081D01*
X-143752Y202059D01*
X-143666Y201998D01*
X-143635Y201972D01*
X-143626Y201969D01*
X-143616Y201963D01*
X-139978Y200212D01*
X-139947Y200204D01*
X-139909Y200185D01*
X-136050Y198996D01*
X-136018Y198993D01*
X-135977Y198979D01*
X-131984Y198379D01*
X-131953Y198380D01*
X-131910Y198373D01*
X-127872Y198374D01*
G37*
G36*
X116428Y51923D02*
X116428Y51923D01*
X116501Y51924D01*
X116526Y51934D01*
X116553Y51937D01*
X116617Y51973D01*
X116684Y52002D01*
X116703Y52021D01*
X116726Y52035D01*
X116794Y52116D01*
X116822Y52145D01*
X116825Y52154D01*
X116832Y52163D01*
X143832Y98963D01*
X143841Y98989D01*
X143857Y99011D01*
X143872Y99082D01*
X143896Y99152D01*
X143893Y99179D01*
X143899Y99205D01*
X143886Y99277D01*
X143880Y99350D01*
X143867Y99374D01*
X143862Y99401D01*
X143822Y99462D01*
X143788Y99526D01*
X143767Y99544D01*
X143752Y99566D01*
X143666Y99627D01*
X143635Y99653D01*
X143626Y99656D01*
X143616Y99662D01*
X139978Y101413D01*
X139947Y101421D01*
X139909Y101440D01*
X136050Y102629D01*
X136018Y102632D01*
X135977Y102646D01*
X131984Y103246D01*
X131953Y103245D01*
X131910Y103252D01*
X127872Y103251D01*
X127841Y103244D01*
X127798Y103245D01*
X123806Y102642D01*
X123776Y102631D01*
X123733Y102625D01*
X119875Y101434D01*
X119847Y101419D01*
X119806Y101407D01*
X116168Y99654D01*
X116143Y99634D01*
X116104Y99616D01*
X112768Y97341D01*
X112746Y97318D01*
X112710Y97294D01*
X109751Y94547D01*
X109732Y94521D01*
X109700Y94492D01*
X107184Y91335D01*
X107169Y91306D01*
X107142Y91273D01*
X105124Y87776D01*
X105114Y87745D01*
X105092Y87708D01*
X103618Y83949D01*
X103612Y83918D01*
X103596Y83878D01*
X102699Y79941D01*
X102698Y79909D01*
X102688Y79867D01*
X102387Y75841D01*
X102391Y75809D01*
X102387Y75766D01*
X102690Y71740D01*
X102699Y71709D01*
X102701Y71666D01*
X103601Y67730D01*
X103614Y67701D01*
X103623Y67659D01*
X105099Y63901D01*
X105117Y63874D01*
X105132Y63834D01*
X107152Y60338D01*
X107173Y60314D01*
X107194Y60276D01*
X109712Y57120D01*
X109737Y57100D01*
X109763Y57065D01*
X112724Y54320D01*
X112751Y54303D01*
X112782Y54273D01*
X116119Y52000D01*
X116144Y51989D01*
X116165Y51972D01*
X116235Y51951D01*
X116302Y51923D01*
X116330Y51923D01*
X116356Y51915D01*
X116428Y51923D01*
G37*
G36*
X-116396Y51923D02*
X-116396Y51923D01*
X-116323Y51919D01*
X-116297Y51929D01*
X-116270Y51930D01*
X-116174Y51974D01*
X-116136Y51989D01*
X-116129Y51995D01*
X-116119Y52000D01*
X-112782Y54273D01*
X-112760Y54296D01*
X-112724Y54320D01*
X-109763Y57065D01*
X-109744Y57091D01*
X-109712Y57120D01*
X-107194Y60276D01*
X-107179Y60304D01*
X-107152Y60338D01*
X-105132Y63834D01*
X-105122Y63864D01*
X-105099Y63901D01*
X-103623Y67659D01*
X-103618Y67690D01*
X-103601Y67730D01*
X-102701Y71666D01*
X-102701Y71698D01*
X-102690Y71740D01*
X-102387Y75766D01*
X-102391Y75798D01*
X-102387Y75841D01*
X-102688Y79867D01*
X-102696Y79898D01*
X-102699Y79941D01*
X-103596Y83878D01*
X-103609Y83907D01*
X-103618Y83949D01*
X-105092Y87708D01*
X-105109Y87735D01*
X-105124Y87776D01*
X-107142Y91273D01*
X-107163Y91297D01*
X-107184Y91335D01*
X-109700Y94492D01*
X-109725Y94513D01*
X-109751Y94547D01*
X-112710Y97294D01*
X-112737Y97311D01*
X-112768Y97341D01*
X-116104Y99616D01*
X-116133Y99629D01*
X-116168Y99654D01*
X-119806Y101407D01*
X-119836Y101414D01*
X-119875Y101434D01*
X-123733Y102625D01*
X-123765Y102628D01*
X-123806Y102642D01*
X-127798Y103245D01*
X-127830Y103243D01*
X-127872Y103251D01*
X-131910Y103252D01*
X-131941Y103246D01*
X-131984Y103246D01*
X-135977Y102646D01*
X-136007Y102635D01*
X-136050Y102629D01*
X-139909Y101440D01*
X-139937Y101425D01*
X-139978Y101413D01*
X-143616Y99662D01*
X-143638Y99646D01*
X-143664Y99636D01*
X-143717Y99586D01*
X-143775Y99542D01*
X-143788Y99519D01*
X-143808Y99500D01*
X-143838Y99433D01*
X-143874Y99370D01*
X-143877Y99343D01*
X-143888Y99318D01*
X-143889Y99245D01*
X-143898Y99172D01*
X-143890Y99146D01*
X-143890Y99119D01*
X-143854Y99020D01*
X-143842Y98981D01*
X-143836Y98974D01*
X-143832Y98963D01*
X-116832Y52163D01*
X-116814Y52143D01*
X-116803Y52118D01*
X-116749Y52069D01*
X-116701Y52014D01*
X-116676Y52002D01*
X-116656Y51984D01*
X-116587Y51960D01*
X-116521Y51928D01*
X-116494Y51927D01*
X-116469Y51918D01*
X-116396Y51923D01*
G37*
G36*
X27027Y319D02*
X27027Y319D01*
X27054Y316D01*
X27123Y338D01*
X27195Y353D01*
X27217Y368D01*
X27243Y377D01*
X27299Y424D01*
X27359Y465D01*
X27373Y488D01*
X27394Y506D01*
X27427Y571D01*
X27466Y633D01*
X27470Y660D01*
X27482Y684D01*
X27492Y789D01*
X27499Y829D01*
X27497Y838D01*
X27498Y850D01*
X27196Y4874D01*
X27188Y4905D01*
X27185Y4948D01*
X26287Y8882D01*
X26274Y8911D01*
X26265Y8953D01*
X24791Y12710D01*
X24774Y12737D01*
X24759Y12777D01*
X22741Y16272D01*
X22720Y16296D01*
X22699Y16333D01*
X20183Y19488D01*
X20158Y19509D01*
X20132Y19543D01*
X17174Y22288D01*
X17147Y22304D01*
X17115Y22334D01*
X13781Y24608D01*
X13752Y24620D01*
X13717Y24645D01*
X10081Y26396D01*
X10050Y26404D01*
X10011Y26423D01*
X6155Y27613D01*
X6124Y27616D01*
X6082Y27629D01*
X2092Y28231D01*
X2060Y28229D01*
X2018Y28236D01*
X-2018Y28236D01*
X-2049Y28230D01*
X-2092Y28231D01*
X-6082Y27629D01*
X-6112Y27618D01*
X-6155Y27613D01*
X-10011Y26423D01*
X-10039Y26408D01*
X-10081Y26396D01*
X-13717Y24645D01*
X-13742Y24626D01*
X-13781Y24608D01*
X-17115Y22334D01*
X-17138Y22312D01*
X-17174Y22288D01*
X-20132Y19543D01*
X-20151Y19517D01*
X-20183Y19488D01*
X-22699Y16333D01*
X-22713Y16305D01*
X-22741Y16272D01*
X-24759Y12777D01*
X-24769Y12747D01*
X-24791Y12710D01*
X-26265Y8953D01*
X-26271Y8922D01*
X-26287Y8882D01*
X-27185Y4948D01*
X-27186Y4916D01*
X-27196Y4874D01*
X-27498Y850D01*
X-27494Y823D01*
X-27499Y796D01*
X-27482Y725D01*
X-27473Y653D01*
X-27459Y629D01*
X-27453Y603D01*
X-27410Y544D01*
X-27373Y481D01*
X-27351Y464D01*
X-27335Y442D01*
X-27272Y405D01*
X-27214Y361D01*
X-27187Y355D01*
X-27164Y341D01*
X-27060Y323D01*
X-27021Y314D01*
X-27011Y315D01*
X-27000Y313D01*
X27000Y313D01*
X27027Y319D01*
G37*
%LPC*%
G36*
X31406Y77613D02*
X31406Y77613D01*
X30513Y78506D01*
X30513Y89769D01*
X31406Y90662D01*
X40154Y90662D01*
X40244Y90677D01*
X40335Y90684D01*
X40365Y90697D01*
X40397Y90702D01*
X40477Y90745D01*
X40561Y90780D01*
X40593Y90806D01*
X40614Y90817D01*
X40636Y90840D01*
X40692Y90885D01*
X87285Y137478D01*
X96457Y137478D01*
X96476Y137481D01*
X96496Y137479D01*
X96597Y137501D01*
X96699Y137518D01*
X96717Y137527D01*
X96736Y137532D01*
X96825Y137585D01*
X96917Y137633D01*
X96930Y137647D01*
X96947Y137658D01*
X97015Y137736D01*
X97086Y137811D01*
X97094Y137829D01*
X97107Y137845D01*
X97146Y137941D01*
X97190Y138034D01*
X97192Y138054D01*
X97199Y138073D01*
X97218Y138239D01*
X97218Y138725D01*
X102575Y144082D01*
X110150Y144082D01*
X115507Y138725D01*
X115507Y131150D01*
X110150Y125793D01*
X102575Y125793D01*
X97218Y131150D01*
X97218Y131636D01*
X97215Y131655D01*
X97217Y131675D01*
X97195Y131776D01*
X97178Y131878D01*
X97169Y131896D01*
X97164Y131915D01*
X97111Y132004D01*
X97063Y132096D01*
X97049Y132109D01*
X97038Y132126D01*
X96960Y132194D01*
X96885Y132265D01*
X96867Y132273D01*
X96851Y132286D01*
X96755Y132325D01*
X96662Y132369D01*
X96642Y132371D01*
X96623Y132378D01*
X96457Y132397D01*
X89705Y132397D01*
X89615Y132382D01*
X89524Y132375D01*
X89494Y132362D01*
X89462Y132357D01*
X89382Y132314D01*
X89298Y132279D01*
X89266Y132253D01*
X89245Y132242D01*
X89223Y132219D01*
X89167Y132174D01*
X49971Y92978D01*
X49929Y92920D01*
X49880Y92868D01*
X49858Y92820D01*
X49827Y92778D01*
X49806Y92710D01*
X49776Y92644D01*
X49770Y92593D01*
X49755Y92543D01*
X49757Y92471D01*
X49749Y92400D01*
X49760Y92349D01*
X49761Y92297D01*
X49786Y92230D01*
X49801Y92160D01*
X49828Y92115D01*
X49846Y92066D01*
X49891Y92010D01*
X49927Y91949D01*
X49967Y91915D01*
X50000Y91874D01*
X50060Y91835D01*
X50114Y91789D01*
X50163Y91769D01*
X50206Y91741D01*
X50276Y91724D01*
X50342Y91697D01*
X50414Y91689D01*
X50445Y91681D01*
X50468Y91683D01*
X50509Y91678D01*
X53014Y91678D01*
X53014Y85661D01*
X46497Y85661D01*
X46497Y87666D01*
X46485Y87737D01*
X46483Y87808D01*
X46465Y87857D01*
X46457Y87909D01*
X46424Y87972D01*
X46399Y88039D01*
X46366Y88080D01*
X46342Y88126D01*
X46290Y88175D01*
X46245Y88231D01*
X46201Y88259D01*
X46164Y88295D01*
X46099Y88326D01*
X46038Y88364D01*
X45988Y88377D01*
X45941Y88399D01*
X45869Y88407D01*
X45800Y88424D01*
X45748Y88420D01*
X45696Y88426D01*
X45626Y88411D01*
X45554Y88405D01*
X45507Y88385D01*
X45456Y88374D01*
X45394Y88337D01*
X45328Y88309D01*
X45272Y88264D01*
X45245Y88248D01*
X45229Y88230D01*
X45197Y88204D01*
X44785Y87792D01*
X44732Y87718D01*
X44673Y87649D01*
X44661Y87619D01*
X44642Y87592D01*
X44615Y87505D01*
X44581Y87420D01*
X44576Y87380D01*
X44569Y87357D01*
X44570Y87325D01*
X44562Y87254D01*
X44562Y78506D01*
X43669Y77613D01*
X31406Y77613D01*
G37*
%LPD*%
G36*
X163727Y133823D02*
X163727Y133823D01*
X163798Y133823D01*
X163825Y133834D01*
X163854Y133837D01*
X163916Y133873D01*
X163981Y133900D01*
X164002Y133921D01*
X164027Y133935D01*
X164090Y134012D01*
X164120Y134043D01*
X164124Y134053D01*
X164133Y134063D01*
X173633Y150563D01*
X173643Y150595D01*
X173652Y150608D01*
X173656Y150633D01*
X173657Y150636D01*
X173688Y150707D01*
X173688Y150730D01*
X173696Y150752D01*
X173690Y150829D01*
X173691Y150906D01*
X173681Y150930D01*
X173680Y150950D01*
X173659Y150990D01*
X173633Y151062D01*
X164133Y167562D01*
X164114Y167583D01*
X164101Y167610D01*
X164048Y167657D01*
X164001Y167711D01*
X163975Y167723D01*
X163954Y167743D01*
X163886Y167766D01*
X163822Y167797D01*
X163793Y167798D01*
X163766Y167807D01*
X163694Y167803D01*
X163623Y167806D01*
X163596Y167796D01*
X163567Y167794D01*
X163477Y167751D01*
X163437Y167737D01*
X163429Y167729D01*
X163416Y167723D01*
X160893Y165982D01*
X160869Y165957D01*
X160831Y165931D01*
X158619Y163807D01*
X158600Y163779D01*
X158566Y163747D01*
X156724Y161295D01*
X156710Y161265D01*
X156681Y161227D01*
X155256Y158512D01*
X155247Y158481D01*
X155231Y158456D01*
X155230Y158448D01*
X155225Y158439D01*
X154254Y155530D01*
X154250Y155496D01*
X154235Y155452D01*
X153743Y152426D01*
X153744Y152392D01*
X153736Y152346D01*
X153736Y149279D01*
X153737Y149276D01*
X153737Y149273D01*
X153743Y149247D01*
X153743Y149246D01*
X153743Y149199D01*
X154235Y146173D01*
X154247Y146141D01*
X154254Y146095D01*
X155225Y143186D01*
X155242Y143157D01*
X155256Y143113D01*
X156681Y140398D01*
X156703Y140371D01*
X156724Y140330D01*
X158566Y137878D01*
X158591Y137856D01*
X158619Y137818D01*
X160831Y135694D01*
X160859Y135676D01*
X160893Y135643D01*
X163416Y133902D01*
X163443Y133890D01*
X163465Y133872D01*
X163534Y133852D01*
X163599Y133824D01*
X163628Y133823D01*
X163656Y133815D01*
X163727Y133823D01*
G37*
G36*
X-163694Y133822D02*
X-163694Y133822D01*
X-163623Y133819D01*
X-163596Y133829D01*
X-163567Y133831D01*
X-163477Y133874D01*
X-163437Y133888D01*
X-163429Y133896D01*
X-163416Y133902D01*
X-160893Y135643D01*
X-160869Y135668D01*
X-160831Y135694D01*
X-158619Y137818D01*
X-158600Y137846D01*
X-158566Y137878D01*
X-156724Y140330D01*
X-156710Y140360D01*
X-156681Y140398D01*
X-155256Y143113D01*
X-155247Y143145D01*
X-155225Y143186D01*
X-154254Y146095D01*
X-154250Y146129D01*
X-154235Y146173D01*
X-153743Y149199D01*
X-153744Y149233D01*
X-153736Y149279D01*
X-153736Y152346D01*
X-153743Y152379D01*
X-153743Y152426D01*
X-154235Y155452D01*
X-154247Y155484D01*
X-154254Y155530D01*
X-155225Y158439D01*
X-155238Y158462D01*
X-155244Y158486D01*
X-155251Y158495D01*
X-155256Y158512D01*
X-156681Y161227D01*
X-156703Y161254D01*
X-156724Y161295D01*
X-158566Y163747D01*
X-158591Y163769D01*
X-158619Y163807D01*
X-160831Y165931D01*
X-160859Y165949D01*
X-160893Y165982D01*
X-163416Y167723D01*
X-163443Y167735D01*
X-163465Y167753D01*
X-163534Y167774D01*
X-163599Y167801D01*
X-163628Y167802D01*
X-163656Y167810D01*
X-163727Y167802D01*
X-163798Y167802D01*
X-163825Y167791D01*
X-163854Y167788D01*
X-163916Y167753D01*
X-163981Y167725D01*
X-164002Y167704D01*
X-164027Y167690D01*
X-164090Y167613D01*
X-164120Y167582D01*
X-164124Y167572D01*
X-164133Y167562D01*
X-173633Y151062D01*
X-173657Y150989D01*
X-173688Y150918D01*
X-173688Y150895D01*
X-173696Y150873D01*
X-173690Y150796D01*
X-173691Y150719D01*
X-173681Y150695D01*
X-173680Y150675D01*
X-173659Y150635D01*
X-173640Y150583D01*
X-173639Y150578D01*
X-173637Y150576D01*
X-173633Y150563D01*
X-164133Y134063D01*
X-164114Y134042D01*
X-164101Y134015D01*
X-164048Y133968D01*
X-164001Y133914D01*
X-163975Y133902D01*
X-163954Y133882D01*
X-163886Y133859D01*
X-163822Y133828D01*
X-163793Y133827D01*
X-163766Y133818D01*
X-163694Y133822D01*
G37*
G36*
X86676Y329D02*
X86676Y329D01*
X86754Y337D01*
X86773Y348D01*
X86795Y353D01*
X86859Y397D01*
X86927Y435D01*
X86943Y454D01*
X86959Y465D01*
X86983Y503D01*
X87033Y563D01*
X96533Y17063D01*
X96542Y17091D01*
X96558Y17114D01*
X96573Y17184D01*
X96596Y17252D01*
X96593Y17281D01*
X96599Y17309D01*
X96586Y17379D01*
X96580Y17450D01*
X96567Y17476D01*
X96561Y17504D01*
X96521Y17563D01*
X96488Y17627D01*
X96466Y17645D01*
X96450Y17669D01*
X96367Y17726D01*
X96335Y17753D01*
X96324Y17756D01*
X96314Y17764D01*
X93548Y19072D01*
X93515Y19080D01*
X93472Y19101D01*
X90532Y19948D01*
X90498Y19951D01*
X90454Y19964D01*
X87416Y20330D01*
X87382Y20327D01*
X87335Y20333D01*
X84278Y20206D01*
X84245Y20198D01*
X84198Y20196D01*
X81201Y19580D01*
X81170Y19567D01*
X81124Y19558D01*
X78264Y18470D01*
X78236Y18451D01*
X78192Y18435D01*
X75544Y16902D01*
X75518Y16879D01*
X75478Y16856D01*
X73110Y14918D01*
X73088Y14892D01*
X73052Y14862D01*
X71025Y12570D01*
X71009Y12540D01*
X70977Y12505D01*
X69345Y9917D01*
X69333Y9886D01*
X69308Y9846D01*
X68112Y7030D01*
X68105Y6996D01*
X68102Y6990D01*
X68098Y6983D01*
X68097Y6978D01*
X68086Y6953D01*
X67358Y3982D01*
X67356Y3948D01*
X67345Y3902D01*
X67102Y852D01*
X67106Y824D01*
X67101Y796D01*
X67118Y726D01*
X67126Y655D01*
X67141Y630D01*
X67147Y603D01*
X67190Y545D01*
X67226Y482D01*
X67248Y465D01*
X67265Y442D01*
X67327Y406D01*
X67384Y362D01*
X67412Y355D01*
X67436Y341D01*
X67536Y324D01*
X67577Y314D01*
X67587Y315D01*
X67600Y313D01*
X86600Y313D01*
X86676Y329D01*
G37*
G36*
X87369Y281298D02*
X87369Y281298D01*
X87416Y281295D01*
X90454Y281661D01*
X90486Y281671D01*
X90532Y281677D01*
X93472Y282524D01*
X93502Y282540D01*
X93548Y282553D01*
X96314Y283861D01*
X96336Y283878D01*
X96363Y283888D01*
X96415Y283937D01*
X96473Y283980D01*
X96487Y284005D01*
X96508Y284025D01*
X96537Y284090D01*
X96573Y284152D01*
X96576Y284181D01*
X96588Y284207D01*
X96589Y284279D01*
X96598Y284349D01*
X96590Y284377D01*
X96591Y284406D01*
X96555Y284500D01*
X96544Y284541D01*
X96537Y284549D01*
X96533Y284562D01*
X87033Y301062D01*
X86981Y301120D01*
X86935Y301183D01*
X86916Y301194D01*
X86901Y301211D01*
X86831Y301244D01*
X86764Y301284D01*
X86740Y301288D01*
X86722Y301297D01*
X86677Y301299D01*
X86600Y301312D01*
X67600Y301312D01*
X67572Y301306D01*
X67544Y301309D01*
X67476Y301286D01*
X67405Y301272D01*
X67382Y301256D01*
X67355Y301247D01*
X67300Y301200D01*
X67241Y301160D01*
X67226Y301136D01*
X67205Y301117D01*
X67173Y301053D01*
X67134Y300992D01*
X67129Y300964D01*
X67117Y300939D01*
X67108Y300837D01*
X67101Y300796D01*
X67103Y300786D01*
X67102Y300773D01*
X67345Y297723D01*
X67354Y297690D01*
X67358Y297643D01*
X68086Y294672D01*
X68101Y294641D01*
X68112Y294595D01*
X69308Y291779D01*
X69327Y291751D01*
X69345Y291708D01*
X70977Y289120D01*
X71001Y289095D01*
X71025Y289055D01*
X73052Y286763D01*
X73079Y286742D01*
X73110Y286707D01*
X75478Y284769D01*
X75508Y284753D01*
X75544Y284723D01*
X78192Y283190D01*
X78224Y283179D01*
X78264Y283155D01*
X81124Y282067D01*
X81157Y282061D01*
X81201Y282045D01*
X84198Y281429D01*
X84232Y281429D01*
X84278Y281419D01*
X87335Y281292D01*
X87369Y281298D01*
G37*
G36*
X-67572Y319D02*
X-67572Y319D01*
X-67544Y316D01*
X-67476Y339D01*
X-67405Y353D01*
X-67382Y369D01*
X-67355Y378D01*
X-67300Y425D01*
X-67241Y465D01*
X-67226Y489D01*
X-67205Y508D01*
X-67173Y572D01*
X-67134Y633D01*
X-67129Y661D01*
X-67117Y686D01*
X-67108Y788D01*
X-67101Y829D01*
X-67103Y839D01*
X-67102Y852D01*
X-67345Y3902D01*
X-67354Y3935D01*
X-67358Y3982D01*
X-68086Y6953D01*
X-68101Y6984D01*
X-68112Y7030D01*
X-69308Y9846D01*
X-69327Y9874D01*
X-69345Y9917D01*
X-70977Y12505D01*
X-71001Y12530D01*
X-71025Y12570D01*
X-73052Y14862D01*
X-73079Y14883D01*
X-73110Y14918D01*
X-75478Y16856D01*
X-75508Y16872D01*
X-75544Y16902D01*
X-78192Y18435D01*
X-78224Y18446D01*
X-78264Y18470D01*
X-81124Y19558D01*
X-81157Y19564D01*
X-81201Y19580D01*
X-84198Y20196D01*
X-84232Y20196D01*
X-84278Y20206D01*
X-87335Y20333D01*
X-87369Y20327D01*
X-87416Y20330D01*
X-90454Y19964D01*
X-90486Y19954D01*
X-90532Y19948D01*
X-93472Y19101D01*
X-93502Y19085D01*
X-93548Y19072D01*
X-96314Y17764D01*
X-96336Y17747D01*
X-96363Y17737D01*
X-96415Y17688D01*
X-96473Y17645D01*
X-96487Y17620D01*
X-96508Y17600D01*
X-96537Y17535D01*
X-96573Y17473D01*
X-96576Y17445D01*
X-96588Y17418D01*
X-96589Y17346D01*
X-96598Y17276D01*
X-96590Y17248D01*
X-96591Y17219D01*
X-96555Y17125D01*
X-96544Y17084D01*
X-96537Y17076D01*
X-96533Y17063D01*
X-87033Y563D01*
X-86981Y505D01*
X-86935Y442D01*
X-86916Y431D01*
X-86901Y414D01*
X-86831Y381D01*
X-86764Y341D01*
X-86740Y337D01*
X-86722Y328D01*
X-86677Y326D01*
X-86600Y313D01*
X-67600Y313D01*
X-67572Y319D01*
G37*
G36*
X-84278Y281419D02*
X-84278Y281419D01*
X-84245Y281427D01*
X-84198Y281429D01*
X-81201Y282045D01*
X-81170Y282058D01*
X-81124Y282067D01*
X-78264Y283155D01*
X-78236Y283174D01*
X-78192Y283190D01*
X-75544Y284723D01*
X-75518Y284746D01*
X-75478Y284769D01*
X-73110Y286707D01*
X-73088Y286733D01*
X-73052Y286763D01*
X-71025Y289055D01*
X-71009Y289085D01*
X-70977Y289120D01*
X-69345Y291708D01*
X-69333Y291740D01*
X-69308Y291779D01*
X-68112Y294595D01*
X-68105Y294629D01*
X-68086Y294672D01*
X-67358Y297643D01*
X-67356Y297677D01*
X-67345Y297723D01*
X-67102Y300773D01*
X-67106Y300801D01*
X-67101Y300829D01*
X-67118Y300899D01*
X-67126Y300970D01*
X-67141Y300995D01*
X-67147Y301022D01*
X-67190Y301080D01*
X-67226Y301143D01*
X-67248Y301160D01*
X-67265Y301183D01*
X-67327Y301219D01*
X-67384Y301263D01*
X-67412Y301270D01*
X-67436Y301284D01*
X-67536Y301301D01*
X-67577Y301311D01*
X-67587Y301310D01*
X-67600Y301312D01*
X-86600Y301312D01*
X-86676Y301296D01*
X-86754Y301288D01*
X-86773Y301277D01*
X-86795Y301272D01*
X-86859Y301228D01*
X-86927Y301190D01*
X-86943Y301171D01*
X-86959Y301160D01*
X-86983Y301122D01*
X-87033Y301062D01*
X-96533Y284562D01*
X-96542Y284534D01*
X-96558Y284511D01*
X-96573Y284441D01*
X-96596Y284373D01*
X-96593Y284345D01*
X-96599Y284316D01*
X-96586Y284246D01*
X-96580Y284175D01*
X-96567Y284149D01*
X-96561Y284121D01*
X-96521Y284062D01*
X-96488Y283998D01*
X-96466Y283980D01*
X-96450Y283956D01*
X-96367Y283899D01*
X-96335Y283872D01*
X-96324Y283869D01*
X-96314Y283861D01*
X-93548Y282553D01*
X-93515Y282545D01*
X-93472Y282524D01*
X-90532Y281677D01*
X-90498Y281674D01*
X-90454Y281661D01*
X-87416Y281295D01*
X-87382Y281298D01*
X-87335Y281292D01*
X-84278Y281419D01*
G37*
%LPC*%
G36*
X61606Y167600D02*
X61606Y167600D01*
X60713Y168493D01*
X60713Y180757D01*
X61606Y181650D01*
X72869Y181650D01*
X73762Y180757D01*
X73762Y178181D01*
X73765Y178161D01*
X73763Y178142D01*
X73785Y178040D01*
X73802Y177938D01*
X73811Y177921D01*
X73816Y177901D01*
X73869Y177812D01*
X73917Y177721D01*
X73931Y177707D01*
X73942Y177690D01*
X74020Y177623D01*
X74095Y177551D01*
X74113Y177543D01*
X74129Y177530D01*
X74225Y177491D01*
X74318Y177448D01*
X74338Y177446D01*
X74357Y177438D01*
X74523Y177420D01*
X75114Y177420D01*
X75134Y177423D01*
X75153Y177421D01*
X75255Y177443D01*
X75357Y177459D01*
X75374Y177469D01*
X75394Y177473D01*
X75483Y177526D01*
X75574Y177575D01*
X75588Y177589D01*
X75605Y177599D01*
X75672Y177678D01*
X75744Y177753D01*
X75752Y177771D01*
X75765Y177786D01*
X75804Y177882D01*
X75847Y177976D01*
X75849Y177996D01*
X75857Y178014D01*
X75875Y178181D01*
X75875Y179257D01*
X76768Y180150D01*
X86032Y180150D01*
X86925Y179257D01*
X86925Y169993D01*
X86032Y169100D01*
X76768Y169100D01*
X75875Y169993D01*
X75875Y171069D01*
X75872Y171089D01*
X75874Y171108D01*
X75852Y171210D01*
X75836Y171312D01*
X75826Y171329D01*
X75822Y171349D01*
X75769Y171438D01*
X75720Y171529D01*
X75706Y171543D01*
X75696Y171560D01*
X75617Y171627D01*
X75542Y171699D01*
X75524Y171707D01*
X75509Y171720D01*
X75413Y171759D01*
X75319Y171802D01*
X75299Y171804D01*
X75281Y171812D01*
X75114Y171830D01*
X74523Y171830D01*
X74504Y171827D01*
X74484Y171829D01*
X74383Y171807D01*
X74281Y171791D01*
X74263Y171781D01*
X74244Y171777D01*
X74155Y171724D01*
X74063Y171675D01*
X74050Y171661D01*
X74033Y171651D01*
X73965Y171572D01*
X73894Y171497D01*
X73886Y171479D01*
X73873Y171464D01*
X73834Y171368D01*
X73790Y171274D01*
X73788Y171254D01*
X73781Y171236D01*
X73762Y171069D01*
X73762Y168493D01*
X72869Y167600D01*
X61606Y167600D01*
G37*
%LPD*%
%LPC*%
G36*
X-95481Y165480D02*
X-95481Y165480D01*
X-98843Y166872D01*
X-101415Y169445D01*
X-102807Y172806D01*
X-102807Y176444D01*
X-101415Y179805D01*
X-98843Y182378D01*
X-95481Y183770D01*
X-91844Y183770D01*
X-88482Y182378D01*
X-85910Y179805D01*
X-84518Y176444D01*
X-84518Y172806D01*
X-85910Y169445D01*
X-88482Y166872D01*
X-91844Y165480D01*
X-95481Y165480D01*
G37*
%LPD*%
%LPC*%
G36*
X-95481Y140080D02*
X-95481Y140080D01*
X-98843Y141472D01*
X-101415Y144045D01*
X-102807Y147406D01*
X-102807Y151044D01*
X-101415Y154405D01*
X-98843Y156978D01*
X-95481Y158370D01*
X-91844Y158370D01*
X-88482Y156978D01*
X-85910Y154405D01*
X-84518Y151044D01*
X-84518Y147406D01*
X-85910Y144045D01*
X-88482Y141472D01*
X-91844Y140080D01*
X-95481Y140080D01*
G37*
%LPD*%
%LPC*%
G36*
X-95481Y114680D02*
X-95481Y114680D01*
X-98843Y116072D01*
X-101415Y118645D01*
X-102807Y122006D01*
X-102807Y125644D01*
X-101415Y129005D01*
X-98843Y131578D01*
X-95481Y132970D01*
X-91844Y132970D01*
X-88482Y131578D01*
X-85910Y129005D01*
X-84518Y125644D01*
X-84518Y122006D01*
X-85910Y118645D01*
X-88482Y116072D01*
X-91844Y114680D01*
X-95481Y114680D01*
G37*
%LPD*%
%LPC*%
G36*
X-66107Y62738D02*
X-66107Y62738D01*
X-67000Y63631D01*
X-67000Y65674D01*
X-67014Y65764D01*
X-67022Y65855D01*
X-67034Y65885D01*
X-67039Y65917D01*
X-67082Y65998D01*
X-67118Y66081D01*
X-67144Y66114D01*
X-67155Y66134D01*
X-67178Y66156D01*
X-67223Y66212D01*
X-67282Y66271D01*
X-67282Y70254D01*
X-67223Y70313D01*
X-67170Y70387D01*
X-67110Y70456D01*
X-67098Y70486D01*
X-67079Y70512D01*
X-67052Y70599D01*
X-67018Y70684D01*
X-67014Y70725D01*
X-67007Y70747D01*
X-67008Y70780D01*
X-67000Y70851D01*
X-67000Y72894D01*
X-66107Y73787D01*
X-56843Y73787D01*
X-55950Y72894D01*
X-55950Y63631D01*
X-56843Y62738D01*
X-66107Y62738D01*
G37*
%LPD*%
%LPC*%
G36*
X56061Y85661D02*
X56061Y85661D01*
X56061Y91678D01*
X60372Y91678D01*
X61018Y91505D01*
X61598Y91171D01*
X62071Y90698D01*
X62405Y90118D01*
X62578Y89472D01*
X62578Y85661D01*
X56061Y85661D01*
G37*
%LPD*%
%LPC*%
G36*
X56061Y76597D02*
X56061Y76597D01*
X56061Y82614D01*
X62578Y82614D01*
X62578Y78803D01*
X62405Y78157D01*
X62071Y77577D01*
X61598Y77104D01*
X61018Y76770D01*
X60372Y76597D01*
X56061Y76597D01*
G37*
%LPD*%
%LPC*%
G36*
X48703Y76597D02*
X48703Y76597D01*
X48057Y76770D01*
X47477Y77104D01*
X47004Y77577D01*
X46670Y78157D01*
X46497Y78803D01*
X46497Y82614D01*
X53014Y82614D01*
X53014Y76597D01*
X48703Y76597D01*
G37*
%LPD*%
%LPC*%
G36*
X97923Y176148D02*
X97923Y176148D01*
X97923Y181166D01*
X100734Y181166D01*
X101381Y180993D01*
X101960Y180658D01*
X102433Y180185D01*
X102768Y179606D01*
X102941Y178959D01*
X102941Y176148D01*
X97923Y176148D01*
G37*
%LPD*%
%LPC*%
G36*
X-53016Y69786D02*
X-53016Y69786D01*
X-53016Y72597D01*
X-52843Y73243D01*
X-52508Y73823D01*
X-52035Y74296D01*
X-51456Y74630D01*
X-50809Y74803D01*
X-47998Y74803D01*
X-47998Y69786D01*
X-53016Y69786D01*
G37*
%LPD*%
%LPC*%
G36*
X97923Y173102D02*
X97923Y173102D01*
X102941Y173102D01*
X102941Y170291D01*
X102768Y169644D01*
X102433Y169065D01*
X101960Y168592D01*
X101381Y168257D01*
X100734Y168084D01*
X97923Y168084D01*
X97923Y173102D01*
G37*
%LPD*%
%LPC*%
G36*
X89859Y176148D02*
X89859Y176148D01*
X89859Y178959D01*
X90032Y179606D01*
X90367Y180185D01*
X90840Y180658D01*
X91419Y180993D01*
X92066Y181166D01*
X94877Y181166D01*
X94877Y176148D01*
X89859Y176148D01*
G37*
%LPD*%
%LPC*%
G36*
X-44952Y69786D02*
X-44952Y69786D01*
X-44952Y74803D01*
X-42141Y74803D01*
X-41494Y74630D01*
X-40915Y74296D01*
X-40442Y73823D01*
X-40107Y73243D01*
X-39934Y72597D01*
X-39934Y69786D01*
X-44952Y69786D01*
G37*
%LPD*%
%LPC*%
G36*
X-50809Y61722D02*
X-50809Y61722D01*
X-51456Y61895D01*
X-52035Y62229D01*
X-52508Y62702D01*
X-52843Y63282D01*
X-53016Y63928D01*
X-53016Y66739D01*
X-47998Y66739D01*
X-47998Y61722D01*
X-50809Y61722D01*
G37*
%LPD*%
%LPC*%
G36*
X-44952Y66739D02*
X-44952Y66739D01*
X-39934Y66739D01*
X-39934Y63928D01*
X-40107Y63282D01*
X-40442Y62702D01*
X-40915Y62229D01*
X-41494Y61895D01*
X-42141Y61722D01*
X-44952Y61722D01*
X-44952Y66739D01*
G37*
%LPD*%
%LPC*%
G36*
X92066Y168084D02*
X92066Y168084D01*
X91419Y168257D01*
X90840Y168592D01*
X90367Y169065D01*
X90032Y169644D01*
X89859Y170291D01*
X89859Y173102D01*
X94877Y173102D01*
X94877Y168084D01*
X92066Y168084D01*
G37*
%LPD*%
%LPC*%
G36*
X96399Y174624D02*
X96399Y174624D01*
X96399Y174626D01*
X96401Y174626D01*
X96401Y174624D01*
X96399Y174624D01*
G37*
%LPD*%
%LPC*%
G36*
X54537Y84137D02*
X54537Y84137D01*
X54537Y84138D01*
X54538Y84138D01*
X54538Y84137D01*
X54537Y84137D01*
G37*
%LPD*%
%LPC*%
G36*
X-46476Y68262D02*
X-46476Y68262D01*
X-46476Y68263D01*
X-46474Y68263D01*
X-46474Y68262D01*
X-46476Y68262D01*
G37*
%LPD*%
D10*
X-61475Y68263D03*
X-46475Y68263D03*
D11*
X106363Y134938D03*
D12*
X37538Y84138D03*
X54538Y84138D03*
D13*
X-93663Y174625D03*
X-93663Y149225D03*
X-93663Y123825D03*
X-55563Y268288D03*
X-80963Y268288D03*
D10*
X81400Y174625D03*
X96400Y174625D03*
D14*
X67238Y174625D03*
X50238Y174625D03*
D13*
X63132Y268289D03*
X88532Y268289D03*
D15*
X82600Y293913D03*
X165200Y150813D03*
X82600Y7713D03*
X-82600Y7713D03*
X-165200Y150813D03*
X-82600Y293913D03*
X123900Y222313D03*
X123900Y79313D03*
X0Y7713D03*
X-123900Y79313D03*
X-123900Y222313D03*
D16*
X7500Y150050D03*
D17*
X37000Y264050D03*
X-37000Y284050D03*
D18*
X-37000Y190050D03*
D19*
X0Y120650D03*
X-1588Y79375D03*
X-61913Y107950D03*
X-127000Y146050D03*
X-125413Y165100D03*
X-68263Y201613D03*
X-1588Y176213D03*
X-15875Y268288D03*
D20*
X63132Y268289D02*
X63500Y267921D01*
X63500Y247650D01*
X63132Y268289D02*
X63132Y278181D01*
X58738Y282575D01*
D19*
X-47625Y139700D03*
X49213Y30163D03*
X69850Y42863D03*
X-58738Y36513D03*
X-77788Y46038D03*
X-3175Y225425D03*
X141288Y169863D03*
X139700Y136525D03*
X0Y246063D03*
X42863Y223838D03*
X96838Y196850D03*
X106363Y157163D03*
X-55563Y249238D03*
X-68263Y249238D03*
D20*
X-65088Y293913D02*
X-82600Y293913D01*
X-65088Y293913D02*
X-46469Y293913D01*
X-111125Y190500D02*
X-139700Y190500D01*
X-148182Y182018D01*
X-165200Y152541D01*
X-165200Y150813D01*
X-95250Y238125D02*
X-104775Y247650D01*
X-165200Y150813D02*
X-165200Y149084D01*
X-152519Y127119D01*
X-90488Y19674D02*
X-84922Y10035D01*
X-82600Y7713D01*
X-138113Y112713D02*
X-152519Y127119D01*
X-138113Y112713D02*
X-111125Y112713D01*
X-90488Y92075D01*
X-90488Y19674D01*
X-82600Y7713D02*
X-44675Y7713D01*
X-17962Y39033D02*
X9119Y39033D01*
X41275Y6877D01*
X81764Y6877D01*
X82600Y7713D01*
X84922Y10035D01*
X100013Y36173D01*
X100013Y53975D01*
X112713Y111125D02*
X142875Y111125D01*
X143845Y112095D01*
X165200Y149084D01*
X165200Y150813D01*
X112713Y111125D02*
X92075Y90488D01*
D19*
X46150Y196850D03*
D21*
X77356Y272919D02*
X82600Y278163D01*
X82600Y293913D01*
X77356Y228056D02*
X46150Y196850D01*
X77356Y228056D02*
X77356Y272919D01*
D20*
X-23158Y29230D02*
X-44675Y7713D01*
X-23158Y29230D02*
X-23158Y33837D01*
X-17962Y39033D01*
X96580Y57408D02*
X100013Y53975D01*
X96580Y57408D02*
X95327Y57408D01*
X90131Y62604D01*
X90131Y69952D01*
X92075Y71896D01*
X92075Y90488D01*
X-95250Y216738D02*
X-95250Y238125D01*
X-95250Y216738D02*
X-91648Y213137D01*
X-91648Y205788D01*
X-96844Y200592D01*
X-101033Y200592D01*
X-111125Y190500D01*
X-65273Y293727D02*
X-65088Y293913D01*
X-46469Y293519D02*
X-37000Y284050D01*
X-46469Y293519D02*
X-46469Y293913D01*
X-37000Y284050D02*
X-27138Y293913D01*
X82600Y293913D01*
X-82600Y293913D02*
X-84922Y291590D01*
X-104775Y257203D01*
X-104775Y247650D01*
X-52763Y268288D02*
X-37000Y284050D01*
X-52763Y268288D02*
X-55563Y268288D01*
D22*
X-14288Y30163D03*
D23*
X0Y15875D01*
X0Y7713D01*
D22*
X-100518Y209462D03*
D23*
X-113368Y222313D01*
X-123900Y222313D01*
D22*
X99001Y66278D03*
D23*
X110865Y66278D01*
X123900Y79313D01*
D22*
X-62475Y68263D03*
D24*
X-61475Y68263D01*
D19*
X-14652Y235314D03*
D25*
X-14482Y235144D01*
X26988Y235144D01*
X-14482Y168275D02*
X-14482Y76123D01*
X-30121Y60484D01*
D19*
X-30121Y60484D03*
X26988Y247744D03*
D25*
X26988Y235144D01*
X-14482Y235144D02*
X-14482Y168275D01*
D24*
X34363Y174625D02*
X50238Y174625D01*
X34363Y174625D02*
X28013Y168275D01*
X-14482Y168275D01*
D23*
X-116300Y86913D02*
X-123900Y79313D01*
X-116300Y86913D02*
X-99358Y86913D01*
D22*
X-99358Y86913D03*
D24*
X81400Y174625D02*
X83113Y174625D01*
X81400Y174625D02*
X67238Y174625D01*
D22*
X124353Y193778D03*
D23*
X124353Y221860D01*
X123900Y222313D01*
X88338Y134938D02*
X37538Y84138D01*
X88338Y134938D02*
X106363Y134938D01*
D22*
X39615Y83302D03*
D23*
X38373Y83302D01*
X37538Y84138D01*
D26*
X-33338Y192519D02*
X-33338Y233363D01*
X-33338Y246063D01*
X-22225Y257175D01*
X14288Y257175D01*
D19*
X-33338Y233363D03*
D26*
X21163Y264050D02*
X37000Y264050D01*
X21163Y264050D02*
X14288Y257175D01*
D20*
X-34531Y192519D02*
X-37000Y190050D01*
X-34531Y192519D02*
X-33338Y192519D01*
M02*
